0
SECTION
2
HEADER
9
$INSUNITS
70
4
0
ENDSEC
0
SECTION
2
TABLES
0
TABLE
2
LTYPE
0
LTYPE
72
65
70
64
2
CONTINUOUS
3
______
73
0
40
0
0
ENDTAB
0
TABLE
2
LAYER
0
ENDTAB
0
ENDSEC
0
SECTION
2
ENTITIES
0
LINE
8
0
10
45.1007629
20
-135.3332748
11
54.338846
21
-82.9415025
0
LINE
8
0
10
57.8142138
20
-80.5080237
11
75.5587932
21
-83.6368719
0
LINE
8
0
10
78.9754452
20
-81.4665904
11
80.907393
21
-74.3322241
0
LINE
8
0
10
84.6300126
20
-72.2325808
11
100.7983577
21
-76.8687792
0
LINE
8
0
10
104.4435421
20
-75.0132653
11
105.4842448
21
-72.1609211
0
LINE
8
0
10
109.3285773
20
-70.3701144
11
127.7363033
21
-77.0699787
0
LINE
8
0
10
129.551688
20
-80.8514443
11
128.878214
21
-82.8398733
0
LINE
8
0
10
130.7281729
20
-86.6336837
11
160.7835642
21
-97.1582533
0
LINE
8
0
10
162.7374918
20
-97.1682573
11
193.8947603
21
-86.6147403
0
LINE
8
0
10
195.773764
20
-82.8109259
11
195.1415728
21
-80.9443842
0
LINE
8
0
10
197.0502537
20
-77.1306897
11
215.6807622
21
-71.035985
0
LINE
8
0
10
219.4317138
20
-72.8587883
11
220.2181029
21
-75.0135613
0
LINE
8
0
10
223.8632026
20
-76.8688429
11
240.0317698
21
-72.2325808
0
LINE
8
0
10
243.7543894
20
-74.3322241
11
245.6863372
21
-81.4665904
0
LINE
8
0
10
249.1029892
20
-83.6368719
11
266.8475686
21
-80.5080237
0
LINE
8
0
10
270.3229364
20
-82.9415025
11
279.5610195
21
-135.3332748
0
LINE
8
0
10
277.1275408
20
-138.8086426
11
256.8843611
21
-142.3780614
0
LINE
8
0
10
253.4408655
20
-140.1009088
11
251.9532425
21
-133.681536
0
LINE
8
0
10
248.2037793
20
-131.4750216
11
232.542764
21
-135.9657454
0
LINE
8
0
10
230.482909
20
-139.6659709
11
235.5297945
21
-157.5107313
0
LINE
8
0
10
234.0588047
20
-160.9720866
11
182.8541784
21
-188.3810441
0
LINE
8
0
10
179.6544253
20
-188.1480643
11
164.9546436
21
-177.2754447
0
LINE
8
0
10
161.4999935
20
-177.195624
11
144.9784021
21
-188.2730341
0
LINE
8
0
10
141.8919502
20
-188.4261932
11
90.6029777
21
-160.9720866
0
LINE
8
0
10
89.1319879
20
-157.5107313
11
94.1788734
21
-139.6659709
0
LINE
8
0
10
92.1190184
20
-135.9657454
11
76.4580031
21
-131.4750216
0
LINE
8
0
10
72.7085399
20
-133.681536
11
71.2209169
21
-140.1009088
0
LINE
8
0
10
67.7774213
20
-142.3780614
11
47.5342416
21
-138.8086426
0
ARC
8
0
10
57.2932692
20
-83.462447
40
3
50
79.9999992
51
169.9999992
0
ARC
8
0
10
76.0797378
20
-80.6824486
40
3
50
259.9999992
51
344.8480019
0
ARC
8
0
10
83.8031004
20
-75.1163659
40
3
50
73.9999976
51
164.8480019
0
ARC
8
0
10
101.6252699
20
-73.9849941
40
3
50
253.9999976
51
339.9550599
0
ARC
8
0
10
108.302517
20
-73.1891923
40
3
50
70.0000019
51
159.9550599
0
ARC
8
0
10
126.7102429
20
-79.8890566
40
3
50
341.2889366
51
70.0000019
0
ARC
8
0
10
131.7196591
20
-83.8022609
40
3
50
161.2889366
51
250.7011529
0
ARC
8
0
10
161.7750504
20
-94.3268305
40
3
50
250.7011529
51
288.7121469
0
ARC
8
0
10
192.9323189
20
-83.7733135
40
3
50
288.7121469
51
18.7110634
0
ARC
8
0
10
197.9830179
20
-79.9819966
40
3
50
108.1147676
51
198.7110634
0
ARC
8
0
10
216.6135264
20
-73.8872918
40
3
50
20.0496619
51
108.1147676
0
ARC
8
0
10
223.0362904
20
-73.9850578
40
3
50
200.0496619
51
286.0000024
0
ARC
8
0
10
240.858682
20
-75.1163659
40
3
50
15.1519981
51
106.0000024
0
ARC
8
0
10
248.5820446
20
-80.6824486
40
3
50
195.1519981
51
280.0000008
0
ARC
8
0
10
267.3685132
20
-83.462447
40
3
50
10.0000008
51
100.0000008
0
ARC
8
0
10
276.6065963
20
-135.8542193
40
3
50
280.0000008
51
10.0000008
0
ARC
8
0
10
256.3634165
20
-139.4236381
40
3
50
193.0473902
51
280.0000008
0
ARC
8
0
10
249.0306915
20
-134.3588066
40
3
50
13.0473902
51
106.0000024
0
ARC
8
0
10
233.3696762
20
-138.8495305
40
3
50
106.0000024
51
195.7920547
0
ARC
8
0
10
232.6430273
20
-158.3271717
40
3
50
298.1593764
51
15.7920547
0
ARC
8
0
10
181.4384011
20
-185.7361292
40
3
50
233.5117042
51
298.1593764
0
ARC
8
0
10
163.1706679
20
-179.6873798
40
3
50
53.5117042
51
123.8410941
0
ARC
8
0
10
143.3077276
20
-185.7812783
40
3
50
241.8406236
51
303.8410941
0
ARC
8
0
10
92.0187551
20
-158.3271717
40
3
50
164.2079453
51
241.8406236
0
ARC
8
0
10
91.2921062
20
-138.8495305
40
3
50
344.2079453
51
73.9999976
0
ARC
8
0
10
75.6310909
20
-134.3588066
40
3
50
73.9999976
51
166.9526098
0
ARC
8
0
10
68.2983659
20
-139.4236381
40
3
50
259.9999992
51
346.9526098
0
ARC
8
0
10
48.0551861
20
-135.8542193
40
3
50
169.9999992
51
259.9999992
0
ENDSEC
0
EOF