0
SECTION
2
HEADER
9
$INSUNITS
70
4
0
ENDSEC
0
SECTION
2
TABLES
0
TABLE
2
LTYPE
0
LTYPE
72
65
70
64
2
CONTINUOUS
3
______
73
0
40
0
0
ENDTAB
0
TABLE
2
LAYER
0
ENDTAB
0
ENDSEC
0
SECTION
2
ENTITIES
0
LINE
8
0
10
45.1007629
20
-135.3332748
11
54.338846
21
-82.9415025
0
LINE
8
0
10
57.8142138
20
-80.5080237
11
75.5587932
21
-83.6368719
0
LINE
8
0
10
78.9754452
20
-81.4665904
11
80.907393
21
-74.3322241
0
LINE
8
0
10
84.6300126
20
-72.2325808
11
100.7983577
21
-76.8687792
0
LINE
8
0
10
104.4435421
20
-75.0132653
11
105.4842448
21
-72.1609211
0
LINE
8
0
10
109.3285773
20
-70.3701144
11
127.7363033
21
-77.0699787
0
LINE
8
0
10
129.551688
20
-80.8514443
11
128.878214
21
-82.8398733
0
LINE
8
0
10
130.7281729
20
-86.6336837
11
160.7835642
21
-97.1582533
0
LINE
8
0
10
162.7374918
20
-97.1682573
11
193.8947603
21
-86.6147403
0
LINE
8
0
10
195.773764
20
-82.8109259
11
195.1415728
21
-80.9443842
0
LINE
8
0
10
197.0502537
20
-77.1306897
11
215.6807622
21
-71.035985
0
LINE
8
0
10
219.4317138
20
-72.8587883
11
220.2181029
21
-75.0135613
0
LINE
8
0
10
223.8632026
20
-76.8688429
11
240.0317698
21
-72.2325808
0
LINE
8
0
10
243.7543894
20
-74.3322241
11
245.6863372
21
-81.4665904
0
LINE
8
0
10
249.1029892
20
-83.6368719
11
266.8475686
21
-80.5080237
0
LINE
8
0
10
270.3229364
20
-82.9415025
11
279.5610195
21
-135.3332748
0
LINE
8
0
10
277.1275408
20
-138.8086426
11
256.8843611
21
-142.3780614
0
LINE
8
0
10
253.4408655
20
-140.1009088
11
251.9532425
21
-133.681536
0
LINE
8
0
10
248.2037793
20
-131.4750216
11
232.542764
21
-135.9657454
0
LINE
8
0
10
230.482909
20
-139.6659709
11
235.5297945
21
-157.5107313
0
LINE
8
0
10
234.0588047
20
-160.9720866
11
182.8541784
21
-188.3810441
0
LINE
8
0
10
179.6544253
20
-188.1480643
11
164.9546436
21
-177.2754447
0
LINE
8
0
10
161.4999935
20
-177.195624
11
144.9784021
21
-188.2730341
0
LINE
8
0
10
141.8919502
20
-188.4261932
11
90.6029777
21
-160.9720866
0
LINE
8
0
10
89.1319879
20
-157.5107313
11
94.1788734
21
-139.6659709
0
LINE
8
0
10
92.1190184
20
-135.9657454
11
76.4580031
21
-131.4750216
0
LINE
8
0
10
72.7085399
20
-133.681536
11
71.2209169
21
-140.1009088
0
LINE
8
0
10
67.7774213
20
-142.3780614
11
47.5342416
21
-138.8086426
0
ARC
8
0
10
57.2932692
20
-83.462447
40
3
50
79.9999992
51
169.9999992
0
ARC
8
0
10
76.0797378
20
-80.6824486
40
3
50
259.9999992
51
344.8480019
0
ARC
8
0
10
83.8031004
20
-75.1163659
40
3
50
73.9999976
51
164.8480019
0
ARC
8
0
10
101.6252699
20
-73.9849941
40
3
50
253.9999976
51
339.9550599
0
ARC
8
0
10
108.302517
20
-73.1891923
40
3
50
70.0000019
51
159.9550599
0
ARC
8
0
10
126.7102429
20
-79.8890566
40
3
50
341.2889366
51
70.0000019
0
ARC
8
0
10
131.7196591
20
-83.8022609
40
3
50
161.2889366
51
250.7011529
0
ARC
8
0
10
161.7750504
20
-94.3268305
40
3
50
250.7011529
51
288.7121469
0
ARC
8
0
10
192.9323189
20
-83.7733135
40
3
50
288.7121469
51
18.7110634
0
ARC
8
0
10
197.9830179
20
-79.9819966
40
3
50
108.1147676
51
198.7110634
0
ARC
8
0
10
216.6135264
20
-73.8872918
40
3
50
20.0496619
51
108.1147676
0
ARC
8
0
10
223.0362904
20
-73.9850578
40
3
50
200.0496619
51
286.0000024
0
ARC
8
0
10
240.858682
20
-75.1163659
40
3
50
15.1519981
51
106.0000024
0
ARC
8
0
10
248.5820446
20
-80.6824486
40
3
50
195.1519981
51
280.0000008
0
ARC
8
0
10
267.3685132
20
-83.462447
40
3
50
10.0000008
51
100.0000008
0
ARC
8
0
10
276.6065963
20
-135.8542193
40
3
50
280.0000008
51
10.0000008
0
ARC
8
0
10
256.3634165
20
-139.4236381
40
3
50
193.0473902
51
280.0000008
0
ARC
8
0
10
249.0306915
20
-134.3588066
40
3
50
13.0473902
51
106.0000024
0
ARC
8
0
10
233.3696762
20
-138.8495305
40
3
50
106.0000024
51
195.7920547
0
ARC
8
0
10
232.6430273
20
-158.3271717
40
3
50
298.1593764
51
15.7920547
0
ARC
8
0
10
181.4384011
20
-185.7361292
40
3
50
233.5117042
51
298.1593764
0
ARC
8
0
10
163.1706679
20
-179.6873798
40
3
50
53.5117042
51
123.8410941
0
ARC
8
0
10
143.3077276
20
-185.7812783
40
3
50
241.8406236
51
303.8410941
0
ARC
8
0
10
92.0187551
20
-158.3271717
40
3
50
164.2079453
51
241.8406236
0
ARC
8
0
10
91.2921062
20
-138.8495305
40
3
50
344.2079453
51
73.9999976
0
ARC
8
0
10
75.6310909
20
-134.3588066
40
3
50
73.9999976
51
166.9526098
0
ARC
8
0
10
68.2983659
20
-139.4236381
40
3
50
259.9999992
51
346.9526098
0
ARC
8
0
10
48.0551861
20
-135.8542193
40
3
50
169.9999992
51
259.9999992
0
LINE
8
0
10
49.7175824
20
-134.7765188
11
66.9517181
21
-137.8153619
0
LINE
8
0
10
66.9517181
20
-137.8153619
11
69.816913
21
-121.566034
0
LINE
8
0
10
69.816913
20
-121.566034
11
52.5827773
21
-118.5271909
0
LINE
8
0
10
52.5827773
20
-118.5271909
11
49.7175824
21
-134.7765188
0
LINE
8
0
10
52.6696015
20
-118.034787
11
69.9037372
21
-121.0736301
0
LINE
8
0
10
69.9037372
20
-121.0736301
11
72.7689321
21
-104.8243022
0
LINE
8
0
10
72.7689321
20
-104.8243022
11
55.5347964
21
-101.7854591
0
LINE
8
0
10
55.5347964
20
-101.7854591
11
52.6696015
21
-118.034787
0
LINE
8
0
10
55.6216205
20
-101.2930552
11
72.8557562
21
-104.3318983
0
LINE
8
0
10
72.8557562
20
-104.3318983
11
75.7209511
21
-88.0825704
0
LINE
8
0
10
75.7209511
20
-88.0825704
11
58.4868154
21
-85.0437273
0
LINE
8
0
10
58.4868154
20
-85.0437273
11
55.6216205
21
-101.2930552
0
LINE
8
0
10
70.8621329
20
-125.345129
11
87.6842126
21
-130.1687828
0
LINE
8
0
10
87.6842126
20
-130.1687828
11
92.2322289
21
-114.3079648
0
LINE
8
0
10
92.2322289
20
-114.3079648
11
75.4101492
21
-109.484311
0
LINE
8
0
10
75.4101492
20
-109.484311
11
70.8621329
21
-125.345129
0
LINE
8
0
10
75.5479679
20
-109.0036801
11
92.3700476
21
-113.8273339
0
LINE
8
0
10
92.3700476
20
-113.8273339
11
96.9180639
21
-97.9665159
0
LINE
8
0
10
96.9180639
20
-97.9665159
11
80.0959842
21
-93.1428621
0
LINE
8
0
10
80.0959842
20
-93.1428621
11
75.5479679
21
-109.0036801
0
LINE
8
0
10
80.233803
20
-92.6622312
11
97.0558827
21
-97.485885
0
LINE
8
0
10
97.0558827
20
-97.485885
11
101.603899
21
-81.625067
0
LINE
8
0
10
101.603899
20
-81.625067
11
84.7818193
21
-76.8014132
0
LINE
8
0
10
84.7818193
20
-76.8014132
11
80.233803
21
-92.6622312
0
LINE
8
0
10
91.9335372
20
-122.4089884
11
108.378158
21
-128.3943409
0
LINE
8
0
10
108.378158
20
-128.3943409
11
114.0214904
21
-112.8894126
0
LINE
8
0
10
114.0214904
20
-112.8894126
11
97.5768696
21
-106.9040601
0
LINE
8
0
10
97.5768696
20
-106.9040601
11
91.9335372
21
-122.4089884
0
LINE
8
0
10
97.7478796
20
-106.4342138
11
114.1925004
21
-112.4195663
0
LINE
8
0
10
114.1925004
20
-112.4195663
11
119.8358328
21
-96.914638
0
LINE
8
0
10
119.8358328
20
-96.914638
11
103.391212
21
-90.9292855
0
LINE
8
0
10
103.391212
20
-90.9292855
11
97.7478796
21
-106.4342138
0
LINE
8
0
10
103.562222
20
-90.4594393
11
120.0068428
21
-96.4447918
0
LINE
8
0
10
120.0068428
20
-96.4447918
11
125.6501752
21
-80.9398635
0
LINE
8
0
10
125.6501752
20
-80.9398635
11
109.2055544
21
-74.954511
0
LINE
8
0
10
109.2055544
20
-74.954511
11
103.562222
21
-90.4594393
0
LINE
8
0
10
106.1118431
20
-136.0828919
11
122.5564639
21
-142.0682444
0
LINE
8
0
10
122.5564639
20
-142.0682444
11
128.1997963
21
-126.5633161
0
LINE
8
0
10
128.1997963
20
-126.5633161
11
111.7551755
21
-120.5779636
0
LINE
8
0
10
111.7551755
20
-120.5779636
11
106.1118431
21
-136.0828919
0
LINE
8
0
10
111.9261855
20
-120.1081173
11
128.3708063
21
-126.0934698
0
LINE
8
0
10
128.3708063
20
-126.0934698
11
134.0141387
21
-110.5885415
0
LINE
8
0
10
134.0141387
20
-110.5885415
11
117.5695179
21
-104.603189
0
LINE
8
0
10
117.5695179
20
-104.603189
11
111.9261855
21
-120.1081173
0
LINE
8
0
10
117.740528
20
-104.1333428
11
134.1851488
21
-110.1186953
0
LINE
8
0
10
134.1851488
20
-110.1186953
11
139.8284812
21
-94.613767
0
LINE
8
0
10
139.8284812
20
-94.613767
11
123.3838604
21
-88.6284145
0
LINE
8
0
10
123.3838604
20
-88.6284145
11
117.740528
21
-104.1333428
0
LINE
8
0
10
121.6582297
20
-145.9980249
11
138.1028505
21
-151.9833774
0
LINE
8
0
10
138.1028505
20
-151.9833774
11
143.7461829
21
-136.4784491
0
LINE
8
0
10
143.7461829
20
-136.4784491
11
127.3015621
21
-130.4930966
0
LINE
8
0
10
127.3015621
20
-130.4930966
11
121.6582297
21
-145.9980249
0
LINE
8
0
10
127.4725721
20
-130.0232504
11
143.9171929
21
-136.0086029
0
LINE
8
0
10
143.9171929
20
-136.0086029
11
149.5605253
21
-120.5036746
0
LINE
8
0
10
149.5605253
20
-120.5036746
11
133.1159045
21
-114.5183221
0
LINE
8
0
10
133.1159045
20
-114.5183221
11
127.4725721
21
-130.0232504
0
LINE
8
0
10
133.2869146
20
-114.0484758
11
149.7315354
21
-120.0338283
0
LINE
8
0
10
149.7315354
20
-120.0338283
11
155.3748678
21
-104.5289
0
LINE
8
0
10
155.3748678
20
-104.5289
11
138.930247
21
-98.5435475
0
LINE
8
0
10
138.930247
20
-98.5435475
11
133.2869146
21
-114.0484758
0
LINE
8
0
10
94.1445893
20
-157.2674342
11
110.5892101
21
-163.2527867
0
LINE
8
0
10
110.5892101
20
-163.2527867
11
116.2325425
21
-147.7478584
0
LINE
8
0
10
116.2325425
20
-147.7478584
11
99.7879217
21
-141.7625059
0
LINE
8
0
10
99.7879217
20
-141.7625059
11
94.1445893
21
-157.2674342
0
LINE
8
0
10
111.9607431
20
-163.9064946
11
126.2959039
21
-173.9440823
0
LINE
8
0
10
126.2959039
20
-173.9440823
11
135.7599151
21
-160.4280736
0
LINE
8
0
10
135.7599151
20
-160.4280736
11
121.4247543
21
-150.3904859
0
LINE
8
0
10
121.4247543
20
-150.3904859
11
111.9607431
21
-163.9064946
0
LINE
8
0
10
130.2936486
20
-171.4224398
11
142.6680173
21
-183.7968085
0
LINE
8
0
10
142.6680173
20
-183.7968085
11
154.3352792
21
-172.1295466
0
LINE
8
0
10
154.3352792
20
-172.1295466
11
141.9609105
21
-159.7551779
0
LINE
8
0
10
141.9609105
20
-159.7551779
11
130.2936486
21
-171.4224398
0
LINE
8
0
10
257.7100643
20
-137.8153619
11
274.9442
21
-134.7765188
0
LINE
8
0
10
274.9442
20
-134.7765188
11
272.0790051
21
-118.5271909
0
LINE
8
0
10
272.0790051
20
-118.5271909
11
254.8448694
21
-121.566034
0
LINE
8
0
10
254.8448694
20
-121.566034
11
257.7100643
21
-137.8153619
0
LINE
8
0
10
254.7580452
20
-121.0736301
11
271.9921809
21
-118.034787
0
LINE
8
0
10
271.9921809
20
-118.034787
11
269.126986
21
-101.7854591
0
LINE
8
0
10
269.126986
20
-101.7854591
11
251.8928503
21
-104.8243022
0
LINE
8
0
10
251.8928503
20
-104.8243022
11
254.7580452
21
-121.0736301
0
LINE
8
0
10
251.8060262
20
-104.3318983
11
269.0401619
21
-101.2930552
0
LINE
8
0
10
269.0401619
20
-101.2930552
11
266.174967
21
-85.0437273
0
LINE
8
0
10
266.174967
20
-85.0437273
11
248.9408313
21
-88.0825704
0
LINE
8
0
10
248.9408313
20
-88.0825704
11
251.8060262
21
-104.3318983
0
LINE
8
0
10
236.9775698
20
-130.1687828
11
253.7996495
21
-125.345129
0
LINE
8
0
10
253.7996495
20
-125.345129
11
249.2516332
21
-109.484311
0
LINE
8
0
10
249.2516332
20
-109.484311
11
232.4295535
21
-114.3079648
0
LINE
8
0
10
232.4295535
20
-114.3079648
11
236.9775698
21
-130.1687828
0
LINE
8
0
10
232.2917348
20
-113.8273339
11
249.1138145
21
-109.0036801
0
LINE
8
0
10
249.1138145
20
-109.0036801
11
244.5657982
21
-93.1428621
0
LINE
8
0
10
244.5657982
20
-93.1428621
11
227.7437185
21
-97.9665159
0
LINE
8
0
10
227.7437185
20
-97.9665159
11
232.2917348
21
-113.8273339
0
LINE
8
0
10
227.6058997
20
-97.485885
11
244.4279794
21
-92.6622312
0
LINE
8
0
10
244.4279794
20
-92.6622312
11
239.8799631
21
-76.8014132
0
LINE
8
0
10
239.8799631
20
-76.8014132
11
223.0578834
21
-81.625067
0
LINE
8
0
10
223.0578834
20
-81.625067
11
227.6058997
21
-97.485885
0
LINE
8
0
10
216.2836244
20
-128.3943409
11
232.7282452
21
-122.4089884
0
LINE
8
0
10
232.7282452
20
-122.4089884
11
227.0849128
21
-106.9040601
0
LINE
8
0
10
227.0849128
20
-106.9040601
11
210.640292
21
-112.8894126
0
LINE
8
0
10
210.640292
20
-112.8894126
11
216.2836244
21
-128.3943409
0
LINE
8
0
10
210.469282
20
-112.4195663
11
226.9139028
21
-106.4342138
0
LINE
8
0
10
226.9139028
20
-106.4342138
11
221.2705704
21
-90.9292855
0
LINE
8
0
10
221.2705704
20
-90.9292855
11
204.8259496
21
-96.914638
0
LINE
8
0
10
204.8259496
20
-96.914638
11
210.469282
21
-112.4195663
0
LINE
8
0
10
204.6549396
20
-96.4447918
11
221.0995604
21
-90.4594393
0
LINE
8
0
10
221.0995604
20
-90.4594393
11
215.456228
21
-74.954511
0
LINE
8
0
10
215.456228
20
-74.954511
11
199.0116072
21
-80.9398635
0
LINE
8
0
10
199.0116072
20
-80.9398635
11
204.6549396
21
-96.4447918
0
LINE
8
0
10
202.1053185
20
-142.0682444
11
218.5499393
21
-136.0828919
0
LINE
8
0
10
218.5499393
20
-136.0828919
11
212.9066069
21
-120.5779636
0
LINE
8
0
10
212.9066069
20
-120.5779636
11
196.4619861
21
-126.5633161
0
LINE
8
0
10
196.4619861
20
-126.5633161
11
202.1053185
21
-142.0682444
0
LINE
8
0
10
196.2909761
20
-126.0934698
11
212.7355969
21
-120.1081173
0
LINE
8
0
10
212.7355969
20
-120.1081173
11
207.0922645
21
-104.603189
0
LINE
8
0
10
207.0922645
20
-104.603189
11
190.6476437
21
-110.5885415
0
LINE
8
0
10
190.6476437
20
-110.5885415
11
196.2909761
21
-126.0934698
0
LINE
8
0
10
190.4766336
20
-110.1186953
11
206.9212544
21
-104.1333428
0
LINE
8
0
10
206.9212544
20
-104.1333428
11
201.277922
21
-88.6284145
0
LINE
8
0
10
201.277922
20
-88.6284145
11
184.8333012
21
-94.613767
0
LINE
8
0
10
184.8333012
20
-94.613767
11
190.4766336
21
-110.1186953
0
LINE
8
0
10
186.5589319
20
-151.9833774
11
203.0035527
21
-145.9980249
0
LINE
8
0
10
203.0035527
20
-145.9980249
11
197.3602203
21
-130.4930966
0
LINE
8
0
10
197.3602203
20
-130.4930966
11
180.9155995
21
-136.4784491
0
LINE
8
0
10
180.9155995
20
-136.4784491
11
186.5589319
21
-151.9833774
0
LINE
8
0
10
180.7445895
20
-136.0086029
11
197.1892103
21
-130.0232504
0
LINE
8
0
10
197.1892103
20
-130.0232504
11
191.5458779
21
-114.5183221
0
LINE
8
0
10
191.5458779
20
-114.5183221
11
175.1012571
21
-120.5036746
0
LINE
8
0
10
175.1012571
20
-120.5036746
11
180.7445895
21
-136.0086029
0
LINE
8
0
10
174.930247
20
-120.0338283
11
191.3748678
21
-114.0484758
0
LINE
8
0
10
191.3748678
20
-114.0484758
11
185.7315354
21
-98.5435475
0
LINE
8
0
10
185.7315354
20
-98.5435475
11
169.2869146
21
-104.5289
0
LINE
8
0
10
169.2869146
20
-104.5289
11
174.930247
21
-120.0338283
0
LINE
8
0
10
214.0725723
20
-163.2527867
11
230.5171931
21
-157.2674342
0
LINE
8
0
10
230.5171931
20
-157.2674342
11
224.8738607
21
-141.7625059
0
LINE
8
0
10
224.8738607
20
-141.7625059
11
208.4292399
21
-147.7478584
0
LINE
8
0
10
208.4292399
20
-147.7478584
11
214.0725723
21
-163.2527867
0
LINE
8
0
10
198.3658785
20
-173.9440823
11
212.7010393
21
-163.9064946
0
LINE
8
0
10
212.7010393
20
-163.9064946
11
203.2370281
21
-150.3904859
0
LINE
8
0
10
203.2370281
20
-150.3904859
11
188.9018673
21
-160.4280736
0
LINE
8
0
10
188.9018673
20
-160.4280736
11
198.3658785
21
-173.9440823
0
LINE
8
0
10
181.9937651
20
-183.7968085
11
194.3681338
21
-171.4224398
0
LINE
8
0
10
194.3681338
20
-171.4224398
11
182.7008719
21
-159.7551779
0
LINE
8
0
10
182.7008719
20
-159.7551779
11
170.3265032
21
-172.1295466
0
LINE
8
0
10
170.3265032
20
-172.1295466
11
181.9937651
21
-183.7968085
0
ENDSEC
0
EOF