0
SECTION
2
HEADER
9
$INSUNITS
70
4
0
ENDSEC
0
SECTION
2
TABLES
0
TABLE
2
LTYPE
0
LTYPE
72
65
70
64
2
CONTINUOUS
3
______
73
0
40
0
0
ENDTAB
0
TABLE
2
LAYER
0
ENDTAB
0
ENDSEC
0
SECTION
2
ENTITIES
0
LINE
8
0
10
46.7637602
20
-138.5712434
11
68.4295307
21
-142.3915033
0
ARC
8
0
10
68.7768271
20
-140.4218878
40
2
50
260
51
349.9999987
0
LINE
8
0
10
70.7464426
20
-140.7691842
11
71.6146835
21
-135.8451454
0
LINE
8
0
10
79.4931456
20
-137.2343308
11
71.6146835
21
-135.8451454
0
ARC
8
0
10
79.840442
20
-135.2647153
40
2
50
259.9999999
51
350.0000001
0
LINE
8
0
10
82.2642923
20
-133.0359182
11
81.8100576
21
-135.6120116
0
LINE
8
0
10
82.2642923
20
-133.0359182
11
88.6755926
21
-134.874329
0
ARC
8
0
10
89.2268673
20
-132.9518056
40
2
50
254
51
344.0000014
0
LINE
8
0
10
91.1493907
20
-133.5030803
11
92.5275775
21
-128.6967718
0
LINE
8
0
10
98.8032413
20
-130.4962894
11
92.5275775
21
-128.6967718
0
LINE
8
0
10
103.0587049
20
-132.0451515
11
98.8032413
21
-130.4962894
0
LINE
8
0
10
103.0587049
20
-132.0451515
11
101.3488206
21
-136.7430203
0
ARC
8
0
10
103.2279894
20
-137.4276549
40
2
50
160.0000006
51
189.9999985
0
LINE
8
0
10
101.2583739
20
-137.7749512
11
99.1271989
21
-136.999267
0
ARC
8
0
10
98.4431586
20
-138.8786522
40
2
50
69.9999998
51
159.9999992
0
LINE
8
0
10
96.5637734
20
-138.1946119
11
89.3813504
21
-157.9281569
0
ARC
8
0
10
91.2607356
20
-158.6121972
40
2
50
159.9999992
51
249.9999998
0
LINE
8
0
10
90.5766953
20
-160.4915824
11
109.5218485
21
-167.3870543
0
LINE
8
0
10
109.5218485
20
-167.3870543
11
125.7012962
21
-178.7160255
0
ARC
8
0
10
126.848449
20
-177.0777214
40
2
50
235
51
324.9999993
0
LINE
8
0
10
128.4867531
20
-178.2248743
11
129.5570842
21
-176.6962831
0
LINE
8
0
10
129.5570842
20
-176.6962831
11
141.2538038
21
-188.3930026
0
ARC
8
0
10
142.6680173
20
-186.978789
40
2
50
225
51
315
0
LINE
8
0
10
144.0822309
20
-188.3930026
11
158.9314733
21
-173.5437602
0
ARC
8
0
10
157.5172597
20
-172.1295466
40
2
50
315
51
405
0
LINE
8
0
10
158.9314733
20
-170.715333
11
143.3751241
21
-155.1589838
0
ARC
8
0
10
141.9609105
20
-156.5731974
40
2
50
45
51
98.2032456
0
LINE
8
0
10
141.6755405
20
-154.5936611
11
149.5354823
21
-132.9986485
0
LINE
8
0
10
149.5354824
20
-132.9986484
11
151.9296233
21
-126.4208002
0
LINE
8
0
10
151.9296234
20
-126.4208002
11
160.1381067
21
-103.8681773
0
ARC
8
0
10
158.2587215
20
-103.184137
40
2
50
340.0000002
51
429.9999992
0
LINE
8
0
10
143.9076799
20
-95.8324294
11
158.9427618
21
-101.3047518
0
LINE
8
0
10
143.9076799
20
-95.8324294
11
144.5917202
21
-93.9530443
0
ARC
8
0
10
142.7123349
20
-93.269004
40
2
50
340
51
429.9999981
0
LINE
8
0
10
143.3963752
20
-91.3896188
11
137.5064297
21
-89.245854
0
ARC
8
0
10
135.5368142
20
-89.5931502
40
2
50
369.9999956
51
70.0000001
0
LINE
8
0
10
128.7033134
20
-84.9776038
11
136.2208545
21
-87.713765
0
LINE
8
0
10
128.7033134
20
-84.9776038
11
130.4134141
21
-80.2791408
0
ARC
8
0
10
128.5340289
20
-79.5951005
40
2
50
340
51
429.9999996
0
LINE
8
0
10
129.2174748
20
-77.715499
11
108.5448316
21
-70.1912721
0
ARC
8
0
10
107.8607913
20
-72.0706573
40
2
50
69.9999998
51
159.9999992
0
LINE
8
0
10
105.9814061
20
-71.386617
11
104.2713054
21
-76.0850801
0
LINE
8
0
10
96.7543587
20
-73.3491354
11
104.2713054
21
-76.0850801
0
ARC
8
0
10
96.0697241
20
-75.2283042
40
2
50
70
51
160.0000012
0
LINE
8
0
10
94.0144367
20
-75.0275511
11
94.1903389
21
-74.544264
0
LINE
8
0
10
94.0144367
20
-75.0275511
11
83.7904393
21
-72.095867
0
ARC
8
0
10
83.2391646
20
-74.0183904
40
2
50
74
51
164.0000004
0
LINE
8
0
10
81.3166412
20
-73.4671157
11
79.9384544
21
-78.2734242
0
LINE
8
0
10
72.2483608
20
-76.0683254
11
79.9384544
21
-78.2734242
0
ARC
8
0
10
71.6970861
20
-77.9908488
40
2
50
74.0000002
51
164.0000001
0
LINE
8
0
10
68.3337065
20
-82.4644368
11
69.7745627
21
-77.4395741
0
LINE
8
0
10
57.0090028
20
-80.4675859
11
68.3337065
21
-82.4644368
0
ARC
8
0
10
56.6617064
20
-82.4372014
40
2
50
79.9999998
51
170.0000015
0
LINE
8
0
10
52.868785
20
-92.4303864
11
54.6920909
21
-82.0899051
0
LINE
8
0
10
50.5245346
20
-105.7252911
11
52.868785
21
-92.4303865
0
LINE
8
0
10
48.7880528
20
-115.5733686
11
50.5245346
21
-105.7252912
0
LINE
8
0
10
46.9647469
20
-125.91385
11
48.7880528
21
-115.5733687
0
LINE
8
0
10
45.1414411
20
-136.2543315
11
46.9647469
21
-125.9138501
0
ARC
8
0
10
47.1110566
20
-136.6016279
40
2
50
169.9999987
51
260
0
LINE
8
0
10
256.2322517
20
-142.3915033
11
277.8980222
21
-138.5712434
0
ARC
8
0
10
277.5507258
20
-136.6016279
40
2
50
280
51
370.0000013
0
LINE
8
0
10
277.6970355
20
-125.9138501
11
279.5203413
21
-136.2543315
0
LINE
8
0
10
275.8737296
20
-115.5733687
11
277.6970355
21
-125.91385
0
LINE
8
0
10
274.1372478
20
-105.7252912
11
275.8737296
21
-115.5733686
0
LINE
8
0
10
271.7929974
20
-92.4303865
11
274.1372478
21
-105.7252911
0
LINE
8
0
10
269.9696915
20
-82.0899051
11
271.7929974
21
-92.4303864
0
ARC
8
0
10
268.000076
20
-82.4372014
40
2
50
9.9999996
51
100.0000013
0
LINE
8
0
10
256.3280759
20
-82.4644368
11
267.6527796
21
-80.4675859
0
LINE
8
0
10
254.8872197
20
-77.4395741
11
256.3280759
21
-82.4644368
0
ARC
8
0
10
252.9646963
20
-77.9908488
40
2
50
376.0000006
51
105.9999998
0
LINE
8
0
10
244.723328
20
-78.2734242
11
252.4134215
21
-76.0683254
0
LINE
8
0
10
244.723328
20
-78.2734242
11
243.3453154
21
-73.4677236
0
ARC
8
0
10
241.4226178
20
-74.0183904
40
2
50
16.0000003
51
106.0000008
0
LINE
8
0
10
240.8713431
20
-72.095867
11
230.6473457
21
-75.0275512
0
LINE
8
0
10
230.4714435
20
-74.5442639
11
230.6473457
21
-75.0275512
0
ARC
8
0
10
228.5920583
20
-75.2283042
40
2
50
380.0000016
51
110
0
LINE
8
0
10
220.390477
20
-76.0850801
11
227.908018
21
-73.3489189
0
LINE
8
0
10
220.390477
20
-76.0850801
11
218.6803763
21
-71.386617
0
ARC
8
0
10
216.8009911
20
-72.0706573
40
2
50
20
51
110.0000004
0
LINE
8
0
10
216.1169508
20
-70.1912721
11
195.4437132
21
-77.7157153
0
ARC
8
0
10
196.1277535
20
-79.5951005
40
2
50
110.0000002
51
200.0000008
0
LINE
8
0
10
194.2483683
20
-80.2791408
11
195.9584689
21
-84.9776038
0
LINE
8
0
10
188.4415223
20
-87.7135487
11
195.9584689
21
-84.9776038
0
ARC
8
0
10
189.1249682
20
-89.5931502
40
2
50
109.9999999
51
170.0000044
0
LINE
8
0
10
187.1553527
20
-89.245854
11
181.2654073
21
-91.3896188
0
ARC
8
0
10
181.9494475
20
-93.269004
40
2
50
110.0000002
51
200.000002
0
LINE
8
0
10
180.0702787
20
-93.9536385
11
180.7541026
21
-95.8324294
0
LINE
8
0
10
165.7190206
20
-101.3047518
11
180.7541026
21
-95.8324294
0
ARC
8
0
10
166.4030609
20
-103.184137
40
2
50
110.0000002
51
200.0000008
0
LINE
8
0
10
164.5236757
20
-103.8681773
11
172.732159
21
-126.4208002
0
LINE
8
0
10
172.7321591
20
-126.4208002
11
175.1263
21
-132.9986484
0
LINE
8
0
10
175.1263001
20
-132.9986485
11
182.9862419
21
-154.5936611
0
ARC
8
0
10
182.7008719
20
-156.5731974
40
2
50
81.7967544
51
135
0
LINE
8
0
10
181.2866583
20
-155.1589838
11
165.7303091
21
-170.715333
0
ARC
8
0
10
167.1445227
20
-172.1295466
40
2
50
135
51
225
0
LINE
8
0
10
165.7303091
20
-173.5437602
11
180.5795515
21
-188.3930026
0
ARC
8
0
10
181.9937651
20
-186.978789
40
2
50
225
51
315
0
LINE
8
0
10
183.4079787
20
-188.3930026
11
195.1046982
21
-176.696283
0
LINE
8
0
10
195.1046982
20
-176.696283
11
196.1750293
21
-178.2248743
0
ARC
8
0
10
197.8133334
20
-177.0777214
40
2
50
215.0000002
51
305
0
LINE
8
0
10
198.9604863
20
-178.7160255
11
215.1399337
21
-167.3870544
0
LINE
8
0
10
215.1399337
20
-167.3870544
11
234.085087
21
-160.4915825
0
ARC
8
0
10
233.4010468
20
-158.6121972
40
2
50
290.0000002
51
380.0000001
0
LINE
8
0
10
235.2802156
20
-157.9275626
11
228.098009
21
-138.1946119
0
ARC
8
0
10
226.2186238
20
-138.8786522
40
2
50
20
51
110.0000008
0
LINE
8
0
10
225.5345835
20
-136.999267
11
223.4034085
21
-137.7749512
0
ARC
8
0
10
221.433793
20
-137.4276549
40
2
50
350.0000015
51
380.0000008
0
LINE
8
0
10
223.3131782
20
-136.7436146
11
221.6030775
21
-132.0451515
0
LINE
8
0
10
225.8585412
20
-130.4962894
11
221.6030775
21
-132.0451515
0
LINE
8
0
10
232.1342049
20
-128.6967718
11
225.8585412
21
-130.4962894
0
LINE
8
0
10
232.1342049
20
-128.6967718
11
233.5122175
21
-133.5024724
0
ARC
8
0
10
235.4349151
20
-132.9518056
40
2
50
196.0000002
51
286
0
LINE
8
0
10
235.9861898
20
-134.874329
11
242.3974901
21
-133.0359182
0
LINE
8
0
10
242.8517249
20
-135.6120117
11
242.3974901
21
-133.0359182
0
ARC
8
0
10
244.8213404
20
-135.2647153
40
2
50
190.0000019
51
280.0000002
0
LINE
8
0
10
253.0470989
20
-135.8451453
11
245.1686367
21
-137.2343308
0
LINE
8
0
10
253.0470989
20
-135.8451453
11
253.9153398
21
-140.7691842
0
ARC
8
0
10
255.8849553
20
-140.4218878
40
2
50
190.0000006
51
280
0
LINE
8
0
10
185.8982091
20
-156.7466163
11
187.6718057
21
-156.1010799
0
LINE
8
0
10
187.6718057
20
-156.1010799
11
186.1339793
21
-157.1778776
0
LINE
8
0
10
186.1339793
20
-157.1778776
11
185.7501702
21
-156.7940685
0
ARC
8
0
10
185.2141688
20
-154.8672311
40
2
50
285.5453317
51
290.0000002
0
LINE
8
0
10
136.989977
20
-156.1010801
11
138.7635733
21
-156.7466163
0
ARC
8
0
10
139.4476136
20
-154.8672311
40
2
50
249.9999998
51
254.4546683
0
LINE
8
0
10
138.9116122
20
-156.7940685
11
138.5278032
21
-157.1778776
0
LINE
8
0
10
138.5278032
20
-157.1778776
11
136.989977
21
-156.1010801
0
ENDSEC
0
EOF