%TF.GenerationSoftware,KiCad,Pcbnew,9.0.0*%
%TF.CreationDate,2025-06-15T19:28:49-07:00*%
%TF.ProjectId,flexible-determinist,666c6578-6962-46c6-952d-64657465726d,v1.0.0*%
%TF.SameCoordinates,Original*%
%TF.FileFunction,Paste,Bot*%
%TF.FilePolarity,Positive*%
%FSLAX46Y46*%
G04 Gerber Fmt 4.6, Leading zero omitted, Abs format (unit mm)*
G04 Created by KiCad (PCBNEW 9.0.0) date 2025-06-15 19:28:49*
%MOMM*%
%LPD*%
G01*
G04 APERTURE LIST*
G04 Aperture macros list*
%AMRotRect*
0 Rectangle, with rotation*
0 The origin of the aperture is its center*
0 $1 length*
0 $2 width*
0 $3 Rotation angle, in degrees counterclockwise*
0 Add horizontal line*
21,1,$1,$2,0,0,$3*%
G04 Aperture macros list end*
%ADD10RotRect,2.600000X2.600000X18.000000*%
%ADD11RotRect,2.600000X2.600000X43.000000*%
%ADD12RotRect,0.900000X1.200000X338.000000*%
%ADD13RotRect,2.600000X2.600000X338.000000*%
%ADD14RotRect,0.900000X1.200000X18.000000*%
%ADD15RotRect,0.900000X1.200000X14.000000*%
%ADD16RotRect,2.600000X2.600000X8.000000*%
%ADD17RotRect,0.900000X1.200000X342.000000*%
%ADD18RotRect,2.600000X2.600000X323.000000*%
%ADD19RotRect,0.900000X1.200000X33.000000*%
%ADD20RotRect,0.900000X1.200000X313.000000*%
%ADD21RotRect,0.900000X1.200000X348.000000*%
%ADD22RotRect,2.600000X2.600000X348.000000*%
%ADD23RotRect,0.900000X1.200000X8.000000*%
%ADD24RotRect,2.600000X2.600000X14.000000*%
%ADD25RotRect,2.600000X2.600000X313.000000*%
%ADD26RotRect,2.600000X2.600000X342.000000*%
%ADD27RotRect,0.900000X1.200000X323.000000*%
%ADD28RotRect,2.600000X2.600000X33.000000*%
%ADD29RotRect,0.900000X1.200000X43.000000*%
G04 APERTURE END LIST*
D10*
%TO.C,S25*%
X219100675Y-115682801D03*
X230765215Y-114205978D03*
%TD*%
D11*
%TO.C,S36*%
X176398981Y-170932525D03*
X186346510Y-164664428D03*
%TD*%
D10*
%TO.C,S27*%
X208594103Y-83346876D03*
X220258643Y-81870053D03*
%TD*%
D12*
%TO.C,D9*%
X112954434Y-88617498D03*
X116014144Y-89853698D03*
%TD*%
D10*
%TO.C,S29*%
X199200510Y-112685590D03*
X210865050Y-111208767D03*
%TD*%
D13*
%TO.C,S8*%
X109181394Y-93618226D03*
X119066232Y-99984736D03*
%TD*%
D14*
%TO.C,D25*%
X224029888Y-125594715D03*
X227168372Y-124574965D03*
%TD*%
D15*
%TO.C,D24*%
X236778609Y-95514073D03*
X239980579Y-94715737D03*
%TD*%
D14*
%TO.C,D26*%
X218776598Y-109426749D03*
X221915082Y-108406999D03*
%TD*%
D13*
%TO.C,S16*%
X103806240Y-144294716D03*
X113691078Y-150661226D03*
%TD*%
D16*
%TO.C,S21*%
X258067677Y-93247822D03*
X269811454Y-93818962D03*
%TD*%
D14*
%TO.C,D34*%
X220603638Y-160354758D03*
X223742122Y-159335008D03*
%TD*%
D17*
%TO.C,D6*%
X89519677Y-89461524D03*
X92658165Y-90481280D03*
%TD*%
D12*
%TO.C,D16*%
X101210973Y-155056122D03*
X104270683Y-156292322D03*
%TD*%
D10*
%TO.C,S30*%
X193947216Y-96517634D03*
X205611756Y-95040811D03*
%TD*%
D18*
%TO.C,S17*%
X123902403Y-154620859D03*
X131802647Y-163328823D03*
%TD*%
D13*
%TO.C,S7*%
X102813071Y-109380348D03*
X112697909Y-115746858D03*
%TD*%
D19*
%TO.C,D35*%
X202969683Y-169183729D03*
X205737297Y-167386421D03*
%TD*%
D20*
%TO.C,D18*%
X136262627Y-173793848D03*
X138513221Y-176207314D03*
%TD*%
D21*
%TO.C,D2*%
X60950541Y-113050758D03*
X64178431Y-113736866D03*
%TD*%
D14*
%TO.C,D29*%
X204129709Y-122597509D03*
X207268193Y-121577759D03*
%TD*%
%TO.C,D31*%
X193500058Y-148132014D03*
X196638542Y-147112264D03*
%TD*%
D10*
%TO.C,S31*%
X188570849Y-138220092D03*
X200235389Y-136743269D03*
%TD*%
%TO.C,S34*%
X215674429Y-150442849D03*
X227338969Y-148966026D03*
%TD*%
D22*
%TO.C,S2*%
X61637680Y-102002185D03*
X72477880Y-106555492D03*
%TD*%
D10*
%TO.C,S28*%
X204453800Y-128853555D03*
X216118340Y-127376732D03*
%TD*%
D14*
%TO.C,D27*%
X213523313Y-93258794D03*
X216661797Y-92239044D03*
%TD*%
D13*
%TO.C,S11*%
X122873854Y-107778618D03*
X132758692Y-114145128D03*
%TD*%
D23*
%TO.C,D21*%
X261200801Y-103865105D03*
X264468689Y-103405835D03*
%TD*%
D12*
%TO.C,D12*%
X126646890Y-102777890D03*
X129706600Y-104014090D03*
%TD*%
D23*
%TO.C,D19*%
X265932689Y-137534213D03*
X269200577Y-137074943D03*
%TD*%
D17*
%TO.C,D4*%
X79013102Y-121797440D03*
X82151590Y-122817196D03*
%TD*%
D24*
%TO.C,S24*%
X232552840Y-85282460D03*
X244291982Y-84622914D03*
%TD*%
D22*
%TO.C,S1*%
X58103181Y-118630690D03*
X68943381Y-123183997D03*
%TD*%
D10*
%TO.C,S33*%
X178064273Y-105884167D03*
X189728813Y-104407344D03*
%TD*%
D22*
%TO.C,S3*%
X65172177Y-85373671D03*
X76012377Y-89926978D03*
%TD*%
D12*
%TO.C,D11*%
X120278580Y-118540018D03*
X123338290Y-119776218D03*
%TD*%
D14*
%TO.C,D33*%
X182993487Y-115796086D03*
X186131971Y-114776336D03*
%TD*%
%TO.C,D30*%
X198876426Y-106429548D03*
X202014910Y-105409798D03*
%TD*%
D23*
%TO.C,D20*%
X263566750Y-120699653D03*
X266834638Y-120240383D03*
%TD*%
D10*
%TO.C,S32*%
X183317563Y-122052137D03*
X194982103Y-120575314D03*
%TD*%
D13*
%TO.C,S15*%
X144433043Y-102468150D03*
X154317881Y-108834660D03*
%TD*%
D12*
%TO.C,D15*%
X141837776Y-113229537D03*
X144897486Y-114465737D03*
%TD*%
%TO.C,D14*%
X135469463Y-128991666D03*
X138529173Y-130227866D03*
%TD*%
D17*
%TO.C,D5*%
X84266385Y-105629486D03*
X87404873Y-106649242D03*
%TD*%
D13*
%TO.C,S10*%
X116505536Y-123540736D03*
X126390374Y-129907246D03*
%TD*%
%TO.C,S9*%
X115549701Y-77856096D03*
X125434539Y-84222606D03*
%TD*%
D25*
%TO.C,S18*%
X143162698Y-165137518D03*
X149430795Y-175085047D03*
%TD*%
D16*
%TO.C,S19*%
X262799559Y-126916936D03*
X274543336Y-127488076D03*
%TD*%
D26*
%TO.C,S5*%
X86104661Y-94713257D03*
X96409527Y-100374731D03*
%TD*%
D12*
%TO.C,D8*%
X106586117Y-104379618D03*
X109645827Y-105615818D03*
%TD*%
D13*
%TO.C,S12*%
X129242158Y-92016480D03*
X139126996Y-98382990D03*
%TD*%
D15*
%TO.C,D22*%
X245003951Y-128504130D03*
X248205921Y-127705794D03*
%TD*%
D13*
%TO.C,S13*%
X131696416Y-133992387D03*
X141581254Y-140358897D03*
%TD*%
D21*
%TO.C,D3*%
X64485028Y-96422246D03*
X67712918Y-97108354D03*
%TD*%
D27*
%TO.C,D17*%
X118610297Y-164343874D03*
X121245795Y-166329864D03*
%TD*%
D14*
%TO.C,D28*%
X209382997Y-138765469D03*
X212521481Y-137745719D03*
%TD*%
D13*
%TO.C,S14*%
X138064729Y-118230271D03*
X147949567Y-124596781D03*
%TD*%
D12*
%TO.C,D10*%
X113910267Y-134302143D03*
X116969977Y-135538343D03*
%TD*%
D14*
%TO.C,D32*%
X188246759Y-131964045D03*
X191385243Y-130944295D03*
%TD*%
D12*
%TO.C,D13*%
X129101147Y-144753795D03*
X132160857Y-145989995D03*
%TD*%
D15*
%TO.C,D23*%
X240891288Y-112009100D03*
X244093258Y-111210764D03*
%TD*%
D28*
%TO.C,S35*%
X195643038Y-160885322D03*
X206527890Y-156439816D03*
%TD*%
D24*
%TO.C,S23*%
X236665508Y-101777487D03*
X248404650Y-101117941D03*
%TD*%
D12*
%TO.C,D7*%
X100217815Y-120141749D03*
X103277525Y-121377949D03*
%TD*%
D10*
%TO.C,S26*%
X213847392Y-99514840D03*
X225511932Y-98038017D03*
%TD*%
D21*
%TO.C,D1*%
X57416029Y-129679263D03*
X60643919Y-130365371D03*
%TD*%
D26*
%TO.C,S4*%
X80851370Y-110881224D03*
X91156236Y-116542698D03*
%TD*%
D16*
%TO.C,S20*%
X260433617Y-110082380D03*
X272177394Y-110653520D03*
%TD*%
D26*
%TO.C,S6*%
X91357953Y-78545300D03*
X101662819Y-84206774D03*
%TD*%
D29*
%TO.C,D36*%
X185055319Y-177832594D03*
X187468785Y-175582000D03*
%TD*%
D24*
%TO.C,S22*%
X240778179Y-118272515D03*
X252517321Y-117612969D03*
%TD*%
M02*
