M48
; DRILL file {KiCad 9.0.0} date 2025-06-15T19:29:13-0700
; FORMAT={-:-/ absolute / metric / decimal}
; #@! TF.CreationDate,2025-06-15T19:29:13-07:00
; #@! TF.GenerationSoftware,Kicad,Pcbnew,9.0.0
; #@! TF.FileFunction,NonPlated,1,2,NPTH
FMAT,2
METRIC
; #@! TA.AperFunction,NonPlated,NPTH,ComponentDrill
T1C1.702
; #@! TA.AperFunction,NonPlated,NPTH,ComponentDrill
T2C2.540
; #@! TA.AperFunction,NonPlated,NPTH,ComponentDrill
T3C3.000
; #@! TA.AperFunction,NonPlated,NPTH,ComponentDrill
T4C3.429
%
G90
G05
T1
X54.69Y-123.988
X58.224Y-107.36
X61.759Y-90.731
X65.449Y-126.275
X68.984Y-109.647
X72.518Y-93.018
X76.897Y-115.852
X82.15Y-99.684
X87.358Y-119.252
X87.403Y-83.517
X92.612Y-103.084
X97.865Y-86.916
X98.521Y-114.064
X99.514Y-148.978
X104.889Y-98.301
X108.72Y-118.184
X109.713Y-153.099
X111.258Y-82.539
X112.214Y-128.224
X115.089Y-102.422
X118.545Y-158.034
X118.582Y-112.462
X121.457Y-86.66
X122.413Y-132.345
X124.95Y-96.7
X127.33Y-164.654
X127.405Y-138.676
X128.781Y-116.583
X133.773Y-122.914
X135.149Y-100.82
X137.294Y-167.568
X137.604Y-142.796
X140.141Y-107.151
X143.972Y-127.034
X144.796Y-175.613
X150.34Y-111.272
X177.787Y-112.231
X178.83Y-176.802
X183.04Y-128.398
X186.875Y-169.3
X188.248Y-108.831
X188.293Y-144.566
X193.502Y-124.999
X193.67Y-102.864
X197.018Y-167.087
X198.755Y-141.167
X198.923Y-119.032
X204.131Y-99.465
X204.176Y-135.2
X206.243Y-161.096
X208.317Y-89.693
X209.385Y-115.633
X213.57Y-105.861
X214.638Y-131.801
X215.397Y-156.789
X218.778Y-86.294
X218.823Y-122.029
X224.032Y-102.462
X225.859Y-153.39
X229.285Y-118.63
X231.833Y-91.594
X235.946Y-108.089
X240.059Y-124.584
X242.507Y-88.933
X246.619Y-105.428
X250.732Y-121.923
X256.692Y-99.45
X259.058Y-116.284
X261.424Y-133.119
X267.585Y-97.919
X269.951Y-114.753
X272.317Y-131.588
T2
X152.848Y-165.232
X154.443Y-119.54
X170.617Y-165.852
X172.213Y-120.16
T3
X61.307Y-119.312
X64.841Y-102.683
X65.74Y-122.503
X68.376Y-86.055
X69.274Y-105.875
X72.809Y-89.246
X83.966Y-111.893
X88.042Y-115.531
X89.219Y-95.725
X93.295Y-99.363
X94.473Y-79.557
X98.548Y-83.195
X105.85Y-110.607
X106.843Y-145.522
X109.661Y-114.52
X110.655Y-149.434
X112.218Y-94.845
X116.03Y-98.758
X118.586Y-79.083
X119.542Y-124.768
X122.398Y-82.996
X123.354Y-128.68
X125.91Y-109.005
X126.518Y-156.592
X129.187Y-161.358
X129.722Y-112.918
X132.279Y-93.243
X134.733Y-135.219
X136.09Y-97.156
X138.545Y-139.132
X141.101Y-119.457
X144.913Y-123.37
X145.396Y-167.533
X147.197Y-172.69
X147.47Y-103.695
X151.281Y-107.608
X178.794Y-168.699
X181.179Y-104.872
X183.951Y-166.898
X186.432Y-121.04
X186.614Y-105.419
X191.686Y-137.208
X191.867Y-121.587
X197.062Y-95.506
X197.121Y-137.755
X198.39Y-159.102
X202.315Y-111.674
X202.497Y-96.053
X203.781Y-158.224
X207.569Y-127.842
X207.75Y-112.221
X211.709Y-82.335
X213.004Y-128.389
X216.962Y-98.503
X217.144Y-82.882
X218.789Y-149.431
X222.215Y-114.671
X222.397Y-99.05
X224.224Y-149.978
X227.651Y-115.218
X235.731Y-84.49
X239.843Y-100.985
X241.114Y-85.415
X243.956Y-117.48
X245.227Y-101.91
X249.34Y-118.405
X261.311Y-92.792
X263.677Y-109.627
X266.043Y-126.461
X266.568Y-94.275
X268.934Y-111.109
X271.3Y-127.944
T4
X60.07Y-125.132
X63.604Y-108.503
X67.139Y-91.875
X82.127Y-117.552
X87.381Y-101.384
X92.634Y-85.216
X103.621Y-116.124
X104.614Y-151.038
X109.989Y-100.362
X116.357Y-84.6
X117.313Y-130.284
X122.937Y-161.344
X123.681Y-114.522
X130.05Y-98.76
X132.504Y-140.736
X138.872Y-124.974
X141.045Y-171.591
X145.241Y-109.212
X182.852Y-173.051
X183.018Y-110.531
X188.271Y-126.699
X193.524Y-142.867
X198.901Y-101.164
X201.63Y-164.092
X204.154Y-117.332
X209.407Y-133.5
X213.547Y-87.994
X218.801Y-104.162
X220.628Y-155.09
X224.054Y-120.33
X237.17Y-90.263
X241.283Y-106.758
X245.395Y-123.253
X262.139Y-98.684
X264.505Y-115.519
X266.871Y-132.353
M30
