%TF.GenerationSoftware,KiCad,Pcbnew,9.0.0*%
%TF.CreationDate,2025-06-15T19:28:49-07:00*%
%TF.ProjectId,flexible-determinist,666c6578-6962-46c6-952d-64657465726d,v1.0.0*%
%TF.SameCoordinates,Original*%
%TF.FileFunction,Soldermask,Top*%
%TF.FilePolarity,Negative*%
%FSLAX46Y46*%
G04 Gerber Fmt 4.6, Leading zero omitted, Abs format (unit mm)*
G04 Created by KiCad (PCBNEW 9.0.0) date 2025-06-15 19:28:49*
%MOMM*%
%LPD*%
G01*
G04 APERTURE LIST*
G04 Aperture macros list*
%AMRoundRect*
0 Rectangle with rounded corners*
0 $1 Rounding radius*
0 $2 $3 $4 $5 $6 $7 $8 $9 X,Y pos of 4 corners*
0 Add a 4 corners polygon primitive as box body*
4,1,4,$2,$3,$4,$5,$6,$7,$8,$9,$2,$3,0*
0 Add four circle primitives for the rounded corners*
1,1,$1+$1,$2,$3*
1,1,$1+$1,$4,$5*
1,1,$1+$1,$6,$7*
1,1,$1+$1,$8,$9*
0 Add four rect primitives between the rounded corners*
20,1,$1+$1,$2,$3,$4,$5,0*
20,1,$1+$1,$4,$5,$6,$7,0*
20,1,$1+$1,$6,$7,$8,$9,0*
20,1,$1+$1,$8,$9,$2,$3,0*%
G04 Aperture macros list end*
%ADD10C,1.801800*%
%ADD11C,3.529000*%
%ADD12C,3.100000*%
%ADD13RoundRect,0.050000X-1.157292X-0.491241X0.491241X-1.157292X1.157292X0.491241X-0.491241X1.157292X0*%
%ADD14RoundRect,0.050000X-0.641997X-0.387737X0.192469X-0.724883X0.641997X0.387737X-0.192469X0.724883X0*%
%ADD15C,2.005000*%
%ADD16C,0.800000*%
%ADD17C,4.500000*%
%ADD18RoundRect,0.050000X-0.570773X-1.120205X1.120205X-0.570773X0.570773X1.120205X-1.120205X0.570773X0*%
%ADD19RoundRect,0.050000X-0.242565X-0.709692X0.613386X-0.431576X0.242565X0.709692X-0.613386X0.431576X0*%
%ADD20RoundRect,0.050000X-0.647524X-1.077661X1.077661X-0.647524X0.647524X1.077661X-1.077661X0.647524X0*%
%ADD21RoundRect,0.050000X-0.291480X-0.691042X0.581786X-0.473313X0.291480X0.691042X-0.581786X0.473313X0*%
%ADD22RoundRect,0.050000X-1.120205X-0.570773X0.570773X-1.120205X1.120205X0.570773X-0.570773X1.120205X0*%
%ADD23RoundRect,0.050000X-0.613386X-0.431576X0.242565X-0.709692X0.613386X0.431576X-0.242565X0.709692X0*%
%ADD24RoundRect,0.050000X-0.261394X-1.229762X1.229762X-0.261394X0.261394X1.229762X-1.229762X0.261394X0*%
%ADD25RoundRect,0.050000X-0.050618X-0.748290X0.704185X-0.258115X0.050618X0.748290X-0.704185X0.258115X0*%
%ADD26RoundRect,0.050000X-1.256470X0.043877X-0.043877X-1.256470X1.256470X-0.043877X0.043877X1.256470X0*%
%ADD27RoundRect,0.050000X-0.745711X-0.080090X-0.131913X-0.738308X0.745711X0.080090X0.131913X0.738308X0*%
%ADD28RoundRect,0.050000X-1.054407X-0.684740X0.684740X-1.054407X1.054407X0.684740X-0.684740X1.054407X0*%
%ADD29RoundRect,0.050000X-0.564913X-0.493328X0.315419X-0.680449X0.564913X0.493328X-0.315419X0.680449X0*%
%ADD30RoundRect,0.050000X-0.756623X-1.004073X1.004073X-0.756623X0.756623X1.004073X-1.004073X0.756623X0*%
%ADD31RoundRect,0.050000X-0.362117X-0.656789X0.529124X-0.531533X0.362117X0.656789X-0.529124X0.531533X0*%
%ADD32C,3.910000*%
%ADD33C,1.852600*%
%ADD34RoundRect,0.050000X-1.245001X-0.174973X0.174973X-1.245001X1.245001X0.174973X-0.174973X1.245001X0*%
%ADD35RoundRect,0.050000X-0.720475X-0.208365X-0.001703X-0.749998X0.720475X0.208365X0.001703X0.749998X0*%
%ADD36RoundRect,0.050000X-0.043877X-1.256470X1.256470X-0.043877X0.043877X1.256470X-1.256470X0.043877X0*%
%ADD37RoundRect,0.050000X0.080090X-0.745711X0.738308X-0.131913X-0.080090X0.745711X-0.738308X0.131913X0*%
G04 APERTURE END LIST*
D10*
%TO.C,S25*%
X218823224Y-122029143D03*
D11*
X224054036Y-120329556D03*
D12*
X222215389Y-114670765D03*
X227650504Y-115218005D03*
D10*
X229284848Y-118629969D03*
%TD*%
%TO.C,S36*%
X178829601Y-176801530D03*
D12*
X178794163Y-168698984D03*
D11*
X182852053Y-173050538D03*
D12*
X183951327Y-166897971D03*
D10*
X186874505Y-169299546D03*
%TD*%
%TO.C,S27*%
X208316652Y-89693218D03*
D11*
X213547464Y-87993631D03*
D12*
X211708817Y-82334840D03*
X217143932Y-82882080D03*
D10*
X218778276Y-86294044D03*
%TD*%
D13*
%TO.C,D9*%
X110951719Y-87808347D03*
D14*
X112954434Y-88617498D03*
X116014144Y-89853698D03*
D15*
X118016859Y-90662849D03*
%TD*%
D10*
%TO.C,S29*%
X198923059Y-119031932D03*
D11*
X204153871Y-117332345D03*
D12*
X202315224Y-111673554D03*
X207750339Y-112220794D03*
D10*
X209384683Y-115632758D03*
%TD*%
D16*
%TO.C,_6*%
X248220254Y-90541990D03*
X248536449Y-89319362D03*
X248861205Y-91630104D03*
X250083833Y-91946299D03*
D17*
X249854198Y-90312355D03*
D16*
X249624563Y-88678411D03*
X250847191Y-88994606D03*
X251171947Y-91305348D03*
X251488142Y-90082720D03*
%TD*%
D10*
%TO.C,S8*%
X104889498Y-98301470D03*
D12*
X112217916Y-94845061D03*
D11*
X109989011Y-100361806D03*
D12*
X116029704Y-98757898D03*
D10*
X115088524Y-102422142D03*
%TD*%
D18*
%TO.C,D25*%
X221975605Y-126262195D03*
D19*
X224029888Y-125594715D03*
X227168372Y-124574965D03*
D15*
X229222655Y-123907485D03*
%TD*%
D20*
%TO.C,D24*%
X234682772Y-96036629D03*
D21*
X236778609Y-95514073D03*
X239980579Y-94715737D03*
D15*
X242076416Y-94193181D03*
%TD*%
D18*
%TO.C,D26*%
X216722315Y-110094229D03*
D19*
X218776598Y-109426749D03*
X221915082Y-108406999D03*
D15*
X223969365Y-107739519D03*
%TD*%
D10*
%TO.C,S16*%
X99514344Y-148977960D03*
D12*
X106842762Y-145521551D03*
D11*
X104613857Y-151038296D03*
D12*
X110654550Y-149434388D03*
D10*
X109713370Y-153098632D03*
%TD*%
%TO.C,S21*%
X256692410Y-99449577D03*
D12*
X261310805Y-92792030D03*
D11*
X262138885Y-98684125D03*
D12*
X266568326Y-94274748D03*
D10*
X267585360Y-97918673D03*
%TD*%
D18*
%TO.C,D34*%
X218549355Y-161022238D03*
D19*
X220603638Y-160354758D03*
X223742122Y-159335008D03*
D15*
X225796405Y-158667528D03*
%TD*%
D22*
%TO.C,D6*%
X87465399Y-88794048D03*
D23*
X89519677Y-89461524D03*
X92658165Y-90481280D03*
D15*
X94712443Y-91148756D03*
%TD*%
D13*
%TO.C,D16*%
X99208258Y-154246971D03*
D14*
X101210973Y-155056122D03*
X104270683Y-156292322D03*
D15*
X106273398Y-157101473D03*
%TD*%
D16*
%TO.C,_2*%
X78363331Y-84037057D03*
X78593469Y-85278765D03*
X79078622Y-82996304D03*
X80320330Y-82766166D03*
D17*
X79977276Y-84380111D03*
D16*
X79634222Y-85994056D03*
X80875930Y-85763918D03*
X81361083Y-83481457D03*
X81591221Y-84723165D03*
%TD*%
D10*
%TO.C,S30*%
X193669765Y-102863976D03*
D11*
X198900577Y-101164389D03*
D12*
X197061930Y-95505598D03*
X202497045Y-96052838D03*
D10*
X204131389Y-99464802D03*
%TD*%
%TO.C,S17*%
X118544640Y-158033706D03*
D11*
X122937132Y-161343687D03*
D12*
X126517933Y-156591806D03*
X129187116Y-161357879D03*
D10*
X127329624Y-164653668D03*
%TD*%
%TO.C,S7*%
X98521175Y-114063592D03*
D12*
X105849593Y-110607183D03*
D11*
X103620688Y-116123928D03*
D12*
X109661381Y-114520020D03*
D10*
X108720201Y-118184264D03*
%TD*%
D24*
%TO.C,D35*%
X201158154Y-170360147D03*
D25*
X202969683Y-169183729D03*
X205737297Y-167386421D03*
D15*
X207548826Y-166210003D03*
%TD*%
D26*
%TO.C,D18*%
X134789510Y-172214123D03*
D27*
X136262627Y-173793848D03*
X138513221Y-176207314D03*
D15*
X139986338Y-177787039D03*
%TD*%
D28*
%TO.C,D2*%
X58837741Y-112601668D03*
D29*
X60950541Y-113050758D03*
X64178431Y-113736866D03*
D15*
X66291231Y-114185956D03*
%TD*%
D18*
%TO.C,D29*%
X202075426Y-123264989D03*
D19*
X204129709Y-122597509D03*
X207268193Y-121577759D03*
D15*
X209322476Y-120910279D03*
%TD*%
D18*
%TO.C,D31*%
X191445775Y-148799494D03*
D19*
X193500058Y-148132014D03*
X196638542Y-147112264D03*
D15*
X198692825Y-146444784D03*
%TD*%
D10*
%TO.C,S31*%
X188293398Y-144566434D03*
D11*
X193524210Y-142866847D03*
D12*
X191685563Y-137208056D03*
X197120678Y-137755296D03*
D10*
X198755022Y-141167260D03*
%TD*%
%TO.C,S34*%
X215396978Y-156789191D03*
D11*
X220627790Y-155089604D03*
D12*
X218789143Y-149430813D03*
X224224258Y-149978053D03*
D10*
X225858602Y-153390017D03*
%TD*%
%TO.C,S2*%
X58224228Y-107359562D03*
D12*
X64841115Y-102683098D03*
D11*
X63604040Y-108503076D03*
D12*
X69274442Y-105874579D03*
D10*
X68983852Y-109646590D03*
%TD*%
D16*
%TO.C,_4*%
X126290186Y-175709731D03*
X127473067Y-175267469D03*
X125766488Y-176858880D03*
X128622216Y-175791167D03*
D17*
X127415483Y-176916464D03*
D16*
X126208750Y-178041761D03*
X129064478Y-176974048D03*
X127357899Y-178565459D03*
X128540780Y-178123197D03*
%TD*%
D10*
%TO.C,S28*%
X204176349Y-135199897D03*
D11*
X209407161Y-133500310D03*
D12*
X207568514Y-127841519D03*
X213003629Y-128388759D03*
D10*
X214637973Y-131800723D03*
%TD*%
D18*
%TO.C,D27*%
X211469030Y-93926274D03*
D19*
X213523313Y-93258794D03*
X216661797Y-92239044D03*
D15*
X218716080Y-91571564D03*
%TD*%
D10*
%TO.C,S11*%
X118581958Y-112461862D03*
D12*
X125910376Y-109005453D03*
D11*
X123681471Y-114522198D03*
D12*
X129722164Y-112918290D03*
D10*
X128780984Y-116582534D03*
%TD*%
D30*
%TO.C,D21*%
X259061821Y-104165720D03*
D31*
X261200801Y-103865105D03*
X264468689Y-103405835D03*
D15*
X266607669Y-103105220D03*
%TD*%
D13*
%TO.C,D12*%
X124644175Y-101968739D03*
D14*
X126646890Y-102777890D03*
X129706600Y-104014090D03*
D15*
X131709315Y-104823241D03*
%TD*%
D30*
%TO.C,D19*%
X263793709Y-137834828D03*
D31*
X265932689Y-137534213D03*
X269200577Y-137074943D03*
D15*
X271339557Y-136774328D03*
%TD*%
D16*
%TO.C,_5*%
X162658148Y-104716843D03*
X163181846Y-103567694D03*
X163100410Y-105899724D03*
X164364727Y-103125432D03*
D17*
X164307143Y-104774427D03*
D16*
X164249559Y-106423422D03*
X165513876Y-103649130D03*
X165432440Y-105981160D03*
X165956138Y-104832011D03*
%TD*%
D22*
%TO.C,D4*%
X76958824Y-121129964D03*
D23*
X79013102Y-121797440D03*
X82151590Y-122817196D03*
D15*
X84205868Y-123484672D03*
%TD*%
D16*
%TO.C,_8*%
X194869815Y-180439456D03*
X194427553Y-179256575D03*
X196018964Y-180963154D03*
X194951251Y-178107426D03*
D17*
X196076548Y-179314159D03*
D16*
X197201845Y-180520892D03*
X196134132Y-177665164D03*
X197725543Y-179371743D03*
X197283281Y-178188862D03*
%TD*%
D10*
%TO.C,S24*%
X231833367Y-91593992D03*
D11*
X237169993Y-90263426D03*
D12*
X235730564Y-84490167D03*
X241114264Y-85415204D03*
D10*
X242506619Y-88932860D03*
%TD*%
%TO.C,S1*%
X54689729Y-123988067D03*
D12*
X61306616Y-119311603D03*
D11*
X60069541Y-125131581D03*
D12*
X65739943Y-122503084D03*
D10*
X65449353Y-126275095D03*
%TD*%
D16*
%TO.C,_7*%
X226687433Y-133773800D03*
X226786514Y-132514841D03*
X227507591Y-134734086D03*
X228766550Y-134833167D03*
D17*
X228256675Y-133263925D03*
D16*
X227746800Y-131694683D03*
X229005759Y-131793764D03*
X229726836Y-134013009D03*
X229825917Y-132754050D03*
%TD*%
D10*
%TO.C,S33*%
X177786822Y-112230509D03*
D11*
X183017634Y-110530922D03*
D12*
X181178987Y-104872131D03*
X186614102Y-105419371D03*
D10*
X188248446Y-108831335D03*
%TD*%
%TO.C,S3*%
X61758725Y-90731048D03*
D12*
X68375612Y-86054584D03*
D11*
X67138537Y-91874562D03*
D12*
X72808939Y-89246065D03*
D10*
X72518349Y-93018076D03*
%TD*%
D32*
%TO.C,_1*%
X152847892Y-165231875D03*
X170617061Y-165852388D03*
X154443497Y-119539726D03*
X172212666Y-120160239D03*
D33*
X152066212Y-151226063D03*
X152154857Y-148687610D03*
X152243501Y-146149157D03*
X152332142Y-143610705D03*
X152420787Y-141072251D03*
X152509435Y-138533799D03*
X152598081Y-135995346D03*
X152686725Y-133456894D03*
X152775369Y-130918440D03*
X152864013Y-128379988D03*
X152952667Y-125841536D03*
X153041304Y-123303083D03*
X172019254Y-162089031D03*
X172107891Y-159550578D03*
X172196545Y-157012126D03*
X172285189Y-154473674D03*
X172373833Y-151935220D03*
X172462477Y-149396768D03*
X172551123Y-146858315D03*
X172639771Y-144319863D03*
X172728416Y-141781409D03*
X172817057Y-139242957D03*
X172905701Y-136704504D03*
X172994346Y-134166051D03*
X173082991Y-131627599D03*
X173171637Y-129089146D03*
X173260272Y-126550693D03*
X173348925Y-124012241D03*
%TD*%
D13*
%TO.C,D11*%
X118275865Y-117730867D03*
D14*
X120278580Y-118540018D03*
X123338290Y-119776218D03*
D15*
X125341005Y-120585369D03*
%TD*%
D18*
%TO.C,D33*%
X180939204Y-116463566D03*
D19*
X182993487Y-115796086D03*
X186131971Y-114776336D03*
D15*
X188186254Y-114108856D03*
%TD*%
D18*
%TO.C,D30*%
X196822143Y-107097028D03*
D19*
X198876426Y-106429548D03*
X202014910Y-105409798D03*
D15*
X204069193Y-104742318D03*
%TD*%
D30*
%TO.C,D20*%
X261427770Y-121000268D03*
D31*
X263566750Y-120699653D03*
X266834638Y-120240383D03*
D15*
X268973618Y-119939768D03*
%TD*%
D10*
%TO.C,S32*%
X183040112Y-128398479D03*
D11*
X188270924Y-126698892D03*
D12*
X186432277Y-121040101D03*
X191867392Y-121587341D03*
D10*
X193501736Y-124999305D03*
%TD*%
%TO.C,S15*%
X140141147Y-107151394D03*
D12*
X147469565Y-103694985D03*
D11*
X145240660Y-109211730D03*
D12*
X151281353Y-107607822D03*
D10*
X150340173Y-111272066D03*
%TD*%
D13*
%TO.C,D15*%
X139835061Y-112420386D03*
D14*
X141837776Y-113229537D03*
X144897486Y-114465737D03*
D15*
X146900201Y-115274888D03*
%TD*%
D13*
%TO.C,D14*%
X133466748Y-128182515D03*
D14*
X135469463Y-128991666D03*
X138529173Y-130227866D03*
D15*
X140531888Y-131037017D03*
%TD*%
D22*
%TO.C,D5*%
X82212107Y-104962010D03*
D23*
X84266385Y-105629486D03*
X87404873Y-106649242D03*
D15*
X89459151Y-107316718D03*
%TD*%
D10*
%TO.C,S10*%
X112213640Y-128223980D03*
D12*
X119542058Y-124767571D03*
D11*
X117313153Y-130284316D03*
D12*
X123353846Y-128680408D03*
D10*
X122412666Y-132344652D03*
%TD*%
%TO.C,S9*%
X111257805Y-82539340D03*
D12*
X118586223Y-79082931D03*
D11*
X116357318Y-84599676D03*
D12*
X122398011Y-82995768D03*
D10*
X121456831Y-86660012D03*
%TD*%
%TO.C,S18*%
X137293693Y-167568138D03*
D12*
X145396239Y-167532700D03*
D11*
X141044685Y-171590590D03*
D12*
X147197252Y-172689864D03*
D10*
X144795677Y-175613042D03*
%TD*%
%TO.C,S19*%
X261424292Y-133118691D03*
D12*
X266042687Y-126461144D03*
D11*
X266870767Y-132353239D03*
D12*
X271300208Y-127943862D03*
D10*
X272317242Y-131587787D03*
%TD*%
%TO.C,S5*%
X82149908Y-99684490D03*
D12*
X89219366Y-95725291D03*
D11*
X87380720Y-101384077D03*
D12*
X93294817Y-99362696D03*
D10*
X92611532Y-103083664D03*
%TD*%
D13*
%TO.C,D8*%
X104583402Y-103570467D03*
D14*
X106586117Y-104379618D03*
X109645827Y-105615818D03*
D15*
X111648542Y-106424969D03*
%TD*%
D10*
%TO.C,S12*%
X124950262Y-96699724D03*
D12*
X132278680Y-93243315D03*
D11*
X130049775Y-98760060D03*
D12*
X136090468Y-97156152D03*
D10*
X135149288Y-100820396D03*
%TD*%
D20*
%TO.C,D22*%
X242908114Y-129026686D03*
D21*
X245003951Y-128504130D03*
X248205921Y-127705794D03*
D15*
X250301758Y-127183238D03*
%TD*%
D10*
%TO.C,S13*%
X127404520Y-138675631D03*
D12*
X134732938Y-135219222D03*
D11*
X132504033Y-140735967D03*
D12*
X138544726Y-139132059D03*
D10*
X137603546Y-142796303D03*
%TD*%
D28*
%TO.C,D3*%
X62372228Y-95973156D03*
D29*
X64485028Y-96422246D03*
X67712918Y-97108354D03*
D15*
X69825718Y-97557444D03*
%TD*%
D34*
%TO.C,D17*%
X116885245Y-163043947D03*
D35*
X118610297Y-164343874D03*
X121245795Y-166329864D03*
D15*
X122970847Y-167629791D03*
%TD*%
D18*
%TO.C,D28*%
X207328714Y-139432949D03*
D19*
X209382997Y-138765469D03*
X212521481Y-137745719D03*
D15*
X214575764Y-137078239D03*
%TD*%
D10*
%TO.C,S14*%
X133772833Y-122913515D03*
D12*
X141101251Y-119457106D03*
D11*
X138872346Y-124973851D03*
D12*
X144913039Y-123369943D03*
D10*
X143971859Y-127034187D03*
%TD*%
D13*
%TO.C,D10*%
X111907552Y-133492992D03*
D14*
X113910267Y-134302143D03*
X116969977Y-135538343D03*
D15*
X118972692Y-136347494D03*
%TD*%
D18*
%TO.C,D32*%
X186192476Y-132631525D03*
D19*
X188246759Y-131964045D03*
X191385243Y-130944295D03*
D15*
X193439526Y-130276815D03*
%TD*%
D13*
%TO.C,D13*%
X127098432Y-143944644D03*
D14*
X129101147Y-144753795D03*
X132160857Y-145989995D03*
D15*
X134163572Y-146799146D03*
%TD*%
D20*
%TO.C,D23*%
X238795451Y-112531656D03*
D21*
X240891288Y-112009100D03*
X244093258Y-111210764D03*
D15*
X246189095Y-110688208D03*
%TD*%
D16*
%TO.C,_3*%
X96996191Y-128115524D03*
X97881340Y-127214791D03*
X97007213Y-129378330D03*
X99144146Y-127203769D03*
D17*
X98526046Y-128733624D03*
D16*
X97907946Y-130263479D03*
X100044879Y-128088918D03*
X99170752Y-130252457D03*
X100055901Y-129351724D03*
%TD*%
D10*
%TO.C,S35*%
X197017593Y-167087228D03*
D12*
X198389683Y-159101629D03*
D11*
X201630287Y-164091718D03*
D12*
X203781244Y-158223509D03*
D10*
X206242981Y-161096208D03*
%TD*%
%TO.C,S23*%
X235946035Y-108089019D03*
D11*
X241282661Y-106758453D03*
D12*
X239843232Y-100985194D03*
X245226932Y-101910231D03*
D10*
X246619287Y-105427887D03*
%TD*%
D13*
%TO.C,D7*%
X98215100Y-119332598D03*
D14*
X100217815Y-120141749D03*
X103277525Y-121377949D03*
D15*
X105280240Y-122187100D03*
%TD*%
D10*
%TO.C,S26*%
X213569941Y-105861182D03*
D11*
X218800753Y-104161595D03*
D12*
X216962106Y-98502804D03*
X222397221Y-99050044D03*
D10*
X224031565Y-102462008D03*
%TD*%
D28*
%TO.C,D1*%
X55303229Y-129230173D03*
D29*
X57416029Y-129679263D03*
X60643919Y-130365371D03*
D15*
X62756719Y-130814461D03*
%TD*%
D10*
%TO.C,S4*%
X76896617Y-115852457D03*
D12*
X83966075Y-111893258D03*
D11*
X82127429Y-117552044D03*
D12*
X88041526Y-115530663D03*
D10*
X87358241Y-119251631D03*
%TD*%
%TO.C,S20*%
X259058350Y-116284135D03*
D12*
X263676745Y-109626588D03*
D11*
X264504825Y-115518683D03*
D12*
X268934266Y-111109306D03*
D10*
X269951300Y-114753231D03*
%TD*%
%TO.C,S6*%
X87403200Y-83516533D03*
D12*
X94472658Y-79557334D03*
D11*
X92634012Y-85216120D03*
D12*
X98548109Y-83194739D03*
D10*
X97864824Y-86915707D03*
%TD*%
D36*
%TO.C,D36*%
X183475594Y-179305711D03*
D37*
X185055319Y-177832594D03*
X187468785Y-175582000D03*
D15*
X189048510Y-174108883D03*
%TD*%
D10*
%TO.C,S22*%
X240058706Y-124584047D03*
D11*
X245395332Y-123253481D03*
D12*
X243955903Y-117480222D03*
X249339603Y-118405259D03*
D10*
X250731958Y-121922915D03*
%TD*%
M02*
