%TF.GenerationSoftware,KiCad,Pcbnew,9.0.0*%
%TF.CreationDate,2025-06-15T19:28:49-07:00*%
%TF.ProjectId,flexible-determinist,666c6578-6962-46c6-952d-64657465726d,v1.0.0*%
%TF.SameCoordinates,Original*%
%TF.FileFunction,Copper,L1,Top*%
%TF.FilePolarity,Positive*%
%FSLAX46Y46*%
G04 Gerber Fmt 4.6, Leading zero omitted, Abs format (unit mm)*
G04 Created by KiCad (PCBNEW 9.0.0) date 2025-06-15 19:28:49*
%MOMM*%
%LPD*%
G01*
G04 APERTURE LIST*
G04 Aperture macros list*
%AMRotRect*
0 Rectangle, with rotation*
0 The origin of the aperture is its center*
0 $1 length*
0 $2 width*
0 $3 Rotation angle, in degrees counterclockwise*
0 Add horizontal line*
21,1,$1,$2,0,0,$3*%
G04 Aperture macros list end*
%TA.AperFunction,ComponentPad*%
%ADD10RotRect,1.778000X1.778000X338.000000*%
%TD*%
%TA.AperFunction,SMDPad,CuDef*%
%ADD11RotRect,0.900000X1.200000X338.000000*%
%TD*%
%TA.AperFunction,ComponentPad*%
%ADD12C,1.905000*%
%TD*%
%TA.AperFunction,ComponentPad*%
%ADD13C,0.700000*%
%TD*%
%TA.AperFunction,ComponentPad*%
%ADD14C,4.400000*%
%TD*%
%TA.AperFunction,ComponentPad*%
%ADD15RotRect,1.778000X1.778000X18.000000*%
%TD*%
%TA.AperFunction,SMDPad,CuDef*%
%ADD16RotRect,0.900000X1.200000X18.000000*%
%TD*%
%TA.AperFunction,ComponentPad*%
%ADD17RotRect,1.778000X1.778000X14.000000*%
%TD*%
%TA.AperFunction,SMDPad,CuDef*%
%ADD18RotRect,0.900000X1.200000X14.000000*%
%TD*%
%TA.AperFunction,ComponentPad*%
%ADD19RotRect,1.778000X1.778000X342.000000*%
%TD*%
%TA.AperFunction,SMDPad,CuDef*%
%ADD20RotRect,0.900000X1.200000X342.000000*%
%TD*%
%TA.AperFunction,ComponentPad*%
%ADD21RotRect,1.778000X1.778000X33.000000*%
%TD*%
%TA.AperFunction,SMDPad,CuDef*%
%ADD22RotRect,0.900000X1.200000X33.000000*%
%TD*%
%TA.AperFunction,ComponentPad*%
%ADD23RotRect,1.778000X1.778000X313.000000*%
%TD*%
%TA.AperFunction,SMDPad,CuDef*%
%ADD24RotRect,0.900000X1.200000X313.000000*%
%TD*%
%TA.AperFunction,ComponentPad*%
%ADD25RotRect,1.778000X1.778000X348.000000*%
%TD*%
%TA.AperFunction,SMDPad,CuDef*%
%ADD26RotRect,0.900000X1.200000X348.000000*%
%TD*%
%TA.AperFunction,ComponentPad*%
%ADD27RotRect,1.778000X1.778000X8.000000*%
%TD*%
%TA.AperFunction,SMDPad,CuDef*%
%ADD28RotRect,0.900000X1.200000X8.000000*%
%TD*%
%TA.AperFunction,WasherPad*%
%ADD29C,3.810000*%
%TD*%
%TA.AperFunction,ComponentPad*%
%ADD30C,1.752600*%
%TD*%
%TA.AperFunction,ComponentPad*%
%ADD31RotRect,1.778000X1.778000X323.000000*%
%TD*%
%TA.AperFunction,SMDPad,CuDef*%
%ADD32RotRect,0.900000X1.200000X323.000000*%
%TD*%
%TA.AperFunction,ComponentPad*%
%ADD33RotRect,1.778000X1.778000X43.000000*%
%TD*%
%TA.AperFunction,SMDPad,CuDef*%
%ADD34RotRect,0.900000X1.200000X43.000000*%
%TD*%
%TA.AperFunction,ViaPad*%
%ADD35C,0.800000*%
%TD*%
%TA.AperFunction,Conductor*%
%ADD36C,0.250000*%
%TD*%
G04 APERTURE END LIST*
D10*
%TO.P,D9,1*%
%TO.N,D5*%
X110951719Y-87808347D03*
D11*
X112954434Y-88617498D03*
%TO.P,D9,2*%
%TO.N,middle_top*%
X116014144Y-89853698D03*
D12*
X118016859Y-90662849D03*
%TD*%
D13*
%TO.P,_6,1*%
%TO.N,N/C*%
X248220254Y-90541990D03*
X248536449Y-89319362D03*
X248861205Y-91630104D03*
X250083833Y-91946299D03*
D14*
X249854198Y-90312355D03*
D13*
X249624563Y-88678411D03*
X250847191Y-88994606D03*
X251171947Y-91305348D03*
X251488142Y-90082720D03*
%TD*%
D15*
%TO.P,D25,1*%
%TO.N,A1*%
X221975605Y-126262195D03*
D16*
X224029888Y-125594715D03*
%TO.P,D25,2*%
%TO.N,mirror_middle_bottom*%
X227168372Y-124574965D03*
D12*
X229222655Y-123907485D03*
%TD*%
D17*
%TO.P,D24,1*%
%TO.N,D25*%
X234682772Y-96036629D03*
D18*
X236778609Y-95514073D03*
%TO.P,D24,2*%
%TO.N,mirror_ring_top*%
X239980579Y-94715737D03*
D12*
X242076416Y-94193181D03*
%TD*%
D15*
%TO.P,D26,1*%
%TO.N,D24*%
X216722315Y-110094229D03*
D16*
X218776598Y-109426749D03*
%TO.P,D26,2*%
%TO.N,mirror_middle_middle*%
X221915082Y-108406999D03*
D12*
X223969365Y-107739519D03*
%TD*%
D15*
%TO.P,D34,1*%
%TO.N,A0*%
X218549355Y-161022238D03*
D16*
X220603638Y-160354758D03*
%TO.P,D34,2*%
%TO.N,mirror_outer_cluster*%
X223742122Y-159335008D03*
D12*
X225796405Y-158667528D03*
%TD*%
D19*
%TO.P,D6,1*%
%TO.N,D5*%
X87465399Y-88794048D03*
D20*
X89519677Y-89461524D03*
%TO.P,D6,2*%
%TO.N,ring_top*%
X92658165Y-90481280D03*
D12*
X94712443Y-91148756D03*
%TD*%
D10*
%TO.P,D16,1*%
%TO.N,D13*%
X99208258Y-154246971D03*
D11*
X101210973Y-155056122D03*
%TO.P,D16,2*%
%TO.N,outer_cluster*%
X104270683Y-156292322D03*
D12*
X106273398Y-157101473D03*
%TD*%
D13*
%TO.P,_2,1*%
%TO.N,N/C*%
X78363331Y-84037057D03*
X78593469Y-85278765D03*
X79078622Y-82996304D03*
X80320330Y-82766166D03*
D14*
X79977276Y-84380111D03*
D13*
X79634222Y-85994056D03*
X80875930Y-85763918D03*
X81361083Y-83481457D03*
X81591221Y-84723165D03*
%TD*%
D21*
%TO.P,D35,1*%
%TO.N,A0*%
X201158154Y-170360147D03*
D22*
X202969683Y-169183729D03*
%TO.P,D35,2*%
%TO.N,mirror_mod_cluster*%
X205737297Y-167386421D03*
D12*
X207548826Y-166210003D03*
%TD*%
D23*
%TO.P,D18,1*%
%TO.N,D13*%
X134789510Y-172214123D03*
D24*
X136262627Y-173793848D03*
%TO.P,D18,2*%
%TO.N,space_cluster*%
X138513221Y-176207314D03*
D12*
X139986338Y-177787039D03*
%TD*%
D25*
%TO.P,D2,1*%
%TO.N,D6*%
X58837741Y-112601668D03*
D26*
X60950541Y-113050758D03*
%TO.P,D2,2*%
%TO.N,pinkie_middle*%
X64178431Y-113736866D03*
D12*
X66291231Y-114185956D03*
%TD*%
D15*
%TO.P,D29,1*%
%TO.N,D24*%
X202075426Y-123264989D03*
D16*
X204129709Y-122597509D03*
%TO.P,D29,2*%
%TO.N,mirror_index_middle*%
X207268193Y-121577759D03*
D12*
X209322476Y-120910279D03*
%TD*%
D15*
%TO.P,D31,1*%
%TO.N,A1*%
X191445775Y-148799494D03*
D16*
X193500058Y-148132014D03*
%TO.P,D31,2*%
%TO.N,mirror_inner_bottom*%
X196638542Y-147112264D03*
D12*
X198692825Y-146444784D03*
%TD*%
D13*
%TO.P,_4,1*%
%TO.N,N/C*%
X126290186Y-175709731D03*
X127473067Y-175267469D03*
X125766488Y-176858880D03*
X128622216Y-175791167D03*
D14*
X127415483Y-176916464D03*
D13*
X126208750Y-178041761D03*
X129064478Y-176974048D03*
X127357899Y-178565459D03*
X128540780Y-178123197D03*
%TD*%
D15*
%TO.P,D27,1*%
%TO.N,D25*%
X211469030Y-93926274D03*
D16*
X213523313Y-93258794D03*
%TO.P,D27,2*%
%TO.N,mirror_middle_top*%
X216661797Y-92239044D03*
D12*
X218716080Y-91571564D03*
%TD*%
D27*
%TO.P,D21,1*%
%TO.N,D25*%
X259061821Y-104165720D03*
D28*
X261200801Y-103865105D03*
%TO.P,D21,2*%
%TO.N,mirror_pinkie_top*%
X264468689Y-103405835D03*
D12*
X266607669Y-103105220D03*
%TD*%
D10*
%TO.P,D12,1*%
%TO.N,D5*%
X124644175Y-101968739D03*
D11*
X126646890Y-102777890D03*
%TO.P,D12,2*%
%TO.N,index_top*%
X129706600Y-104014090D03*
D12*
X131709315Y-104823241D03*
%TD*%
D27*
%TO.P,D19,1*%
%TO.N,A1*%
X263793709Y-137834828D03*
D28*
X265932689Y-137534213D03*
%TO.P,D19,2*%
%TO.N,mirror_pinkie_bottom*%
X269200577Y-137074943D03*
D12*
X271339557Y-136774328D03*
%TD*%
D13*
%TO.P,_5,1*%
%TO.N,N/C*%
X162658148Y-104716843D03*
X163181846Y-103567694D03*
X163100410Y-105899724D03*
X164364727Y-103125432D03*
D14*
X164307143Y-104774427D03*
D13*
X164249559Y-106423422D03*
X165513876Y-103649130D03*
X165432440Y-105981160D03*
X165956138Y-104832011D03*
%TD*%
D19*
%TO.P,D4,1*%
%TO.N,D10*%
X76958824Y-121129964D03*
D20*
X79013102Y-121797440D03*
%TO.P,D4,2*%
%TO.N,ring_bottom*%
X82151590Y-122817196D03*
D12*
X84205868Y-123484672D03*
%TD*%
D13*
%TO.P,_8,1*%
%TO.N,N/C*%
X194869815Y-180439456D03*
X194427553Y-179256575D03*
X196018964Y-180963154D03*
X194951251Y-178107426D03*
D14*
X196076548Y-179314159D03*
D13*
X197201845Y-180520892D03*
X196134132Y-177665164D03*
X197725543Y-179371743D03*
X197283281Y-178188862D03*
%TD*%
%TO.P,_7,1*%
%TO.N,N/C*%
X226687433Y-133773800D03*
X226786514Y-132514841D03*
X227507591Y-134734086D03*
X228766550Y-134833167D03*
D14*
X228256675Y-133263925D03*
D13*
X227746800Y-131694683D03*
X229005759Y-131793764D03*
X229726836Y-134013009D03*
X229825917Y-132754050D03*
%TD*%
D29*
%TO.P,_1,*%
%TO.N,*%
X152847892Y-165231875D03*
X170617061Y-165852388D03*
X154443497Y-119539726D03*
X172212666Y-120160239D03*
D30*
%TO.P,_1,1*%
%TO.N,VBAT*%
X152066212Y-151226063D03*
%TO.P,_1,2*%
%TO.N,EN*%
X152154857Y-148687610D03*
%TO.P,_1,3*%
%TO.N,VBUS*%
X152243501Y-146149157D03*
%TO.P,_1,4*%
%TO.N,D13*%
X152332142Y-143610705D03*
%TO.P,_1,5*%
%TO.N,D12*%
X152420787Y-141072251D03*
%TO.P,_1,6*%
%TO.N,D11*%
X152509435Y-138533799D03*
%TO.P,_1,7*%
%TO.N,D10*%
X152598081Y-135995346D03*
%TO.P,_1,8*%
%TO.N,D9*%
X152686725Y-133456894D03*
%TO.P,_1,9*%
%TO.N,D6*%
X152775369Y-130918440D03*
%TO.P,_1,10*%
%TO.N,D5*%
X152864013Y-128379988D03*
%TO.P,_1,11*%
%TO.N,SCL*%
X152952667Y-125841536D03*
%TO.P,_1,12*%
%TO.N,SDA*%
X153041304Y-123303083D03*
%TO.P,_1,13*%
%TO.N,RST*%
X172019254Y-162089031D03*
%TO.P,_1,14*%
%TO.N,V33*%
X172107891Y-159550578D03*
%TO.P,_1,15*%
X172196545Y-157012126D03*
%TO.P,_1,16*%
%TO.N,GND*%
X172285189Y-154473674D03*
%TO.P,_1,17*%
%TO.N,A0*%
X172373833Y-151935220D03*
%TO.P,_1,18*%
%TO.N,A1*%
X172462477Y-149396768D03*
%TO.P,_1,19*%
%TO.N,A2*%
X172551123Y-146858315D03*
%TO.P,_1,20*%
%TO.N,A3*%
X172639771Y-144319863D03*
%TO.P,_1,21*%
%TO.N,D24*%
X172728416Y-141781409D03*
%TO.P,_1,22*%
%TO.N,D25*%
X172817057Y-139242957D03*
%TO.P,_1,23*%
%TO.N,SCK*%
X172905701Y-136704504D03*
%TO.P,_1,24*%
%TO.N,MOSI*%
X172994346Y-134166051D03*
%TO.P,_1,25*%
%TO.N,MISO*%
X173082991Y-131627599D03*
%TO.P,_1,26*%
%TO.N,RX*%
X173171637Y-129089146D03*
%TO.P,_1,27*%
%TO.N,TX*%
X173260272Y-126550693D03*
%TO.P,_1,28*%
%TO.N,D4*%
X173348925Y-124012241D03*
%TD*%
D10*
%TO.P,D11,1*%
%TO.N,D6*%
X118275865Y-117730867D03*
D11*
X120278580Y-118540018D03*
%TO.P,D11,2*%
%TO.N,index_middle*%
X123338290Y-119776218D03*
D12*
X125341005Y-120585369D03*
%TD*%
D15*
%TO.P,D33,1*%
%TO.N,D25*%
X180939204Y-116463566D03*
D16*
X182993487Y-115796086D03*
%TO.P,D33,2*%
%TO.N,mirror_inner_top*%
X186131971Y-114776336D03*
D12*
X188186254Y-114108856D03*
%TD*%
D15*
%TO.P,D30,1*%
%TO.N,D25*%
X196822143Y-107097028D03*
D16*
X198876426Y-106429548D03*
%TO.P,D30,2*%
%TO.N,mirror_index_top*%
X202014910Y-105409798D03*
D12*
X204069193Y-104742318D03*
%TD*%
D27*
%TO.P,D20,1*%
%TO.N,D24*%
X261427770Y-121000268D03*
D28*
X263566750Y-120699653D03*
%TO.P,D20,2*%
%TO.N,mirror_pinkie_middle*%
X266834638Y-120240383D03*
D12*
X268973618Y-119939768D03*
%TD*%
D10*
%TO.P,D15,1*%
%TO.N,D5*%
X139835061Y-112420386D03*
D11*
X141837776Y-113229537D03*
%TO.P,D15,2*%
%TO.N,inner_top*%
X144897486Y-114465737D03*
D12*
X146900201Y-115274888D03*
%TD*%
D10*
%TO.P,D14,1*%
%TO.N,D6*%
X133466748Y-128182515D03*
D11*
X135469463Y-128991666D03*
%TO.P,D14,2*%
%TO.N,inner_middle*%
X138529173Y-130227866D03*
D12*
X140531888Y-131037017D03*
%TD*%
D19*
%TO.P,D5,1*%
%TO.N,D6*%
X82212107Y-104962010D03*
D20*
X84266385Y-105629486D03*
%TO.P,D5,2*%
%TO.N,ring_middle*%
X87404873Y-106649242D03*
D12*
X89459151Y-107316718D03*
%TD*%
D10*
%TO.P,D8,1*%
%TO.N,D6*%
X104583402Y-103570467D03*
D11*
X106586117Y-104379618D03*
%TO.P,D8,2*%
%TO.N,middle_middle*%
X109645827Y-105615818D03*
D12*
X111648542Y-106424969D03*
%TD*%
D17*
%TO.P,D22,1*%
%TO.N,A1*%
X242908114Y-129026686D03*
D18*
X245003951Y-128504130D03*
%TO.P,D22,2*%
%TO.N,mirror_ring_bottom*%
X248205921Y-127705794D03*
D12*
X250301758Y-127183238D03*
%TD*%
D25*
%TO.P,D3,1*%
%TO.N,D5*%
X62372228Y-95973156D03*
D26*
X64485028Y-96422246D03*
%TO.P,D3,2*%
%TO.N,pinkie_top*%
X67712918Y-97108354D03*
D12*
X69825718Y-97557444D03*
%TD*%
D31*
%TO.P,D17,1*%
%TO.N,D13*%
X116885245Y-163043947D03*
D32*
X118610297Y-164343874D03*
%TO.P,D17,2*%
%TO.N,mod_cluster*%
X121245795Y-166329864D03*
D12*
X122970847Y-167629791D03*
%TD*%
D15*
%TO.P,D28,1*%
%TO.N,A1*%
X207328714Y-139432949D03*
D16*
X209382997Y-138765469D03*
%TO.P,D28,2*%
%TO.N,mirror_index_bottom*%
X212521481Y-137745719D03*
D12*
X214575764Y-137078239D03*
%TD*%
D10*
%TO.P,D10,1*%
%TO.N,D10*%
X111907552Y-133492992D03*
D11*
X113910267Y-134302143D03*
%TO.P,D10,2*%
%TO.N,index_bottom*%
X116969977Y-135538343D03*
D12*
X118972692Y-136347494D03*
%TD*%
D15*
%TO.P,D32,1*%
%TO.N,D24*%
X186192476Y-132631525D03*
D16*
X188246759Y-131964045D03*
%TO.P,D32,2*%
%TO.N,mirror_inner_middle*%
X191385243Y-130944295D03*
D12*
X193439526Y-130276815D03*
%TD*%
D10*
%TO.P,D13,1*%
%TO.N,D10*%
X127098432Y-143944644D03*
D11*
X129101147Y-144753795D03*
%TO.P,D13,2*%
%TO.N,inner_bottom*%
X132160857Y-145989995D03*
D12*
X134163572Y-146799146D03*
%TD*%
D17*
%TO.P,D23,1*%
%TO.N,D24*%
X238795451Y-112531656D03*
D18*
X240891288Y-112009100D03*
%TO.P,D23,2*%
%TO.N,mirror_ring_middle*%
X244093258Y-111210764D03*
D12*
X246189095Y-110688208D03*
%TD*%
D13*
%TO.P,_3,1*%
%TO.N,N/C*%
X96996191Y-128115524D03*
X97881340Y-127214791D03*
X97007213Y-129378330D03*
X99144146Y-127203769D03*
D14*
X98526046Y-128733624D03*
D13*
X97907946Y-130263479D03*
X100044879Y-128088918D03*
X99170752Y-130252457D03*
X100055901Y-129351724D03*
%TD*%
D10*
%TO.P,D7,1*%
%TO.N,D10*%
X98215100Y-119332598D03*
D11*
X100217815Y-120141749D03*
%TO.P,D7,2*%
%TO.N,middle_bottom*%
X103277525Y-121377949D03*
D12*
X105280240Y-122187100D03*
%TD*%
D25*
%TO.P,D1,1*%
%TO.N,D10*%
X55303229Y-129230173D03*
D26*
X57416029Y-129679263D03*
%TO.P,D1,2*%
%TO.N,pinkie_bottom*%
X60643919Y-130365371D03*
D12*
X62756719Y-130814461D03*
%TD*%
D33*
%TO.P,D36,1*%
%TO.N,A0*%
X183475594Y-179305711D03*
D34*
X185055319Y-177832594D03*
%TO.P,D36,2*%
%TO.N,mirror_space_cluster*%
X187468785Y-175582000D03*
D12*
X189048510Y-174108883D03*
%TD*%
D35*
%TO.N,A2*%
X259225963Y-129656610D03*
%TO.N,A3*%
X237952035Y-121334919D03*
%TO.N,D11*%
X110423354Y-143704140D03*
%TO.N,D12*%
X127720832Y-152955477D03*
%TO.N,D9*%
X134380106Y-131762697D03*
%TD*%
D36*
%TO.N,A2*%
X229740421Y-122589653D02*
X214641162Y-123645501D01*
X259225963Y-129656610D02*
X255820075Y-129894777D01*
X205346001Y-134338355D02*
X205614966Y-138184784D01*
X204436854Y-139540044D02*
X179497755Y-141283965D01*
X179497755Y-141283965D02*
X174662011Y-146846851D01*
X214641162Y-123645501D02*
X205346001Y-134338355D01*
X250301656Y-125097688D02*
X233941607Y-126241691D01*
X255820075Y-129894777D02*
X250301656Y-125097688D01*
X205614966Y-138184784D02*
X204436854Y-139540044D01*
X233941607Y-126241691D02*
X229740421Y-122589653D01*
X174662011Y-146846851D02*
X173000067Y-146963069D01*
%TO.N,pinkie_bottom*%
X62756719Y-130814460D02*
X62756721Y-130814463D01*
X60643928Y-130365370D02*
X62756719Y-130814460D01*
%TO.N,pinkie_middle*%
X64178424Y-113736861D02*
X66291226Y-114185957D01*
X66291226Y-114185957D02*
X66291226Y-114185961D01*
%TO.N,pinkie_top*%
X69825714Y-97557447D02*
X69825716Y-97557449D01*
X67712918Y-97108353D02*
X69825714Y-97557447D01*
%TO.N,A3*%
X176233570Y-144204703D02*
X173088720Y-144424611D01*
X221382603Y-122628317D02*
X218825612Y-120405556D01*
X237952035Y-121334919D02*
X237740615Y-121578130D01*
X216626690Y-120559321D02*
X205020263Y-133910994D01*
X237740615Y-121578130D02*
X221389122Y-122721535D01*
X221389122Y-122721535D02*
X221382603Y-122628317D01*
X183897792Y-135388016D02*
X176233570Y-144204703D01*
X218825612Y-120405556D02*
X216626690Y-120559321D01*
X205020263Y-133910994D02*
X183897792Y-135388016D01*
%TO.N,ring_bottom*%
X84205870Y-123484674D02*
X84205868Y-123484676D01*
X82151590Y-122817199D02*
X84205870Y-123484674D01*
%TO.N,ring_middle*%
X89459155Y-107316725D02*
X89459156Y-107316725D01*
X87404873Y-106649247D02*
X89459155Y-107316725D01*
%TO.N,ring_top*%
X92658163Y-90481287D02*
X94712444Y-91148760D01*
X94712444Y-91148760D02*
X94712446Y-91148761D01*
%TO.N,D11*%
X143094059Y-149422201D02*
X150695718Y-142333541D01*
X113897212Y-143825449D02*
X118309170Y-148556697D01*
X118309170Y-148556697D02*
X143094059Y-149422201D01*
X110423354Y-143704140D02*
X113897212Y-143825449D01*
X150762056Y-140433975D02*
X152697193Y-138629427D01*
X150695718Y-142333541D02*
X150762056Y-140433975D01*
X152697193Y-138629427D02*
X152958378Y-138638550D01*
%TO.N,middle_bottom*%
X105280238Y-122187089D02*
X105280236Y-122187093D01*
X103277517Y-121377951D02*
X105280238Y-122187089D01*
%TO.N,middle_middle*%
X111648547Y-106424967D02*
X111648552Y-106424969D01*
X109645828Y-105615819D02*
X111648547Y-106424967D01*
%TO.N,middle_top*%
X118016864Y-90662856D02*
X118016868Y-90662857D01*
X116014154Y-89853702D02*
X118016864Y-90662856D01*
%TO.N,D12*%
X152607083Y-141167829D02*
X152869730Y-141177001D01*
X127720832Y-152955477D02*
X139524362Y-153367664D01*
X139524362Y-153367664D02*
X152607083Y-141167829D01*
%TO.N,index_bottom*%
X118972691Y-136347493D02*
X118972694Y-136347496D01*
X116969979Y-135538340D02*
X118972691Y-136347493D01*
%TO.N,index_middle*%
X123338286Y-119776213D02*
X125340996Y-120585367D01*
X125340996Y-120585367D02*
X125341000Y-120585369D01*
%TO.N,index_top*%
X131709317Y-104823240D02*
X131709319Y-104823244D01*
X129706602Y-104014086D02*
X131709317Y-104823240D01*
%TO.N,D9*%
X149490004Y-135122154D02*
X151234636Y-133495258D01*
X137364509Y-134963073D02*
X137506927Y-134968046D01*
X137880322Y-134981085D02*
X148843365Y-135363923D01*
X148843365Y-135363923D02*
X149137648Y-135374202D01*
X149216754Y-135376963D02*
X149490004Y-135122154D01*
X151234636Y-133495258D02*
X153135667Y-133561645D01*
X137506927Y-134968046D02*
X137880322Y-134981085D01*
X134380106Y-131762697D02*
X137364509Y-134963073D01*
X149137648Y-135374202D02*
X149216754Y-135376963D01*
%TO.N,inner_bottom*%
X134163577Y-146799143D02*
X134163578Y-146799148D01*
X132160861Y-145989991D02*
X134163577Y-146799143D01*
%TO.N,inner_middle*%
X138529173Y-130227866D02*
X140531886Y-131037011D01*
X140531886Y-131037011D02*
X140531890Y-131037011D01*
%TO.N,inner_top*%
X144897486Y-114465749D02*
X146900202Y-115274888D01*
X146900202Y-115274888D02*
X146900205Y-115274890D01*
%TO.N,outer_cluster*%
X106273400Y-157101472D02*
X106273400Y-157101473D01*
X104270691Y-156292322D02*
X106273400Y-157101472D01*
%TO.N,space_cluster*%
X139986336Y-177787042D02*
X138513217Y-176207310D01*
%TO.N,mirror_pinkie_bottom*%
X271339547Y-136774327D02*
X271339551Y-136774325D01*
X269200580Y-137074939D02*
X271339547Y-136774327D01*
%TO.N,mirror_pinkie_middle*%
X266834645Y-120240380D02*
X268973615Y-119939763D01*
X268973615Y-119939763D02*
X268973617Y-119939764D01*
%TO.N,mirror_pinkie_top*%
X266607667Y-103105213D02*
X266607670Y-103105210D01*
X264468693Y-103405826D02*
X266607667Y-103105213D01*
%TO.N,mirror_ring_bottom*%
X248205923Y-127705789D02*
X250301764Y-127183241D01*
X250301764Y-127183241D02*
X250301764Y-127183235D01*
%TO.N,mirror_ring_middle*%
X244093253Y-111210763D02*
X246189086Y-110688213D01*
X246189086Y-110688213D02*
X246189095Y-110688203D01*
%TO.N,mirror_ring_top*%
X242076412Y-94193188D02*
X242076418Y-94193186D01*
X239980581Y-94715740D02*
X242076412Y-94193188D01*
%TO.N,mirror_middle_bottom*%
X227168366Y-124574965D02*
X229222651Y-123907492D01*
X229222651Y-123907492D02*
X229222656Y-123907482D01*
%TO.N,mirror_middle_middle*%
X223969362Y-107739528D02*
X223969363Y-107739520D01*
X221915074Y-108407007D02*
X223969362Y-107739528D01*
%TO.N,mirror_middle_top*%
X218716077Y-91571566D02*
X218716082Y-91571559D01*
X216661799Y-92239037D02*
X218716077Y-91571566D01*
%TO.N,mirror_index_bottom*%
X212521478Y-137745724D02*
X214575767Y-137078243D01*
X214575767Y-137078243D02*
X214575772Y-137078238D01*
%TO.N,mirror_index_middle*%
X207268195Y-121577765D02*
X209322477Y-120910292D01*
X209322477Y-120910292D02*
X209322475Y-120910279D01*
%TO.N,mirror_index_top*%
X202014906Y-105409802D02*
X204069188Y-104742328D01*
X204069188Y-104742328D02*
X204069189Y-104742323D01*
%TO.N,mirror_inner_bottom*%
X198692828Y-146444786D02*
X198692833Y-146444773D01*
X196638543Y-147112254D02*
X198692828Y-146444786D01*
%TO.N,mirror_inner_middle*%
X191385244Y-130944297D02*
X193439527Y-130276823D01*
X193439527Y-130276823D02*
X193439530Y-130276818D01*
%TO.N,mirror_inner_top*%
X186131962Y-114776332D02*
X188186245Y-114108854D01*
X188186245Y-114108854D02*
X188186247Y-114108850D01*
%TO.N,D10*%
X98215100Y-119332591D02*
X100217808Y-120141752D01*
X100217808Y-120141752D02*
X100217812Y-120141746D01*
X55303233Y-129230175D02*
X57416029Y-129679257D01*
X80800856Y-125250050D02*
X76958819Y-121129964D01*
X127098425Y-143944640D02*
X129101146Y-144753800D01*
X153035665Y-136110688D02*
X150915612Y-136036652D01*
X150915612Y-136036652D02*
X141117636Y-145173418D01*
X104145059Y-130970802D02*
X111907557Y-133492995D01*
X55303233Y-129230175D02*
X56896467Y-131683543D01*
X111907557Y-133492995D02*
X113910266Y-134302130D01*
X153047025Y-136100096D02*
X153035665Y-136110688D01*
X153030313Y-136578461D02*
X153047019Y-136100088D01*
X79013097Y-121797435D02*
X79013094Y-121797440D01*
X64372971Y-133272721D02*
X75979976Y-125735050D01*
X75979976Y-125735050D02*
X76958813Y-121129967D01*
X76958819Y-121129964D02*
X79013097Y-121797435D01*
X98215095Y-119332589D02*
X91469878Y-125622621D01*
X141117636Y-145173418D02*
X129101150Y-144753791D01*
X111907557Y-133492995D02*
X115275607Y-140103169D01*
X91469878Y-125622621D02*
X80800856Y-125250050D01*
X113910266Y-134302130D02*
X113910268Y-134302138D01*
X56896467Y-131683543D02*
X64372971Y-133272721D01*
X115275607Y-140103169D02*
X127098427Y-143944641D01*
X129101146Y-144753800D02*
X129101148Y-144753797D01*
X57416029Y-129679257D02*
X57416029Y-129679262D01*
X98215100Y-119332591D02*
X104145059Y-130970802D01*
%TO.N,D6*%
X106586117Y-104379615D02*
X106586118Y-104379620D01*
X60276932Y-114817822D02*
X70883497Y-117072316D01*
X111983132Y-115188431D02*
X118275861Y-117730865D01*
X118275861Y-117730865D02*
X120486167Y-122938018D01*
X81829998Y-106759695D02*
X82212107Y-104962012D01*
X107562510Y-104774105D02*
X111983132Y-115188431D01*
X58837733Y-112601666D02*
X60950534Y-113050755D01*
X120278579Y-118540004D02*
X120278574Y-118540009D01*
X104583401Y-103570465D02*
X107562510Y-104774105D01*
X135469463Y-128991668D02*
X135364098Y-132008854D01*
X70883497Y-117072316D02*
X73255620Y-115531851D01*
X93623509Y-111462093D02*
X95135589Y-110691642D01*
X73255620Y-115531851D02*
X74045684Y-111814886D01*
X133466741Y-128182514D02*
X135469460Y-128991664D01*
X60950534Y-113050755D02*
X60950536Y-113050758D01*
X82217709Y-104963828D02*
X83922732Y-108310119D01*
X74045684Y-111814886D02*
X81829998Y-106759695D01*
X97484117Y-103463614D02*
X100120422Y-102120361D01*
X104583401Y-103570467D02*
X106586117Y-104379615D01*
X95135589Y-110691642D02*
X97484117Y-103463614D01*
X82212107Y-104962012D02*
X84266384Y-105629489D01*
X100120422Y-102120361D02*
X104583401Y-103570467D01*
X84266384Y-105629489D02*
X84266386Y-105629489D01*
X82212107Y-104962012D02*
X82217709Y-104963828D01*
X135364098Y-132008854D02*
X137709365Y-134523841D01*
X137709365Y-134523841D02*
X149045799Y-134919718D01*
X120486167Y-122938018D02*
X133466740Y-128182510D01*
X149045799Y-134919718D02*
X153224313Y-131023190D01*
X58837733Y-112601666D02*
X60276932Y-114817822D01*
X118275861Y-117730863D02*
X120278579Y-118540004D01*
X83922732Y-108310119D02*
X93623509Y-111462093D01*
X135469460Y-128991664D02*
X135469456Y-128991667D01*
%TO.N,D5*%
X110951723Y-87808349D02*
X112954435Y-88617495D01*
X75550189Y-100888938D02*
X78396737Y-99040374D01*
X78396737Y-99040374D02*
X80143189Y-90823926D01*
X64485026Y-96422245D02*
X64485028Y-96422249D01*
X141837772Y-113229538D02*
X141738490Y-116072631D01*
X63965472Y-98426527D02*
X75550189Y-100888938D01*
X105032609Y-90264832D02*
X106006583Y-87854157D01*
X87906342Y-91519321D02*
X95166641Y-94452679D01*
X80143189Y-90823926D02*
X84303757Y-88122021D01*
X87096399Y-89929715D02*
X87906342Y-91519321D01*
X95166641Y-94452679D02*
X105032609Y-90264832D01*
X87465396Y-88794050D02*
X87096399Y-89929715D01*
X118351439Y-99426309D02*
X124644174Y-101968729D01*
X108473405Y-86807041D02*
X110951719Y-87808351D01*
X141837772Y-113229537D02*
X141837773Y-113229539D01*
X87465396Y-88794050D02*
X89519677Y-89461531D01*
X141738490Y-116072631D02*
X153312957Y-128484725D01*
X106006583Y-87854157D02*
X108473405Y-86807041D01*
X124644174Y-101968729D02*
X126646893Y-102777889D01*
X62372232Y-95973162D02*
X64485026Y-96422245D01*
X126646893Y-102777889D02*
X126646896Y-102777896D01*
X62372232Y-95973162D02*
X63965472Y-98426527D01*
X84303757Y-88122021D02*
X87465399Y-88794047D01*
X126854485Y-107175897D02*
X139835065Y-112420396D01*
X113930816Y-89011979D02*
X118351439Y-99426309D01*
X112954435Y-88617495D02*
X112954437Y-88617495D01*
X89519677Y-89461531D02*
X89519684Y-89461530D01*
X110951719Y-87808351D02*
X113930816Y-89011979D01*
X124644174Y-101968729D02*
X126854485Y-107175897D01*
X139835065Y-112420396D02*
X141837772Y-113229537D01*
%TO.N,D13*%
X134789512Y-172214118D02*
X135288161Y-157934652D01*
X135288161Y-157934652D02*
X150617409Y-143639897D01*
X99208257Y-154246970D02*
X98210734Y-156715909D01*
X101210974Y-155056116D02*
X101210968Y-155056117D01*
X113812442Y-164348273D02*
X116885247Y-163043948D01*
X117214721Y-167017133D02*
X132491754Y-173189459D01*
X116223471Y-164681907D02*
X117214721Y-167017133D01*
X116885247Y-163043948D02*
X116223471Y-164681907D01*
X136262628Y-173793842D02*
X134789512Y-172214118D01*
X99208263Y-154246969D02*
X101210974Y-155056116D01*
X150617409Y-143639897D02*
X152781086Y-143715453D01*
X132491754Y-173189459D02*
X134789506Y-172214112D01*
X98210734Y-156715909D02*
X98891571Y-158319862D01*
X98891571Y-158319862D02*
X113812442Y-164348273D01*
%TO.N,A1*%
X224029889Y-125594721D02*
X224029893Y-125594716D01*
X206628572Y-140807061D02*
X193313792Y-145133298D01*
X187104938Y-145158982D02*
X187099335Y-145078774D01*
X261596328Y-138548804D02*
X242908122Y-129026684D01*
X176129754Y-145845839D02*
X175124940Y-147001748D01*
X242908122Y-129026684D02*
X245003951Y-128504130D01*
X193313792Y-145133298D02*
X191445778Y-148799489D01*
X265932684Y-137534216D02*
X265932685Y-137534216D01*
X242908122Y-129026684D02*
X233439356Y-132103265D01*
X188013550Y-145815899D02*
X187872024Y-145825797D01*
X263793709Y-137834828D02*
X265932684Y-137534216D01*
X221975602Y-126262193D02*
X217660137Y-134731764D01*
X207328713Y-139432948D02*
X209382996Y-138765471D01*
X233439356Y-132103265D02*
X221975602Y-126262193D01*
X208149562Y-137821942D02*
X207328713Y-139432948D01*
X191445766Y-148799479D02*
X188013550Y-145815899D01*
X245003951Y-128504130D02*
X245003955Y-128504121D01*
X221975602Y-126262193D02*
X224029889Y-125594721D01*
X187872024Y-145825797D02*
X187104938Y-145158982D01*
X207328713Y-139432948D02*
X206628572Y-140807061D01*
X174879825Y-147283713D02*
X174836687Y-147286735D01*
X263793712Y-137834824D02*
X261596328Y-138548804D01*
X175124940Y-147001748D02*
X174879825Y-147283713D01*
X217660137Y-134731764D02*
X208149562Y-137821942D01*
X187099335Y-145078774D02*
X176129754Y-145845839D01*
X191445778Y-148799489D02*
X193500060Y-148132009D01*
X209382996Y-138765471D02*
X209382999Y-138765469D01*
X174836687Y-147286735D02*
X172911410Y-149501522D01*
X193500060Y-148132009D02*
X193500062Y-148132001D01*
%TO.N,D24*%
X188060495Y-128965346D02*
X186192477Y-132631529D01*
X186192477Y-132631529D02*
X188246758Y-131964047D01*
X216722306Y-110094233D02*
X218776594Y-109426758D01*
X216722306Y-110094233D02*
X213454015Y-116508633D01*
X238795450Y-112531654D02*
X232539061Y-109343866D01*
X202075430Y-123264989D02*
X204129712Y-122597521D01*
X203943447Y-119598800D02*
X202075430Y-123264989D01*
X221981856Y-112774106D02*
X216722306Y-110094233D01*
X232539061Y-109343866D02*
X221981856Y-112774106D01*
X261427773Y-121000264D02*
X251749577Y-124144909D01*
X202075430Y-123264989D02*
X201375280Y-124639107D01*
X188246758Y-131964047D02*
X188246758Y-131964043D01*
X238795448Y-112531651D02*
X240891278Y-112009100D01*
X240747348Y-118538991D02*
X238795450Y-112531654D01*
X185476607Y-132681581D02*
X186192477Y-132631524D01*
X204129712Y-122597521D02*
X204129713Y-122597510D01*
X218776594Y-109426758D02*
X218776595Y-109426752D01*
X263566752Y-120699655D02*
X263566754Y-120699654D01*
X240891278Y-112009100D02*
X240891285Y-112009098D01*
X177753346Y-141566178D02*
X185476607Y-132681581D01*
X261427771Y-121000265D02*
X263566752Y-120699655D01*
X201375280Y-124639107D02*
X188060495Y-128965346D01*
X173177355Y-141886160D02*
X177753346Y-141566178D01*
X251749577Y-124144909D02*
X240747348Y-118538991D01*
X213454015Y-116508633D02*
X203943447Y-119598800D01*
%TO.N,D25*%
X198690149Y-103430838D02*
X196822139Y-107097035D01*
X182203172Y-135759806D02*
X179460808Y-138914527D01*
X182993479Y-115796085D02*
X182993483Y-115796080D01*
X213523314Y-93258788D02*
X213523318Y-93258785D01*
X179460808Y-138914527D02*
X173265997Y-139347706D01*
X234682770Y-96036627D02*
X236605481Y-95411901D01*
X259061820Y-104165712D02*
X261200800Y-103865097D01*
X228374207Y-92822253D02*
X216728577Y-96606147D01*
X196822139Y-107097035D02*
X198876421Y-106429556D01*
X180860194Y-116554437D02*
X182203172Y-135759806D01*
X236605481Y-95411901D02*
X255840199Y-105212483D01*
X211469024Y-93926268D02*
X208200731Y-100340668D01*
X196121995Y-108471137D02*
X182807216Y-112797377D01*
X261200800Y-103865097D02*
X261200798Y-103865096D01*
X180939196Y-116463563D02*
X182993479Y-115796085D01*
X216728577Y-96606147D02*
X211469024Y-93926268D01*
X211469024Y-93926268D02*
X213523314Y-93258788D01*
X180939196Y-116463560D02*
X180860194Y-116554437D01*
X234682770Y-96036627D02*
X228374207Y-92822253D01*
X198876421Y-106429556D02*
X198876424Y-106429548D01*
X182807216Y-112797377D02*
X180939196Y-116463563D01*
X255840199Y-105212483D02*
X259061822Y-104165710D01*
X196822139Y-107097035D02*
X196121995Y-108471137D01*
X208200731Y-100340668D02*
X198690149Y-103430838D01*
%TO.N,A0*%
X201158149Y-170360148D02*
X184020604Y-179472345D01*
X181086690Y-155624430D02*
X176654963Y-151771998D01*
X182007851Y-168797692D02*
X181086690Y-155624430D01*
X218549353Y-161022237D02*
X218262159Y-161961611D01*
X185055314Y-177832598D02*
X185249420Y-172273859D01*
X218262159Y-161961611D02*
X201989048Y-170614171D01*
X201989048Y-170614171D02*
X201158149Y-170360148D01*
X185249420Y-172273859D02*
X182007851Y-168797692D01*
X176654963Y-151771998D02*
X172822790Y-152039968D01*
X184020604Y-179472345D02*
X183475585Y-179305713D01*
%TD*%
M02*
