%TF.GenerationSoftware,KiCad,Pcbnew,9.0.0*%
%TF.CreationDate,2025-06-15T19:28:49-07:00*%
%TF.ProjectId,flexible-determinist,666c6578-6962-46c6-952d-64657465726d,v1.0.0*%
%TF.SameCoordinates,Original*%
%TF.FileFunction,Paste,Top*%
%TF.FilePolarity,Positive*%
%FSLAX46Y46*%
G04 Gerber Fmt 4.6, Leading zero omitted, Abs format (unit mm)*
G04 Created by KiCad (PCBNEW 9.0.0) date 2025-06-15 19:28:49*
%MOMM*%
%LPD*%
G01*
G04 APERTURE LIST*
G04 Aperture macros list*
%AMRotRect*
0 Rectangle, with rotation*
0 The origin of the aperture is its center*
0 $1 length*
0 $2 width*
0 $3 Rotation angle, in degrees counterclockwise*
0 Add horizontal line*
21,1,$1,$2,0,0,$3*%
G04 Aperture macros list end*
%ADD10RotRect,0.900000X1.200000X338.000000*%
%ADD11RotRect,0.900000X1.200000X18.000000*%
%ADD12RotRect,0.900000X1.200000X14.000000*%
%ADD13RotRect,0.900000X1.200000X342.000000*%
%ADD14RotRect,0.900000X1.200000X33.000000*%
%ADD15RotRect,0.900000X1.200000X313.000000*%
%ADD16RotRect,0.900000X1.200000X348.000000*%
%ADD17RotRect,0.900000X1.200000X8.000000*%
%ADD18RotRect,0.900000X1.200000X323.000000*%
%ADD19RotRect,0.900000X1.200000X43.000000*%
G04 APERTURE END LIST*
D10*
%TO.C,D9*%
X112954434Y-88617498D03*
X116014144Y-89853698D03*
%TD*%
D11*
%TO.C,D25*%
X224029888Y-125594715D03*
X227168372Y-124574965D03*
%TD*%
D12*
%TO.C,D24*%
X236778609Y-95514073D03*
X239980579Y-94715737D03*
%TD*%
D11*
%TO.C,D26*%
X218776598Y-109426749D03*
X221915082Y-108406999D03*
%TD*%
%TO.C,D34*%
X220603638Y-160354758D03*
X223742122Y-159335008D03*
%TD*%
D13*
%TO.C,D6*%
X89519677Y-89461524D03*
X92658165Y-90481280D03*
%TD*%
D10*
%TO.C,D16*%
X101210973Y-155056122D03*
X104270683Y-156292322D03*
%TD*%
D14*
%TO.C,D35*%
X202969683Y-169183729D03*
X205737297Y-167386421D03*
%TD*%
D15*
%TO.C,D18*%
X136262627Y-173793848D03*
X138513221Y-176207314D03*
%TD*%
D16*
%TO.C,D2*%
X60950541Y-113050758D03*
X64178431Y-113736866D03*
%TD*%
D11*
%TO.C,D29*%
X204129709Y-122597509D03*
X207268193Y-121577759D03*
%TD*%
%TO.C,D31*%
X193500058Y-148132014D03*
X196638542Y-147112264D03*
%TD*%
%TO.C,D27*%
X213523313Y-93258794D03*
X216661797Y-92239044D03*
%TD*%
D17*
%TO.C,D21*%
X261200801Y-103865105D03*
X264468689Y-103405835D03*
%TD*%
D10*
%TO.C,D12*%
X126646890Y-102777890D03*
X129706600Y-104014090D03*
%TD*%
D17*
%TO.C,D19*%
X265932689Y-137534213D03*
X269200577Y-137074943D03*
%TD*%
D13*
%TO.C,D4*%
X79013102Y-121797440D03*
X82151590Y-122817196D03*
%TD*%
D10*
%TO.C,D11*%
X120278580Y-118540018D03*
X123338290Y-119776218D03*
%TD*%
D11*
%TO.C,D33*%
X182993487Y-115796086D03*
X186131971Y-114776336D03*
%TD*%
%TO.C,D30*%
X198876426Y-106429548D03*
X202014910Y-105409798D03*
%TD*%
D17*
%TO.C,D20*%
X263566750Y-120699653D03*
X266834638Y-120240383D03*
%TD*%
D10*
%TO.C,D15*%
X141837776Y-113229537D03*
X144897486Y-114465737D03*
%TD*%
%TO.C,D14*%
X135469463Y-128991666D03*
X138529173Y-130227866D03*
%TD*%
D13*
%TO.C,D5*%
X84266385Y-105629486D03*
X87404873Y-106649242D03*
%TD*%
D10*
%TO.C,D8*%
X106586117Y-104379618D03*
X109645827Y-105615818D03*
%TD*%
D12*
%TO.C,D22*%
X245003951Y-128504130D03*
X248205921Y-127705794D03*
%TD*%
D16*
%TO.C,D3*%
X64485028Y-96422246D03*
X67712918Y-97108354D03*
%TD*%
D18*
%TO.C,D17*%
X118610297Y-164343874D03*
X121245795Y-166329864D03*
%TD*%
D11*
%TO.C,D28*%
X209382997Y-138765469D03*
X212521481Y-137745719D03*
%TD*%
D10*
%TO.C,D10*%
X113910267Y-134302143D03*
X116969977Y-135538343D03*
%TD*%
D11*
%TO.C,D32*%
X188246759Y-131964045D03*
X191385243Y-130944295D03*
%TD*%
D10*
%TO.C,D13*%
X129101147Y-144753795D03*
X132160857Y-145989995D03*
%TD*%
D12*
%TO.C,D23*%
X240891288Y-112009100D03*
X244093258Y-111210764D03*
%TD*%
D10*
%TO.C,D7*%
X100217815Y-120141749D03*
X103277525Y-121377949D03*
%TD*%
D16*
%TO.C,D1*%
X57416029Y-129679263D03*
X60643919Y-130365371D03*
%TD*%
D19*
%TO.C,D36*%
X185055319Y-177832594D03*
X187468785Y-175582000D03*
%TD*%
M02*
