M48
; DRILL file {KiCad 9.0.0} date 2025-06-15T19:29:13-0700
; FORMAT={-:-/ absolute / metric / decimal}
; #@! TF.CreationDate,2025-06-15T19:29:13-07:00
; #@! TF.GenerationSoftware,Kicad,Pcbnew,9.0.0
; #@! TF.FileFunction,Plated,1,2,PTH
FMAT,2
METRIC
; #@! TA.AperFunction,Plated,PTH,ViaDrill
T1C0.400
; #@! TA.AperFunction,Plated,PTH,ComponentDrill
T2C0.400
; #@! TA.AperFunction,Plated,PTH,ComponentDrill
T3C0.991
; #@! TA.AperFunction,Plated,PTH,ComponentDrill
T4C1.092
; #@! TA.AperFunction,Plated,PTH,ComponentDrill
T5C2.200
%
G90
G05
T1
X110.423Y-143.704
X127.721Y-152.955
X134.38Y-131.763
X237.952Y-121.335
X259.226Y-129.657
T2
X78.363Y-84.037
X78.593Y-85.279
X79.079Y-82.996
X79.634Y-85.994
X80.32Y-82.766
X80.876Y-85.764
X81.361Y-83.481
X81.591Y-84.723
X96.996Y-128.116
X97.007Y-129.378
X97.881Y-127.215
X97.908Y-130.263
X99.144Y-127.204
X99.171Y-130.252
X100.045Y-128.089
X100.056Y-129.352
X125.766Y-176.859
X126.209Y-178.042
X126.29Y-175.71
X127.358Y-178.565
X127.473Y-175.267
X128.541Y-178.123
X128.622Y-175.791
X129.064Y-176.974
X162.658Y-104.717
X163.1Y-105.9
X163.182Y-103.568
X164.25Y-106.423
X164.365Y-103.125
X165.432Y-105.981
X165.514Y-103.649
X165.956Y-104.832
X194.428Y-179.257
X194.87Y-180.439
X194.951Y-178.107
X196.019Y-180.963
X196.134Y-177.665
X197.202Y-180.521
X197.283Y-178.189
X197.726Y-179.372
X226.687Y-133.774
X226.787Y-132.515
X227.508Y-134.734
X227.747Y-131.695
X228.767Y-134.833
X229.006Y-131.794
X229.727Y-134.013
X229.826Y-132.754
X248.22Y-90.542
X248.536Y-89.319
X248.861Y-91.63
X249.625Y-88.678
X250.084Y-91.946
X250.847Y-88.995
X251.172Y-91.305
X251.488Y-90.083
T3
X55.303Y-129.23
X58.838Y-112.602
X62.372Y-95.973
X62.757Y-130.814
X66.291Y-114.186
X69.826Y-97.557
X76.959Y-121.13
X82.212Y-104.962
X84.206Y-123.485
X87.465Y-88.794
X89.459Y-107.317
X94.712Y-91.149
X98.215Y-119.333
X99.208Y-154.247
X104.583Y-103.57
X105.28Y-122.187
X106.273Y-157.101
X110.952Y-87.808
X111.649Y-106.425
X111.908Y-133.493
X116.885Y-163.044
X118.017Y-90.663
X118.276Y-117.731
X118.973Y-136.347
X122.971Y-167.63
X124.644Y-101.969
X125.341Y-120.585
X127.098Y-143.945
X131.709Y-104.823
X133.467Y-128.183
X134.164Y-146.799
X134.79Y-172.214
X139.835Y-112.42
X139.986Y-177.787
X140.532Y-131.037
X146.9Y-115.275
X180.939Y-116.464
X183.476Y-179.306
X186.192Y-132.632
X188.186Y-114.109
X189.049Y-174.109
X191.446Y-148.799
X193.44Y-130.277
X196.822Y-107.097
X198.693Y-146.445
X201.158Y-170.36
X202.075Y-123.265
X204.069Y-104.742
X207.329Y-139.433
X207.549Y-166.21
X209.322Y-120.91
X211.469Y-93.926
X214.576Y-137.078
X216.722Y-110.094
X218.549Y-161.022
X218.716Y-91.572
X221.976Y-126.262
X223.969Y-107.74
X225.796Y-158.668
X229.223Y-123.907
X234.683Y-96.037
X238.795Y-112.532
X242.076Y-94.193
X242.908Y-129.027
X246.189Y-110.688
X250.302Y-127.183
X259.062Y-104.166
X261.428Y-121.0
X263.794Y-137.835
X266.608Y-103.105
X268.974Y-119.94
X271.34Y-136.774
T4
X152.066Y-151.226
X152.155Y-148.688
X152.244Y-146.149
X152.332Y-143.611
X152.421Y-141.072
X152.509Y-138.534
X152.598Y-135.995
X152.687Y-133.457
X152.775Y-130.918
X152.864Y-128.38
X152.953Y-125.842
X153.041Y-123.303
X172.019Y-162.089
X172.108Y-159.551
X172.197Y-157.012
X172.285Y-154.474
X172.374Y-151.935
X172.462Y-149.397
X172.551Y-146.858
X172.64Y-144.32
X172.728Y-141.781
X172.817Y-139.243
X172.906Y-136.705
X172.994Y-134.166
X173.083Y-131.628
X173.172Y-129.089
X173.26Y-126.551
X173.349Y-124.012
T5
X79.977Y-84.38
X98.526Y-128.734
X127.415Y-176.916
X164.307Y-104.774
X196.077Y-179.314
X228.257Y-133.264
X249.854Y-90.312
M30
