<?xml version="1.0"?>
<svg
  xmlns="http://www.w3.org/2000/svg"
  xmlns:xlink="http://www.w3.org/1999/xlink" version="1.1"
  preserveAspectRatio="xMinYMin meet"
  viewBox="45.0551861 70.1891923 236.35141019999998 118.45686939999999"
  width="100%" height="100%"
>
  <g stroke="#000000" stroke-width="0.1%" fill="none" transform="matrix(1,0,0,-1,0,0)">
    <g stroke="rgb(0, 0, 0)"><path d="M45.1007629,-135.3332748L54.338846,-82.9415025" /></g>
<g stroke="rgb(0, 0, 0)"><path d="M57.8142138,-80.5080237L75.5587932,-83.6368719" /></g>
<g stroke="rgb(0, 0, 0)"><path d="M78.9754452,-81.4665904L80.907393,-74.3322241" /></g>
<g stroke="rgb(0, 0, 0)"><path d="M84.6300126,-72.2325808L100.7983577,-76.8687792" /></g>
<g stroke="rgb(0, 0, 0)"><path d="M104.4435421,-75.0132653L105.4842448,-72.1609211" /></g>
<g stroke="rgb(0, 0, 0)"><path d="M109.3285773,-70.3701144L127.7363033,-77.0699787" /></g>
<g stroke="rgb(0, 0, 0)"><path d="M129.551688,-80.8514443L128.9110162,-82.7430248" /></g>
<g stroke="rgb(0, 0, 0)"><path d="M130.857379,-86.5687719L162.3358088,-96.4088864" /></g>
<g stroke="rgb(0, 0, 0)"><path d="M164.1259736,-96.4088864L195.6044034,-86.5687719" /></g>
<g stroke="rgb(0, 0, 0)"><path d="M197.5507662,-82.7430248L196.9415728,-80.9443842" /></g>
<g stroke="rgb(0, 0, 0)"><path d="M198.8502537,-77.1306897L217.4807622,-71.035985" /></g>
<g stroke="rgb(0, 0, 0)"><path d="M221.2317138,-72.8587883L222.0181029,-75.0135613" /></g>
<g stroke="rgb(0, 0, 0)"><path d="M225.6632026,-76.8688429L241.8317698,-72.2325808" /></g>
<g stroke="rgb(0, 0, 0)"><path d="M245.5543894,-74.3322241L247.4863372,-81.4665904" /></g>
<g stroke="rgb(0, 0, 0)"><path d="M250.9029892,-83.6368719L268.6475686,-80.5080237" /></g>
<g stroke="rgb(0, 0, 0)"><path d="M272.1229364,-82.9415025L281.3610195,-135.3332748" /></g>
<g stroke="rgb(0, 0, 0)"><path d="M278.9275408,-138.8086426L258.6843611,-142.3780614" /></g>
<g stroke="rgb(0, 0, 0)"><path d="M255.2408655,-140.1009088L253.7532425,-133.681536" /></g>
<g stroke="rgb(0, 0, 0)"><path d="M250.0037793,-131.4750216L234.342764,-135.9657454" /></g>
<g stroke="rgb(0, 0, 0)"><path d="M232.282909,-139.6659709L237.3297945,-157.5107313" /></g>
<g stroke="rgb(0, 0, 0)"><path d="M235.8588047,-160.9720866L184.82244,-188.2909765" /></g>
<g stroke="rgb(0, 0, 0)"><path d="M181.4170281,-187.8913577L165.2205257,-173.5390771" /></g>
<g stroke="rgb(0, 0, 0)"><path d="M161.2412567,-173.5390771L145.0447543,-187.8913577" /></g>
<g stroke="rgb(0, 0, 0)"><path d="M141.6393424,-188.2909765L90.6029777,-160.9720866" /></g>
<g stroke="rgb(0, 0, 0)"><path d="M89.1319879,-157.5107313L94.1788734,-139.6659709" /></g>
<g stroke="rgb(0, 0, 0)"><path d="M92.1190184,-135.9657454L76.4580031,-131.4750216" /></g>
<g stroke="rgb(0, 0, 0)"><path d="M72.7085399,-133.681536L71.2209169,-140.1009088" /></g>
<g stroke="rgb(0, 0, 0)"><path d="M67.7774213,-142.3780614L47.5342416,-138.8086426" /></g>
<g stroke="rgb(0, 0, 0)"><path d="M 57.814213774252316 -80.50802374823714 A 3 3 0 0 1 54.33884594823713 -82.94150242574767" /></g>
<g stroke="rgb(0, 0, 0)"><path d="M 75.55879322574768 -83.63687185176286 A 3 3 0 0 1 78.97544524669237 -81.46659041317561" /></g>
<g stroke="rgb(0, 0, 0)"><path d="M 84.63001258824671 -72.23258084682266 A 3 3 0 0 1 80.90739295330764 -74.3322240868244" /></g>
<g stroke="rgb(0, 0, 0)"><path d="M 100.7983577117533 -76.86877915317734 A 3 3 0 0 1 104.44354210199893 -75.01326536549375" /></g>
<g stroke="rgb(0, 0, 0)"><path d="M 109.32857733649284 -70.37011440361682 A 3 3 0 0 1 105.48424479800107 -72.16092103450625" /></g>
<g stroke="rgb(0, 0, 0)"><path d="M 129.55168795612607 -80.85144425215307 A 3 3 0 0 1 127.73630323649284 -77.06997870361683" /></g>
<g stroke="rgb(0, 0, 0)"><path d="M 128.91101624387392 -82.74302474784693 A 3 3 0 0 1 130.85737893728225 -86.56877188912316" /></g>
<g stroke="rgb(0, 0, 0)"><path d="M 162.33580883728226 -96.40888638912315 A 3 3 0 0 1 164.12597356271775 -96.40888638912315" /></g>
<g stroke="rgb(0, 0, 0)"><path d="M 195.60440346271776 -86.56877188912316 A 3 3 0 0 1 197.5507661561261 -82.74302474784693" /></g>
<g stroke="rgb(0, 0, 0)"><path d="M 198.85025367505355 -77.13068972408152 A 3 3 0 0 1 196.94157284387393 -80.94438425215307" /></g>
<g stroke="rgb(0, 0, 0)"><path d="M 221.23171385161012 -72.8587882814901 A 3 3 0 0 1 217.48076217505354 -71.03598492408152" /></g>
<g stroke="rgb(0, 0, 0)"><path d="M 222.01810294838987 -75.0135613185099 A 3 3 0 0 1 225.6632025882467 -76.86884285317736" /></g>
<g stroke="rgb(0, 0, 0)"><path d="M 245.55438944669237 -74.3322240868244 A 3 3 0 0 1 241.8317698117533 -72.23258084682266" /></g>
<g stroke="rgb(0, 0, 0)"><path d="M 247.48633715330763 -81.46659041317561 A 3 3 0 0 1 250.90298917425233 -83.63687185176286" /></g>
<g stroke="rgb(0, 0, 0)"><path d="M 272.1229364517629 -82.94150242574767 A 3 3 0 0 1 268.6475686257477 -80.50802374823714" /></g>
<g stroke="rgb(0, 0, 0)"><path d="M 278.9275408742523 -138.8086425517629 A 3 3 0 0 1 281.36101955176287 -135.33327472574769" /></g>
<g stroke="rgb(0, 0, 0)"><path d="M 255.24086548664815 -140.10090878027208 A 3 3 0 0 1 258.6843610742523 -142.37806135176288" /></g>
<g stroke="rgb(0, 0, 0)"><path d="M 253.75324251335184 -133.68153591972793 A 3 3 0 0 1 250.0037793117533 -131.47502154682266" /></g>
<g stroke="rgb(0, 0, 0)"><path d="M 234.3427640117533 -135.96574544682264 A 3 3 0 0 1 232.2829089745181 -139.66597093621294" /></g>
<g stroke="rgb(0, 0, 0)"><path d="M 235.85880466481632 -160.97208652911527 A 3 3 0 0 1 237.3297945254819 -157.51073126378705" /></g>
<g stroke="rgb(0, 0, 0)"><path d="M 181.41702815337004 -187.8913577541667 A 3 3 0 0 1 184.8224400648163 -188.29097652911526" /></g>
<g stroke="rgb(0, 0, 0)"><path d="M 165.22052574662996 -173.5390771458333 A 3 3 0 0 1 161.24125665337004 -173.5390771458333" /></g>
<g stroke="rgb(0, 0, 0)"><path d="M 141.6393423351837 -188.29097652911526 A 3 3 0 0 1 145.04475424662996 -187.8913577541667" /></g>
<g stroke="rgb(0, 0, 0)"><path d="M 89.13198787451812 -157.51073126378705 A 3 3 0 0 1 90.6029777351837 -160.97208652911527" /></g>
<g stroke="rgb(0, 0, 0)"><path d="M 94.1788734254819 -139.66597093621294 A 3 3 0 0 1 92.11901838824672 -135.96574544682264" /></g>
<g stroke="rgb(0, 0, 0)"><path d="M 76.45800308824671 -131.47502154682266 A 3 3 0 0 1 72.70853988664817 -133.68153591972793" /></g>
<g stroke="rgb(0, 0, 0)"><path d="M 67.77742132574767 -142.37806135176288 A 3 3 0 0 1 71.22091691335183 -140.10090878027208" /></g>
<g stroke="rgb(0, 0, 0)"><path d="M 45.10076284823713 -135.33327472574769 A 3 3 0 0 1 47.53424152574768 -138.8086425517629" /></g>
  </g>
</svg>