0
SECTION
2
HEADER
9
$INSUNITS
70
4
0
ENDSEC
0
SECTION
2
TABLES
0
TABLE
2
LTYPE
0
LTYPE
72
65
70
64
2
CONTINUOUS
3
______
73
0
40
0
0
ENDTAB
0
TABLE
2
LAYER
0
ENDTAB
0
ENDSEC
0
SECTION
2
ENTITIES
0
LINE
8
0
10
45.1007629
20
-135.3332748
11
54.338846
21
-82.9415025
0
LINE
8
0
10
57.8142138
20
-80.5080237
11
75.5587932
21
-83.6368719
0
LINE
8
0
10
78.9754452
20
-81.4665904
11
80.907393
21
-74.3322241
0
LINE
8
0
10
84.6300126
20
-72.2325808
11
100.7983577
21
-76.8687792
0
LINE
8
0
10
104.4435421
20
-75.0132653
11
105.4842448
21
-72.1609211
0
LINE
8
0
10
109.3285773
20
-70.3701144
11
127.7363033
21
-77.0699787
0
LINE
8
0
10
129.551688
20
-80.8514443
11
128.9110162
21
-82.7430248
0
LINE
8
0
10
130.857379
20
-86.5687719
11
162.3358088
21
-96.4088864
0
LINE
8
0
10
164.1259736
20
-96.4088864
11
195.6044034
21
-86.5687719
0
LINE
8
0
10
197.5507662
20
-82.7430248
11
196.9415728
21
-80.9443842
0
LINE
8
0
10
198.8502537
20
-77.1306897
11
217.4807622
21
-71.035985
0
LINE
8
0
10
221.2317138
20
-72.8587883
11
222.0181029
21
-75.0135613
0
LINE
8
0
10
225.6632026
20
-76.8688429
11
241.8317698
21
-72.2325808
0
LINE
8
0
10
245.5543894
20
-74.3322241
11
247.4863372
21
-81.4665904
0
LINE
8
0
10
250.9029892
20
-83.6368719
11
268.6475686
21
-80.5080237
0
LINE
8
0
10
272.1229364
20
-82.9415025
11
281.3610195
21
-135.3332748
0
LINE
8
0
10
278.9275408
20
-138.8086426
11
258.6843611
21
-142.3780614
0
LINE
8
0
10
255.2408655
20
-140.1009088
11
253.7532425
21
-133.681536
0
LINE
8
0
10
250.0037793
20
-131.4750216
11
234.342764
21
-135.9657454
0
LINE
8
0
10
232.282909
20
-139.6659709
11
237.3297945
21
-157.5107313
0
LINE
8
0
10
235.8588047
20
-160.9720866
11
184.82244
21
-188.2909765
0
LINE
8
0
10
181.4170281
20
-187.8913577
11
165.2205257
21
-173.5390771
0
LINE
8
0
10
161.2412567
20
-173.5390771
11
145.0447543
21
-187.8913577
0
LINE
8
0
10
141.6393424
20
-188.2909765
11
90.6029777
21
-160.9720866
0
LINE
8
0
10
89.1319879
20
-157.5107313
11
94.1788734
21
-139.6659709
0
LINE
8
0
10
92.1190184
20
-135.9657454
11
76.4580031
21
-131.4750216
0
LINE
8
0
10
72.7085399
20
-133.681536
11
71.2209169
21
-140.1009088
0
LINE
8
0
10
67.7774213
20
-142.3780614
11
47.5342416
21
-138.8086426
0
ARC
8
0
10
57.2932692
20
-83.462447
40
3
50
79.9999992
51
169.9999992
0
ARC
8
0
10
76.0797378
20
-80.6824486
40
3
50
259.9999992
51
344.8480019
0
ARC
8
0
10
83.8031004
20
-75.1163659
40
3
50
73.9999976
51
164.8480019
0
ARC
8
0
10
101.6252699
20
-73.9849941
40
3
50
253.9999976
51
339.9550599
0
ARC
8
0
10
108.302517
20
-73.1891923
40
3
50
70.0000019
51
159.9550599
0
ARC
8
0
10
126.7102429
20
-79.8890566
40
3
50
341.2889366
51
70.0000019
0
ARC
8
0
10
131.7524613
20
-83.7054124
40
3
50
161.2889366
51
252.6408252
0
ARC
8
0
10
163.2308912
20
-93.5455269
40
3
50
252.6408252
51
287.3591748
0
ARC
8
0
10
194.7093211
20
-83.7054124
40
3
50
287.3591748
51
18.7110634
0
ARC
8
0
10
199.7830179
20
-79.9819966
40
3
50
108.1147676
51
198.7110634
0
ARC
8
0
10
218.4135264
20
-73.8872918
40
3
50
20.0496619
51
108.1147676
0
ARC
8
0
10
224.8362904
20
-73.9850578
40
3
50
200.0496619
51
286.0000024
0
ARC
8
0
10
242.658682
20
-75.1163659
40
3
50
15.1519981
51
106.0000024
0
ARC
8
0
10
250.3820446
20
-80.6824486
40
3
50
195.1519981
51
280.0000008
0
ARC
8
0
10
269.1685132
20
-83.462447
40
3
50
10.0000008
51
100.0000008
0
ARC
8
0
10
278.4065963
20
-135.8542193
40
3
50
280.0000008
51
10.0000008
0
ARC
8
0
10
258.1634165
20
-139.4236381
40
3
50
193.0473902
51
280.0000008
0
ARC
8
0
10
250.8306915
20
-134.3588066
40
3
50
13.0473902
51
106.0000024
0
ARC
8
0
10
235.1696762
20
-138.8495305
40
3
50
106.0000024
51
195.7920547
0
ARC
8
0
10
234.4430273
20
-158.3271717
40
3
50
298.1593764
51
15.7920547
0
ARC
8
0
10
183.4066627
20
-185.6460617
40
3
50
228.4547364
51
298.1593764
0
ARC
8
0
10
163.2308912
20
-175.7843732
40
3
50
48.4547364
51
131.5452636
0
ARC
8
0
10
143.0551197
20
-185.6460617
40
3
50
241.8406236
51
311.5452636
0
ARC
8
0
10
92.0187551
20
-158.3271717
40
3
50
164.2079453
51
241.8406236
0
ARC
8
0
10
91.2921062
20
-138.8495305
40
3
50
344.2079453
51
73.9999976
0
ARC
8
0
10
75.6310909
20
-134.3588066
40
3
50
73.9999976
51
166.9526098
0
ARC
8
0
10
68.2983659
20
-139.4236381
40
3
50
259.9999992
51
346.9526098
0
ARC
8
0
10
48.0551861
20
-135.8542193
40
3
50
169.9999992
51
259.9999992
0
ENDSEC
0
EOF