<?xml version="1.0"?>
<svg
  xmlns="http://www.w3.org/2000/svg"
  xmlns:xlink="http://www.w3.org/1999/xlink" version="1.1"
  preserveAspectRatio="xMinYMin meet"
  viewBox="45.0551861 70.1891923 236.35141019999998 118.45686939999999"
  width="100%" height="100%"
>
  <g stroke="#000000" stroke-width="0.1%" fill="none" transform="matrix(1,0,0,-1,0,0)">
    <g stroke="rgb(0, 0, 0)"><path d="M45.1007629,-135.3332748L54.338846,-82.9415025" /></g>
<g stroke="rgb(0, 0, 0)"><path d="M57.8142138,-80.5080237L75.5587932,-83.6368719" /></g>
<g stroke="rgb(0, 0, 0)"><path d="M78.9754452,-81.4665904L80.907393,-74.3322241" /></g>
<g stroke="rgb(0, 0, 0)"><path d="M84.6300126,-72.2325808L100.7983577,-76.8687792" /></g>
<g stroke="rgb(0, 0, 0)"><path d="M104.4435421,-75.0132653L105.4842448,-72.1609211" /></g>
<g stroke="rgb(0, 0, 0)"><path d="M109.3285773,-70.3701144L127.7363033,-77.0699787" /></g>
<g stroke="rgb(0, 0, 0)"><path d="M129.551688,-80.8514443L128.9110162,-82.7430248" /></g>
<g stroke="rgb(0, 0, 0)"><path d="M130.857379,-86.5687719L162.3358088,-96.4088864" /></g>
<g stroke="rgb(0, 0, 0)"><path d="M164.1259736,-96.4088864L195.6044034,-86.5687719" /></g>
<g stroke="rgb(0, 0, 0)"><path d="M197.5507662,-82.7430248L196.9415728,-80.9443842" /></g>
<g stroke="rgb(0, 0, 0)"><path d="M198.8502537,-77.1306897L217.4807622,-71.035985" /></g>
<g stroke="rgb(0, 0, 0)"><path d="M221.2317138,-72.8587883L222.0181029,-75.0135613" /></g>
<g stroke="rgb(0, 0, 0)"><path d="M225.6632026,-76.8688429L241.8317698,-72.2325808" /></g>
<g stroke="rgb(0, 0, 0)"><path d="M245.5543894,-74.3322241L247.4863372,-81.4665904" /></g>
<g stroke="rgb(0, 0, 0)"><path d="M250.9029892,-83.6368719L268.6475686,-80.5080237" /></g>
<g stroke="rgb(0, 0, 0)"><path d="M272.1229364,-82.9415025L281.3610195,-135.3332748" /></g>
<g stroke="rgb(0, 0, 0)"><path d="M278.9275408,-138.8086426L258.6843611,-142.3780614" /></g>
<g stroke="rgb(0, 0, 0)"><path d="M255.2408655,-140.1009088L253.7532425,-133.681536" /></g>
<g stroke="rgb(0, 0, 0)"><path d="M250.0037793,-131.4750216L234.342764,-135.9657454" /></g>
<g stroke="rgb(0, 0, 0)"><path d="M232.282909,-139.6659709L237.3297945,-157.5107313" /></g>
<g stroke="rgb(0, 0, 0)"><path d="M235.8588047,-160.9720866L184.82244,-188.2909765" /></g>
<g stroke="rgb(0, 0, 0)"><path d="M181.4170281,-187.8913577L165.2205257,-173.5390771" /></g>
<g stroke="rgb(0, 0, 0)"><path d="M161.2412567,-173.5390771L145.0447543,-187.8913577" /></g>
<g stroke="rgb(0, 0, 0)"><path d="M141.6393424,-188.2909765L90.6029777,-160.9720866" /></g>
<g stroke="rgb(0, 0, 0)"><path d="M89.1319879,-157.5107313L94.1788734,-139.6659709" /></g>
<g stroke="rgb(0, 0, 0)"><path d="M92.1190184,-135.9657454L76.4580031,-131.4750216" /></g>
<g stroke="rgb(0, 0, 0)"><path d="M72.7085399,-133.681536L71.2209169,-140.1009088" /></g>
<g stroke="rgb(0, 0, 0)"><path d="M67.7774213,-142.3780614L47.5342416,-138.8086426" /></g>
<g stroke="rgb(0, 0, 0)"><path d="M 57.814213774252316 -80.50802374823714 A 3 3 0 0 1 54.33884594823713 -82.94150242574767" /></g>
<g stroke="rgb(0, 0, 0)"><path d="M 75.55879322574768 -83.63687185176286 A 3 3 0 0 1 78.97544524669237 -81.46659041317561" /></g>
<g stroke="rgb(0, 0, 0)"><path d="M 84.63001258824671 -72.23258084682266 A 3 3 0 0 1 80.90739295330764 -74.3322240868244" /></g>
<g stroke="rgb(0, 0, 0)"><path d="M 100.7983577117533 -76.86877915317734 A 3 3 0 0 1 104.44354210199893 -75.01326536549375" /></g>
<g stroke="rgb(0, 0, 0)"><path d="M 109.32857733649284 -70.37011440361682 A 3 3 0 0 1 105.48424479800107 -72.16092103450625" /></g>
<g stroke="rgb(0, 0, 0)"><path d="M 129.55168795612607 -80.85144425215307 A 3 3 0 0 1 127.73630323649284 -77.06997870361683" /></g>
<g stroke="rgb(0, 0, 0)"><path d="M 128.91101624387392 -82.74302474784693 A 3 3 0 0 1 130.85737893728225 -86.56877188912316" /></g>
<g stroke="rgb(0, 0, 0)"><path d="M 162.33580883728226 -96.40888638912315 A 3 3 0 0 1 164.12597356271775 -96.40888638912315" /></g>
<g stroke="rgb(0, 0, 0)"><path d="M 195.60440346271776 -86.56877188912316 A 3 3 0 0 1 197.5507661561261 -82.74302474784693" /></g>
<g stroke="rgb(0, 0, 0)"><path d="M 198.85025367505355 -77.13068972408152 A 3 3 0 0 1 196.94157284387393 -80.94438425215307" /></g>
<g stroke="rgb(0, 0, 0)"><path d="M 221.23171385161012 -72.8587882814901 A 3 3 0 0 1 217.48076217505354 -71.03598492408152" /></g>
<g stroke="rgb(0, 0, 0)"><path d="M 222.01810294838987 -75.0135613185099 A 3 3 0 0 1 225.6632025882467 -76.86884285317736" /></g>
<g stroke="rgb(0, 0, 0)"><path d="M 245.55438944669237 -74.3322240868244 A 3 3 0 0 1 241.8317698117533 -72.23258084682266" /></g>
<g stroke="rgb(0, 0, 0)"><path d="M 247.48633715330763 -81.46659041317561 A 3 3 0 0 1 250.90298917425233 -83.63687185176286" /></g>
<g stroke="rgb(0, 0, 0)"><path d="M 272.1229364517629 -82.94150242574767 A 3 3 0 0 1 268.6475686257477 -80.50802374823714" /></g>
<g stroke="rgb(0, 0, 0)"><path d="M 278.9275408742523 -138.8086425517629 A 3 3 0 0 1 281.36101955176287 -135.33327472574769" /></g>
<g stroke="rgb(0, 0, 0)"><path d="M 255.24086548664815 -140.10090878027208 A 3 3 0 0 1 258.6843610742523 -142.37806135176288" /></g>
<g stroke="rgb(0, 0, 0)"><path d="M 253.75324251335184 -133.68153591972793 A 3 3 0 0 1 250.0037793117533 -131.47502154682266" /></g>
<g stroke="rgb(0, 0, 0)"><path d="M 234.3427640117533 -135.96574544682264 A 3 3 0 0 1 232.2829089745181 -139.66597093621294" /></g>
<g stroke="rgb(0, 0, 0)"><path d="M 235.85880466481632 -160.97208652911527 A 3 3 0 0 1 237.3297945254819 -157.51073126378705" /></g>
<g stroke="rgb(0, 0, 0)"><path d="M 181.41702815337004 -187.8913577541667 A 3 3 0 0 1 184.8224400648163 -188.29097652911526" /></g>
<g stroke="rgb(0, 0, 0)"><path d="M 165.22052574662996 -173.5390771458333 A 3 3 0 0 1 161.24125665337004 -173.5390771458333" /></g>
<g stroke="rgb(0, 0, 0)"><path d="M 141.6393423351837 -188.29097652911526 A 3 3 0 0 1 145.04475424662996 -187.8913577541667" /></g>
<g stroke="rgb(0, 0, 0)"><path d="M 89.13198787451812 -157.51073126378705 A 3 3 0 0 1 90.6029777351837 -160.97208652911527" /></g>
<g stroke="rgb(0, 0, 0)"><path d="M 94.1788734254819 -139.66597093621294 A 3 3 0 0 1 92.11901838824672 -135.96574544682264" /></g>
<g stroke="rgb(0, 0, 0)"><path d="M 76.45800308824671 -131.47502154682266 A 3 3 0 0 1 72.70853988664817 -133.68153591972793" /></g>
<g stroke="rgb(0, 0, 0)"><path d="M 67.77742132574767 -142.37806135176288 A 3 3 0 0 1 71.22091691335183 -140.10090878027208" /></g>
<g stroke="rgb(0, 0, 0)"><path d="M 45.10076284823713 -135.33327472574769 A 3 3 0 0 1 47.53424152574768 -138.8086425517629" /></g>
<g stroke="rgb(0, 0, 0)"><path d="M49.7175824,-134.7765188L66.9517181,-137.8153619" /></g>
<g stroke="rgb(0, 0, 0)"><path d="M66.9517181,-137.8153619L69.816913,-121.566034" /></g>
<g stroke="rgb(0, 0, 0)"><path d="M69.816913,-121.566034L52.5827773,-118.5271909" /></g>
<g stroke="rgb(0, 0, 0)"><path d="M52.5827773,-118.5271909L49.7175824,-134.7765188" /></g>
<g stroke="rgb(0, 0, 0)"><path d="M52.6696015,-118.034787L69.9037372,-121.0736301" /></g>
<g stroke="rgb(0, 0, 0)"><path d="M69.9037372,-121.0736301L72.7689321,-104.8243022" /></g>
<g stroke="rgb(0, 0, 0)"><path d="M72.7689321,-104.8243022L55.5347964,-101.7854591" /></g>
<g stroke="rgb(0, 0, 0)"><path d="M55.5347964,-101.7854591L52.6696015,-118.034787" /></g>
<g stroke="rgb(0, 0, 0)"><path d="M55.6216205,-101.2930552L72.8557562,-104.3318983" /></g>
<g stroke="rgb(0, 0, 0)"><path d="M72.8557562,-104.3318983L75.7209511,-88.0825704" /></g>
<g stroke="rgb(0, 0, 0)"><path d="M75.7209511,-88.0825704L58.4868154,-85.0437273" /></g>
<g stroke="rgb(0, 0, 0)"><path d="M58.4868154,-85.0437273L55.6216205,-101.2930552" /></g>
<g stroke="rgb(0, 0, 0)"><path d="M70.8621329,-125.345129L87.6842126,-130.1687828" /></g>
<g stroke="rgb(0, 0, 0)"><path d="M87.6842126,-130.1687828L92.2322289,-114.3079648" /></g>
<g stroke="rgb(0, 0, 0)"><path d="M92.2322289,-114.3079648L75.4101492,-109.484311" /></g>
<g stroke="rgb(0, 0, 0)"><path d="M75.4101492,-109.484311L70.8621329,-125.345129" /></g>
<g stroke="rgb(0, 0, 0)"><path d="M75.5479679,-109.0036801L92.3700476,-113.8273339" /></g>
<g stroke="rgb(0, 0, 0)"><path d="M92.3700476,-113.8273339L96.9180639,-97.9665159" /></g>
<g stroke="rgb(0, 0, 0)"><path d="M96.9180639,-97.9665159L80.0959842,-93.1428621" /></g>
<g stroke="rgb(0, 0, 0)"><path d="M80.0959842,-93.1428621L75.5479679,-109.0036801" /></g>
<g stroke="rgb(0, 0, 0)"><path d="M80.233803,-92.6622312L97.0558827,-97.485885" /></g>
<g stroke="rgb(0, 0, 0)"><path d="M97.0558827,-97.485885L101.603899,-81.625067" /></g>
<g stroke="rgb(0, 0, 0)"><path d="M101.603899,-81.625067L84.7818193,-76.8014132" /></g>
<g stroke="rgb(0, 0, 0)"><path d="M84.7818193,-76.8014132L80.233803,-92.6622312" /></g>
<g stroke="rgb(0, 0, 0)"><path d="M91.9335372,-122.4089884L108.378158,-128.3943409" /></g>
<g stroke="rgb(0, 0, 0)"><path d="M108.378158,-128.3943409L114.0214904,-112.8894126" /></g>
<g stroke="rgb(0, 0, 0)"><path d="M114.0214904,-112.8894126L97.5768696,-106.9040601" /></g>
<g stroke="rgb(0, 0, 0)"><path d="M97.5768696,-106.9040601L91.9335372,-122.4089884" /></g>
<g stroke="rgb(0, 0, 0)"><path d="M97.7478796,-106.4342138L114.1925004,-112.4195663" /></g>
<g stroke="rgb(0, 0, 0)"><path d="M114.1925004,-112.4195663L119.8358328,-96.914638" /></g>
<g stroke="rgb(0, 0, 0)"><path d="M119.8358328,-96.914638L103.391212,-90.9292855" /></g>
<g stroke="rgb(0, 0, 0)"><path d="M103.391212,-90.9292855L97.7478796,-106.4342138" /></g>
<g stroke="rgb(0, 0, 0)"><path d="M103.562222,-90.4594393L120.0068428,-96.4447918" /></g>
<g stroke="rgb(0, 0, 0)"><path d="M120.0068428,-96.4447918L125.6501752,-80.9398635" /></g>
<g stroke="rgb(0, 0, 0)"><path d="M125.6501752,-80.9398635L109.2055544,-74.954511" /></g>
<g stroke="rgb(0, 0, 0)"><path d="M109.2055544,-74.954511L103.562222,-90.4594393" /></g>
<g stroke="rgb(0, 0, 0)"><path d="M106.1118431,-136.0828919L122.5564639,-142.0682444" /></g>
<g stroke="rgb(0, 0, 0)"><path d="M122.5564639,-142.0682444L128.1997963,-126.5633161" /></g>
<g stroke="rgb(0, 0, 0)"><path d="M128.1997963,-126.5633161L111.7551755,-120.5779636" /></g>
<g stroke="rgb(0, 0, 0)"><path d="M111.7551755,-120.5779636L106.1118431,-136.0828919" /></g>
<g stroke="rgb(0, 0, 0)"><path d="M111.9261855,-120.1081173L128.3708063,-126.0934698" /></g>
<g stroke="rgb(0, 0, 0)"><path d="M128.3708063,-126.0934698L134.0141387,-110.5885415" /></g>
<g stroke="rgb(0, 0, 0)"><path d="M134.0141387,-110.5885415L117.5695179,-104.603189" /></g>
<g stroke="rgb(0, 0, 0)"><path d="M117.5695179,-104.603189L111.9261855,-120.1081173" /></g>
<g stroke="rgb(0, 0, 0)"><path d="M117.740528,-104.1333428L134.1851488,-110.1186953" /></g>
<g stroke="rgb(0, 0, 0)"><path d="M134.1851488,-110.1186953L139.8284812,-94.613767" /></g>
<g stroke="rgb(0, 0, 0)"><path d="M139.8284812,-94.613767L123.3838604,-88.6284145" /></g>
<g stroke="rgb(0, 0, 0)"><path d="M123.3838604,-88.6284145L117.740528,-104.1333428" /></g>
<g stroke="rgb(0, 0, 0)"><path d="M121.6582297,-145.9980249L138.1028505,-151.9833774" /></g>
<g stroke="rgb(0, 0, 0)"><path d="M138.1028505,-151.9833774L143.7461829,-136.4784491" /></g>
<g stroke="rgb(0, 0, 0)"><path d="M143.7461829,-136.4784491L127.3015621,-130.4930966" /></g>
<g stroke="rgb(0, 0, 0)"><path d="M127.3015621,-130.4930966L121.6582297,-145.9980249" /></g>
<g stroke="rgb(0, 0, 0)"><path d="M127.4725721,-130.0232504L143.9171929,-136.0086029" /></g>
<g stroke="rgb(0, 0, 0)"><path d="M143.9171929,-136.0086029L149.5605253,-120.5036746" /></g>
<g stroke="rgb(0, 0, 0)"><path d="M149.5605253,-120.5036746L133.1159045,-114.5183221" /></g>
<g stroke="rgb(0, 0, 0)"><path d="M133.1159045,-114.5183221L127.4725721,-130.0232504" /></g>
<g stroke="rgb(0, 0, 0)"><path d="M133.2869146,-114.0484758L149.7315354,-120.0338283" /></g>
<g stroke="rgb(0, 0, 0)"><path d="M149.7315354,-120.0338283L155.3748678,-104.5289" /></g>
<g stroke="rgb(0, 0, 0)"><path d="M155.3748678,-104.5289L138.930247,-98.5435475" /></g>
<g stroke="rgb(0, 0, 0)"><path d="M138.930247,-98.5435475L133.2869146,-114.0484758" /></g>
<g stroke="rgb(0, 0, 0)"><path d="M94.1445893,-157.2674342L110.5892101,-163.2527867" /></g>
<g stroke="rgb(0, 0, 0)"><path d="M110.5892101,-163.2527867L116.2325425,-147.7478584" /></g>
<g stroke="rgb(0, 0, 0)"><path d="M116.2325425,-147.7478584L99.7879217,-141.7625059" /></g>
<g stroke="rgb(0, 0, 0)"><path d="M99.7879217,-141.7625059L94.1445893,-157.2674342" /></g>
<g stroke="rgb(0, 0, 0)"><path d="M111.9607431,-163.9064946L126.2959039,-173.9440823" /></g>
<g stroke="rgb(0, 0, 0)"><path d="M126.2959039,-173.9440823L135.7599151,-160.4280736" /></g>
<g stroke="rgb(0, 0, 0)"><path d="M135.7599151,-160.4280736L121.4247543,-150.3904859" /></g>
<g stroke="rgb(0, 0, 0)"><path d="M121.4247543,-150.3904859L111.9607431,-163.9064946" /></g>
<g stroke="rgb(0, 0, 0)"><path d="M130.2936486,-171.4224398L142.6680173,-183.7968085" /></g>
<g stroke="rgb(0, 0, 0)"><path d="M142.6680173,-183.7968085L154.3352792,-172.1295466" /></g>
<g stroke="rgb(0, 0, 0)"><path d="M154.3352792,-172.1295466L141.9609105,-159.7551779" /></g>
<g stroke="rgb(0, 0, 0)"><path d="M141.9609105,-159.7551779L130.2936486,-171.4224398" /></g>
<g stroke="rgb(0, 0, 0)"><path d="M259.5100643,-137.8153619L276.7442,-134.7765188" /></g>
<g stroke="rgb(0, 0, 0)"><path d="M276.7442,-134.7765188L273.8790051,-118.5271909" /></g>
<g stroke="rgb(0, 0, 0)"><path d="M273.8790051,-118.5271909L256.6448694,-121.566034" /></g>
<g stroke="rgb(0, 0, 0)"><path d="M256.6448694,-121.566034L259.5100643,-137.8153619" /></g>
<g stroke="rgb(0, 0, 0)"><path d="M256.5580452,-121.0736301L273.7921809,-118.034787" /></g>
<g stroke="rgb(0, 0, 0)"><path d="M273.7921809,-118.034787L270.926986,-101.7854591" /></g>
<g stroke="rgb(0, 0, 0)"><path d="M270.926986,-101.7854591L253.6928503,-104.8243022" /></g>
<g stroke="rgb(0, 0, 0)"><path d="M253.6928503,-104.8243022L256.5580452,-121.0736301" /></g>
<g stroke="rgb(0, 0, 0)"><path d="M253.6060262,-104.3318983L270.8401619,-101.2930552" /></g>
<g stroke="rgb(0, 0, 0)"><path d="M270.8401619,-101.2930552L267.974967,-85.0437273" /></g>
<g stroke="rgb(0, 0, 0)"><path d="M267.974967,-85.0437273L250.7408313,-88.0825704" /></g>
<g stroke="rgb(0, 0, 0)"><path d="M250.7408313,-88.0825704L253.6060262,-104.3318983" /></g>
<g stroke="rgb(0, 0, 0)"><path d="M238.7775698,-130.1687828L255.5996495,-125.345129" /></g>
<g stroke="rgb(0, 0, 0)"><path d="M255.5996495,-125.345129L251.0516332,-109.484311" /></g>
<g stroke="rgb(0, 0, 0)"><path d="M251.0516332,-109.484311L234.2295535,-114.3079648" /></g>
<g stroke="rgb(0, 0, 0)"><path d="M234.2295535,-114.3079648L238.7775698,-130.1687828" /></g>
<g stroke="rgb(0, 0, 0)"><path d="M234.0917348,-113.8273339L250.9138145,-109.0036801" /></g>
<g stroke="rgb(0, 0, 0)"><path d="M250.9138145,-109.0036801L246.3657982,-93.1428621" /></g>
<g stroke="rgb(0, 0, 0)"><path d="M246.3657982,-93.1428621L229.5437185,-97.9665159" /></g>
<g stroke="rgb(0, 0, 0)"><path d="M229.5437185,-97.9665159L234.0917348,-113.8273339" /></g>
<g stroke="rgb(0, 0, 0)"><path d="M229.4058997,-97.485885L246.2279794,-92.6622312" /></g>
<g stroke="rgb(0, 0, 0)"><path d="M246.2279794,-92.6622312L241.6799631,-76.8014132" /></g>
<g stroke="rgb(0, 0, 0)"><path d="M241.6799631,-76.8014132L224.8578834,-81.625067" /></g>
<g stroke="rgb(0, 0, 0)"><path d="M224.8578834,-81.625067L229.4058997,-97.485885" /></g>
<g stroke="rgb(0, 0, 0)"><path d="M218.0836244,-128.3943409L234.5282452,-122.4089884" /></g>
<g stroke="rgb(0, 0, 0)"><path d="M234.5282452,-122.4089884L228.8849128,-106.9040601" /></g>
<g stroke="rgb(0, 0, 0)"><path d="M228.8849128,-106.9040601L212.440292,-112.8894126" /></g>
<g stroke="rgb(0, 0, 0)"><path d="M212.440292,-112.8894126L218.0836244,-128.3943409" /></g>
<g stroke="rgb(0, 0, 0)"><path d="M212.269282,-112.4195663L228.7139028,-106.4342138" /></g>
<g stroke="rgb(0, 0, 0)"><path d="M228.7139028,-106.4342138L223.0705704,-90.9292855" /></g>
<g stroke="rgb(0, 0, 0)"><path d="M223.0705704,-90.9292855L206.6259496,-96.914638" /></g>
<g stroke="rgb(0, 0, 0)"><path d="M206.6259496,-96.914638L212.269282,-112.4195663" /></g>
<g stroke="rgb(0, 0, 0)"><path d="M206.4549396,-96.4447918L222.8995604,-90.4594393" /></g>
<g stroke="rgb(0, 0, 0)"><path d="M222.8995604,-90.4594393L217.256228,-74.954511" /></g>
<g stroke="rgb(0, 0, 0)"><path d="M217.256228,-74.954511L200.8116072,-80.9398635" /></g>
<g stroke="rgb(0, 0, 0)"><path d="M200.8116072,-80.9398635L206.4549396,-96.4447918" /></g>
<g stroke="rgb(0, 0, 0)"><path d="M203.9053185,-142.0682444L220.3499393,-136.0828919" /></g>
<g stroke="rgb(0, 0, 0)"><path d="M220.3499393,-136.0828919L214.7066069,-120.5779636" /></g>
<g stroke="rgb(0, 0, 0)"><path d="M214.7066069,-120.5779636L198.2619861,-126.5633161" /></g>
<g stroke="rgb(0, 0, 0)"><path d="M198.2619861,-126.5633161L203.9053185,-142.0682444" /></g>
<g stroke="rgb(0, 0, 0)"><path d="M198.0909761,-126.0934698L214.5355969,-120.1081173" /></g>
<g stroke="rgb(0, 0, 0)"><path d="M214.5355969,-120.1081173L208.8922645,-104.603189" /></g>
<g stroke="rgb(0, 0, 0)"><path d="M208.8922645,-104.603189L192.4476437,-110.5885415" /></g>
<g stroke="rgb(0, 0, 0)"><path d="M192.4476437,-110.5885415L198.0909761,-126.0934698" /></g>
<g stroke="rgb(0, 0, 0)"><path d="M192.2766336,-110.1186953L208.7212544,-104.1333428" /></g>
<g stroke="rgb(0, 0, 0)"><path d="M208.7212544,-104.1333428L203.077922,-88.6284145" /></g>
<g stroke="rgb(0, 0, 0)"><path d="M203.077922,-88.6284145L186.6333012,-94.613767" /></g>
<g stroke="rgb(0, 0, 0)"><path d="M186.6333012,-94.613767L192.2766336,-110.1186953" /></g>
<g stroke="rgb(0, 0, 0)"><path d="M188.3589319,-151.9833774L204.8035527,-145.9980249" /></g>
<g stroke="rgb(0, 0, 0)"><path d="M204.8035527,-145.9980249L199.1602203,-130.4930966" /></g>
<g stroke="rgb(0, 0, 0)"><path d="M199.1602203,-130.4930966L182.7155995,-136.4784491" /></g>
<g stroke="rgb(0, 0, 0)"><path d="M182.7155995,-136.4784491L188.3589319,-151.9833774" /></g>
<g stroke="rgb(0, 0, 0)"><path d="M182.5445895,-136.0086029L198.9892103,-130.0232504" /></g>
<g stroke="rgb(0, 0, 0)"><path d="M198.9892103,-130.0232504L193.3458779,-114.5183221" /></g>
<g stroke="rgb(0, 0, 0)"><path d="M193.3458779,-114.5183221L176.9012571,-120.5036746" /></g>
<g stroke="rgb(0, 0, 0)"><path d="M176.9012571,-120.5036746L182.5445895,-136.0086029" /></g>
<g stroke="rgb(0, 0, 0)"><path d="M176.730247,-120.0338283L193.1748678,-114.0484758" /></g>
<g stroke="rgb(0, 0, 0)"><path d="M193.1748678,-114.0484758L187.5315354,-98.5435475" /></g>
<g stroke="rgb(0, 0, 0)"><path d="M187.5315354,-98.5435475L171.0869146,-104.5289" /></g>
<g stroke="rgb(0, 0, 0)"><path d="M171.0869146,-104.5289L176.730247,-120.0338283" /></g>
<g stroke="rgb(0, 0, 0)"><path d="M215.8725723,-163.2527867L232.3171931,-157.2674342" /></g>
<g stroke="rgb(0, 0, 0)"><path d="M232.3171931,-157.2674342L226.6738607,-141.7625059" /></g>
<g stroke="rgb(0, 0, 0)"><path d="M226.6738607,-141.7625059L210.2292399,-147.7478584" /></g>
<g stroke="rgb(0, 0, 0)"><path d="M210.2292399,-147.7478584L215.8725723,-163.2527867" /></g>
<g stroke="rgb(0, 0, 0)"><path d="M200.1658785,-173.9440823L214.5010393,-163.9064946" /></g>
<g stroke="rgb(0, 0, 0)"><path d="M214.5010393,-163.9064946L205.0370281,-150.3904859" /></g>
<g stroke="rgb(0, 0, 0)"><path d="M205.0370281,-150.3904859L190.7018673,-160.4280736" /></g>
<g stroke="rgb(0, 0, 0)"><path d="M190.7018673,-160.4280736L200.1658785,-173.9440823" /></g>
<g stroke="rgb(0, 0, 0)"><path d="M183.7937651,-183.7968085L196.1681338,-171.4224398" /></g>
<g stroke="rgb(0, 0, 0)"><path d="M196.1681338,-171.4224398L184.5008719,-159.7551779" /></g>
<g stroke="rgb(0, 0, 0)"><path d="M184.5008719,-159.7551779L172.1265032,-172.1295466" /></g>
<g stroke="rgb(0, 0, 0)"><path d="M172.1265032,-172.1295466L183.7937651,-183.7968085" /></g>
<g stroke="rgb(0, 0, 0)"><circle cx="78.2406529" cy="-86.7498652" r="2.5" /></g>
<g stroke="rgb(0, 0, 0)"><circle cx="98.3260399" cy="-130.4290201" r="2.5" /></g>
<g stroke="rgb(0, 0, 0)"><circle cx="128.8794351" cy="-177.5742688" r="2.5" /></g>
<g stroke="rgb(0, 0, 0)"><circle cx="163.2308912" cy="-104.1886879" r="2.5" /></g>
<g stroke="rgb(0, 0, 0)"><circle cx="248.2211295" cy="-86.7498652" r="2.5" /></g>
<g stroke="rgb(0, 0, 0)"><circle cx="228.1357425" cy="-130.4290201" r="2.5" /></g>
<g stroke="rgb(0, 0, 0)"><circle cx="197.5823473" cy="-177.5742688" r="2.5" /></g>
  </g>
</svg>