0
SECTION
2
HEADER
9
$INSUNITS
70
4
0
ENDSEC
0
SECTION
2
TABLES
0
TABLE
2
LTYPE
0
LTYPE
72
65
70
64
2
CONTINUOUS
3
______
73
0
40
0
0
ENDTAB
0
TABLE
2
LAYER
0
ENDTAB
0
ENDSEC
0
SECTION
2
ENTITIES
0
LINE
8
0
10
45.1007629
20
-135.3332748
11
54.338846
21
-82.9415025
0
LINE
8
0
10
57.8142138
20
-80.5080237
11
75.5587932
21
-83.6368719
0
LINE
8
0
10
78.9754452
20
-81.4665904
11
80.907393
21
-74.3322241
0
LINE
8
0
10
84.6300126
20
-72.2325808
11
100.7983577
21
-76.8687792
0
LINE
8
0
10
104.4435421
20
-75.0132653
11
105.4842448
21
-72.1609211
0
LINE
8
0
10
109.3285773
20
-70.3701144
11
127.7363033
21
-77.0699787
0
LINE
8
0
10
129.551688
20
-80.8514443
11
128.9110162
21
-82.7430248
0
LINE
8
0
10
130.857379
20
-86.5687719
11
162.3358088
21
-96.4088864
0
LINE
8
0
10
164.1259736
20
-96.4088864
11
195.6044034
21
-86.5687719
0
LINE
8
0
10
197.5507662
20
-82.7430248
11
196.9415728
21
-80.9443842
0
LINE
8
0
10
198.8502537
20
-77.1306897
11
217.4807622
21
-71.035985
0
LINE
8
0
10
221.2317138
20
-72.8587883
11
222.0181029
21
-75.0135613
0
LINE
8
0
10
225.6632026
20
-76.8688429
11
241.8317698
21
-72.2325808
0
LINE
8
0
10
245.5543894
20
-74.3322241
11
247.4863372
21
-81.4665904
0
LINE
8
0
10
250.9029892
20
-83.6368719
11
268.6475686
21
-80.5080237
0
LINE
8
0
10
272.1229364
20
-82.9415025
11
281.3610195
21
-135.3332748
0
LINE
8
0
10
278.9275408
20
-138.8086426
11
258.6843611
21
-142.3780614
0
LINE
8
0
10
255.2408655
20
-140.1009088
11
253.7532425
21
-133.681536
0
LINE
8
0
10
250.0037793
20
-131.4750216
11
234.342764
21
-135.9657454
0
LINE
8
0
10
232.282909
20
-139.6659709
11
237.3297945
21
-157.5107313
0
LINE
8
0
10
235.8588047
20
-160.9720866
11
184.82244
21
-188.2909765
0
LINE
8
0
10
181.4170281
20
-187.8913577
11
165.2205257
21
-173.5390771
0
LINE
8
0
10
161.2412567
20
-173.5390771
11
145.0447543
21
-187.8913577
0
LINE
8
0
10
141.6393424
20
-188.2909765
11
90.6029777
21
-160.9720866
0
LINE
8
0
10
89.1319879
20
-157.5107313
11
94.1788734
21
-139.6659709
0
LINE
8
0
10
92.1190184
20
-135.9657454
11
76.4580031
21
-131.4750216
0
LINE
8
0
10
72.7085399
20
-133.681536
11
71.2209169
21
-140.1009088
0
LINE
8
0
10
67.7774213
20
-142.3780614
11
47.5342416
21
-138.8086426
0
ARC
8
0
10
57.2932692
20
-83.462447
40
3
50
79.9999992
51
169.9999992
0
ARC
8
0
10
76.0797378
20
-80.6824486
40
3
50
259.9999992
51
344.8480019
0
ARC
8
0
10
83.8031004
20
-75.1163659
40
3
50
73.9999976
51
164.8480019
0
ARC
8
0
10
101.6252699
20
-73.9849941
40
3
50
253.9999976
51
339.9550599
0
ARC
8
0
10
108.302517
20
-73.1891923
40
3
50
70.0000019
51
159.9550599
0
ARC
8
0
10
126.7102429
20
-79.8890566
40
3
50
341.2889366
51
70.0000019
0
ARC
8
0
10
131.7524613
20
-83.7054124
40
3
50
161.2889366
51
252.6408252
0
ARC
8
0
10
163.2308912
20
-93.5455269
40
3
50
252.6408252
51
287.3591748
0
ARC
8
0
10
194.7093211
20
-83.7054124
40
3
50
287.3591748
51
18.7110634
0
ARC
8
0
10
199.7830179
20
-79.9819966
40
3
50
108.1147676
51
198.7110634
0
ARC
8
0
10
218.4135264
20
-73.8872918
40
3
50
20.0496619
51
108.1147676
0
ARC
8
0
10
224.8362904
20
-73.9850578
40
3
50
200.0496619
51
286.0000024
0
ARC
8
0
10
242.658682
20
-75.1163659
40
3
50
15.1519981
51
106.0000024
0
ARC
8
0
10
250.3820446
20
-80.6824486
40
3
50
195.1519981
51
280.0000008
0
ARC
8
0
10
269.1685132
20
-83.462447
40
3
50
10.0000008
51
100.0000008
0
ARC
8
0
10
278.4065963
20
-135.8542193
40
3
50
280.0000008
51
10.0000008
0
ARC
8
0
10
258.1634165
20
-139.4236381
40
3
50
193.0473902
51
280.0000008
0
ARC
8
0
10
250.8306915
20
-134.3588066
40
3
50
13.0473902
51
106.0000024
0
ARC
8
0
10
235.1696762
20
-138.8495305
40
3
50
106.0000024
51
195.7920547
0
ARC
8
0
10
234.4430273
20
-158.3271717
40
3
50
298.1593764
51
15.7920547
0
ARC
8
0
10
183.4066627
20
-185.6460617
40
3
50
228.4547364
51
298.1593764
0
ARC
8
0
10
163.2308912
20
-175.7843732
40
3
50
48.4547364
51
131.5452636
0
ARC
8
0
10
143.0551197
20
-185.6460617
40
3
50
241.8406236
51
311.5452636
0
ARC
8
0
10
92.0187551
20
-158.3271717
40
3
50
164.2079453
51
241.8406236
0
ARC
8
0
10
91.2921062
20
-138.8495305
40
3
50
344.2079453
51
73.9999976
0
ARC
8
0
10
75.6310909
20
-134.3588066
40
3
50
73.9999976
51
166.9526098
0
ARC
8
0
10
68.2983659
20
-139.4236381
40
3
50
259.9999992
51
346.9526098
0
ARC
8
0
10
48.0551861
20
-135.8542193
40
3
50
169.9999992
51
259.9999992
0
LINE
8
0
10
49.7175824
20
-134.7765188
11
66.9517181
21
-137.8153619
0
LINE
8
0
10
66.9517181
20
-137.8153619
11
69.816913
21
-121.566034
0
LINE
8
0
10
69.816913
20
-121.566034
11
52.5827773
21
-118.5271909
0
LINE
8
0
10
52.5827773
20
-118.5271909
11
49.7175824
21
-134.7765188
0
LINE
8
0
10
52.6696015
20
-118.034787
11
69.9037372
21
-121.0736301
0
LINE
8
0
10
69.9037372
20
-121.0736301
11
72.7689321
21
-104.8243022
0
LINE
8
0
10
72.7689321
20
-104.8243022
11
55.5347964
21
-101.7854591
0
LINE
8
0
10
55.5347964
20
-101.7854591
11
52.6696015
21
-118.034787
0
LINE
8
0
10
55.6216205
20
-101.2930552
11
72.8557562
21
-104.3318983
0
LINE
8
0
10
72.8557562
20
-104.3318983
11
75.7209511
21
-88.0825704
0
LINE
8
0
10
75.7209511
20
-88.0825704
11
58.4868154
21
-85.0437273
0
LINE
8
0
10
58.4868154
20
-85.0437273
11
55.6216205
21
-101.2930552
0
LINE
8
0
10
70.8621329
20
-125.345129
11
87.6842126
21
-130.1687828
0
LINE
8
0
10
87.6842126
20
-130.1687828
11
92.2322289
21
-114.3079648
0
LINE
8
0
10
92.2322289
20
-114.3079648
11
75.4101492
21
-109.484311
0
LINE
8
0
10
75.4101492
20
-109.484311
11
70.8621329
21
-125.345129
0
LINE
8
0
10
75.5479679
20
-109.0036801
11
92.3700476
21
-113.8273339
0
LINE
8
0
10
92.3700476
20
-113.8273339
11
96.9180639
21
-97.9665159
0
LINE
8
0
10
96.9180639
20
-97.9665159
11
80.0959842
21
-93.1428621
0
LINE
8
0
10
80.0959842
20
-93.1428621
11
75.5479679
21
-109.0036801
0
LINE
8
0
10
80.233803
20
-92.6622312
11
97.0558827
21
-97.485885
0
LINE
8
0
10
97.0558827
20
-97.485885
11
101.603899
21
-81.625067
0
LINE
8
0
10
101.603899
20
-81.625067
11
84.7818193
21
-76.8014132
0
LINE
8
0
10
84.7818193
20
-76.8014132
11
80.233803
21
-92.6622312
0
LINE
8
0
10
91.9335372
20
-122.4089884
11
108.378158
21
-128.3943409
0
LINE
8
0
10
108.378158
20
-128.3943409
11
114.0214904
21
-112.8894126
0
LINE
8
0
10
114.0214904
20
-112.8894126
11
97.5768696
21
-106.9040601
0
LINE
8
0
10
97.5768696
20
-106.9040601
11
91.9335372
21
-122.4089884
0
LINE
8
0
10
97.7478796
20
-106.4342138
11
114.1925004
21
-112.4195663
0
LINE
8
0
10
114.1925004
20
-112.4195663
11
119.8358328
21
-96.914638
0
LINE
8
0
10
119.8358328
20
-96.914638
11
103.391212
21
-90.9292855
0
LINE
8
0
10
103.391212
20
-90.9292855
11
97.7478796
21
-106.4342138
0
LINE
8
0
10
103.562222
20
-90.4594393
11
120.0068428
21
-96.4447918
0
LINE
8
0
10
120.0068428
20
-96.4447918
11
125.6501752
21
-80.9398635
0
LINE
8
0
10
125.6501752
20
-80.9398635
11
109.2055544
21
-74.954511
0
LINE
8
0
10
109.2055544
20
-74.954511
11
103.562222
21
-90.4594393
0
LINE
8
0
10
106.1118431
20
-136.0828919
11
122.5564639
21
-142.0682444
0
LINE
8
0
10
122.5564639
20
-142.0682444
11
128.1997963
21
-126.5633161
0
LINE
8
0
10
128.1997963
20
-126.5633161
11
111.7551755
21
-120.5779636
0
LINE
8
0
10
111.7551755
20
-120.5779636
11
106.1118431
21
-136.0828919
0
LINE
8
0
10
111.9261855
20
-120.1081173
11
128.3708063
21
-126.0934698
0
LINE
8
0
10
128.3708063
20
-126.0934698
11
134.0141387
21
-110.5885415
0
LINE
8
0
10
134.0141387
20
-110.5885415
11
117.5695179
21
-104.603189
0
LINE
8
0
10
117.5695179
20
-104.603189
11
111.9261855
21
-120.1081173
0
LINE
8
0
10
117.740528
20
-104.1333428
11
134.1851488
21
-110.1186953
0
LINE
8
0
10
134.1851488
20
-110.1186953
11
139.8284812
21
-94.613767
0
LINE
8
0
10
139.8284812
20
-94.613767
11
123.3838604
21
-88.6284145
0
LINE
8
0
10
123.3838604
20
-88.6284145
11
117.740528
21
-104.1333428
0
LINE
8
0
10
121.6582297
20
-145.9980249
11
138.1028505
21
-151.9833774
0
LINE
8
0
10
138.1028505
20
-151.9833774
11
143.7461829
21
-136.4784491
0
LINE
8
0
10
143.7461829
20
-136.4784491
11
127.3015621
21
-130.4930966
0
LINE
8
0
10
127.3015621
20
-130.4930966
11
121.6582297
21
-145.9980249
0
LINE
8
0
10
127.4725721
20
-130.0232504
11
143.9171929
21
-136.0086029
0
LINE
8
0
10
143.9171929
20
-136.0086029
11
149.5605253
21
-120.5036746
0
LINE
8
0
10
149.5605253
20
-120.5036746
11
133.1159045
21
-114.5183221
0
LINE
8
0
10
133.1159045
20
-114.5183221
11
127.4725721
21
-130.0232504
0
LINE
8
0
10
133.2869146
20
-114.0484758
11
149.7315354
21
-120.0338283
0
LINE
8
0
10
149.7315354
20
-120.0338283
11
155.3748678
21
-104.5289
0
LINE
8
0
10
155.3748678
20
-104.5289
11
138.930247
21
-98.5435475
0
LINE
8
0
10
138.930247
20
-98.5435475
11
133.2869146
21
-114.0484758
0
LINE
8
0
10
94.1445893
20
-157.2674342
11
110.5892101
21
-163.2527867
0
LINE
8
0
10
110.5892101
20
-163.2527867
11
116.2325425
21
-147.7478584
0
LINE
8
0
10
116.2325425
20
-147.7478584
11
99.7879217
21
-141.7625059
0
LINE
8
0
10
99.7879217
20
-141.7625059
11
94.1445893
21
-157.2674342
0
LINE
8
0
10
111.9607431
20
-163.9064946
11
126.2959039
21
-173.9440823
0
LINE
8
0
10
126.2959039
20
-173.9440823
11
135.7599151
21
-160.4280736
0
LINE
8
0
10
135.7599151
20
-160.4280736
11
121.4247543
21
-150.3904859
0
LINE
8
0
10
121.4247543
20
-150.3904859
11
111.9607431
21
-163.9064946
0
LINE
8
0
10
130.2936486
20
-171.4224398
11
142.6680173
21
-183.7968085
0
LINE
8
0
10
142.6680173
20
-183.7968085
11
154.3352792
21
-172.1295466
0
LINE
8
0
10
154.3352792
20
-172.1295466
11
141.9609105
21
-159.7551779
0
LINE
8
0
10
141.9609105
20
-159.7551779
11
130.2936486
21
-171.4224398
0
LINE
8
0
10
259.5100643
20
-137.8153619
11
276.7442
21
-134.7765188
0
LINE
8
0
10
276.7442
20
-134.7765188
11
273.8790051
21
-118.5271909
0
LINE
8
0
10
273.8790051
20
-118.5271909
11
256.6448694
21
-121.566034
0
LINE
8
0
10
256.6448694
20
-121.566034
11
259.5100643
21
-137.8153619
0
LINE
8
0
10
256.5580452
20
-121.0736301
11
273.7921809
21
-118.034787
0
LINE
8
0
10
273.7921809
20
-118.034787
11
270.926986
21
-101.7854591
0
LINE
8
0
10
270.926986
20
-101.7854591
11
253.6928503
21
-104.8243022
0
LINE
8
0
10
253.6928503
20
-104.8243022
11
256.5580452
21
-121.0736301
0
LINE
8
0
10
253.6060262
20
-104.3318983
11
270.8401619
21
-101.2930552
0
LINE
8
0
10
270.8401619
20
-101.2930552
11
267.974967
21
-85.0437273
0
LINE
8
0
10
267.974967
20
-85.0437273
11
250.7408313
21
-88.0825704
0
LINE
8
0
10
250.7408313
20
-88.0825704
11
253.6060262
21
-104.3318983
0
LINE
8
0
10
238.7775698
20
-130.1687828
11
255.5996495
21
-125.345129
0
LINE
8
0
10
255.5996495
20
-125.345129
11
251.0516332
21
-109.484311
0
LINE
8
0
10
251.0516332
20
-109.484311
11
234.2295535
21
-114.3079648
0
LINE
8
0
10
234.2295535
20
-114.3079648
11
238.7775698
21
-130.1687828
0
LINE
8
0
10
234.0917348
20
-113.8273339
11
250.9138145
21
-109.0036801
0
LINE
8
0
10
250.9138145
20
-109.0036801
11
246.3657982
21
-93.1428621
0
LINE
8
0
10
246.3657982
20
-93.1428621
11
229.5437185
21
-97.9665159
0
LINE
8
0
10
229.5437185
20
-97.9665159
11
234.0917348
21
-113.8273339
0
LINE
8
0
10
229.4058997
20
-97.485885
11
246.2279794
21
-92.6622312
0
LINE
8
0
10
246.2279794
20
-92.6622312
11
241.6799631
21
-76.8014132
0
LINE
8
0
10
241.6799631
20
-76.8014132
11
224.8578834
21
-81.625067
0
LINE
8
0
10
224.8578834
20
-81.625067
11
229.4058997
21
-97.485885
0
LINE
8
0
10
218.0836244
20
-128.3943409
11
234.5282452
21
-122.4089884
0
LINE
8
0
10
234.5282452
20
-122.4089884
11
228.8849128
21
-106.9040601
0
LINE
8
0
10
228.8849128
20
-106.9040601
11
212.440292
21
-112.8894126
0
LINE
8
0
10
212.440292
20
-112.8894126
11
218.0836244
21
-128.3943409
0
LINE
8
0
10
212.269282
20
-112.4195663
11
228.7139028
21
-106.4342138
0
LINE
8
0
10
228.7139028
20
-106.4342138
11
223.0705704
21
-90.9292855
0
LINE
8
0
10
223.0705704
20
-90.9292855
11
206.6259496
21
-96.914638
0
LINE
8
0
10
206.6259496
20
-96.914638
11
212.269282
21
-112.4195663
0
LINE
8
0
10
206.4549396
20
-96.4447918
11
222.8995604
21
-90.4594393
0
LINE
8
0
10
222.8995604
20
-90.4594393
11
217.256228
21
-74.954511
0
LINE
8
0
10
217.256228
20
-74.954511
11
200.8116072
21
-80.9398635
0
LINE
8
0
10
200.8116072
20
-80.9398635
11
206.4549396
21
-96.4447918
0
LINE
8
0
10
203.9053185
20
-142.0682444
11
220.3499393
21
-136.0828919
0
LINE
8
0
10
220.3499393
20
-136.0828919
11
214.7066069
21
-120.5779636
0
LINE
8
0
10
214.7066069
20
-120.5779636
11
198.2619861
21
-126.5633161
0
LINE
8
0
10
198.2619861
20
-126.5633161
11
203.9053185
21
-142.0682444
0
LINE
8
0
10
198.0909761
20
-126.0934698
11
214.5355969
21
-120.1081173
0
LINE
8
0
10
214.5355969
20
-120.1081173
11
208.8922645
21
-104.603189
0
LINE
8
0
10
208.8922645
20
-104.603189
11
192.4476437
21
-110.5885415
0
LINE
8
0
10
192.4476437
20
-110.5885415
11
198.0909761
21
-126.0934698
0
LINE
8
0
10
192.2766336
20
-110.1186953
11
208.7212544
21
-104.1333428
0
LINE
8
0
10
208.7212544
20
-104.1333428
11
203.077922
21
-88.6284145
0
LINE
8
0
10
203.077922
20
-88.6284145
11
186.6333012
21
-94.613767
0
LINE
8
0
10
186.6333012
20
-94.613767
11
192.2766336
21
-110.1186953
0
LINE
8
0
10
188.3589319
20
-151.9833774
11
204.8035527
21
-145.9980249
0
LINE
8
0
10
204.8035527
20
-145.9980249
11
199.1602203
21
-130.4930966
0
LINE
8
0
10
199.1602203
20
-130.4930966
11
182.7155995
21
-136.4784491
0
LINE
8
0
10
182.7155995
20
-136.4784491
11
188.3589319
21
-151.9833774
0
LINE
8
0
10
182.5445895
20
-136.0086029
11
198.9892103
21
-130.0232504
0
LINE
8
0
10
198.9892103
20
-130.0232504
11
193.3458779
21
-114.5183221
0
LINE
8
0
10
193.3458779
20
-114.5183221
11
176.9012571
21
-120.5036746
0
LINE
8
0
10
176.9012571
20
-120.5036746
11
182.5445895
21
-136.0086029
0
LINE
8
0
10
176.730247
20
-120.0338283
11
193.1748678
21
-114.0484758
0
LINE
8
0
10
193.1748678
20
-114.0484758
11
187.5315354
21
-98.5435475
0
LINE
8
0
10
187.5315354
20
-98.5435475
11
171.0869146
21
-104.5289
0
LINE
8
0
10
171.0869146
20
-104.5289
11
176.730247
21
-120.0338283
0
LINE
8
0
10
215.8725723
20
-163.2527867
11
232.3171931
21
-157.2674342
0
LINE
8
0
10
232.3171931
20
-157.2674342
11
226.6738607
21
-141.7625059
0
LINE
8
0
10
226.6738607
20
-141.7625059
11
210.2292399
21
-147.7478584
0
LINE
8
0
10
210.2292399
20
-147.7478584
11
215.8725723
21
-163.2527867
0
LINE
8
0
10
200.1658785
20
-173.9440823
11
214.5010393
21
-163.9064946
0
LINE
8
0
10
214.5010393
20
-163.9064946
11
205.0370281
21
-150.3904859
0
LINE
8
0
10
205.0370281
20
-150.3904859
11
190.7018673
21
-160.4280736
0
LINE
8
0
10
190.7018673
20
-160.4280736
11
200.1658785
21
-173.9440823
0
LINE
8
0
10
183.7937651
20
-183.7968085
11
196.1681338
21
-171.4224398
0
LINE
8
0
10
196.1681338
20
-171.4224398
11
184.5008719
21
-159.7551779
0
LINE
8
0
10
184.5008719
20
-159.7551779
11
172.1265032
21
-172.1295466
0
LINE
8
0
10
172.1265032
20
-172.1295466
11
183.7937651
21
-183.7968085
0
CIRCLE
8
0
10
78.2406529
20
-86.7498652
40
2.5
0
CIRCLE
8
0
10
98.3260399
20
-130.4290201
40
2.5
0
CIRCLE
8
0
10
128.8794351
20
-177.5742688
40
2.5
0
CIRCLE
8
0
10
163.2308912
20
-104.1886879
40
2.5
0
CIRCLE
8
0
10
248.2211295
20
-86.7498652
40
2.5
0
CIRCLE
8
0
10
228.1357425
20
-130.4290201
40
2.5
0
CIRCLE
8
0
10
197.5823473
20
-177.5742688
40
2.5
0
LINE
8
0
10
163.2308912
20
-142.238237
11
163.2308912
21
-142.238237
0
LINE
8
0
10
163.2308912
20
-142.238237
11
163.2308912
21
-142.238237
0
LINE
8
0
10
163.2308912
20
-142.238237
11
163.2308912
21
-142.238237
0
ENDSEC
0
EOF